<svg width="1093" height="692" viewBox="0 0 1093 692" fill="none" xmlns="http://www.w3.org/2000/svg">
<g clip-path="url(#clip0_1527_15632)">
<path d="M758.31 119.66C757.1 119.36 755.9 118.81 754.69 118.81C716.73 118.76 678.78 118.77 640.82 118.78C639.86 118.78 638.89 118.87 637.88 118.92V149.48H605.55V119.12H591.66C591.53 120.62 591.39 122.19 591.26 123.76C591.08 123.76 590.9 123.76 590.73 123.76C590.56 122.21 590.39 120.66 590.2 118.94H390.81V188.58C390.48 188.58 390.14 188.58 389.81 188.58V119.1H374.18V292.31H339.87V243.98H107.9C108.63 327.54 106.73 411.09 109.43 494.97H88.19V478.33C85.95 478.72 84.28 479.01 82.1 479.38V458.56H49.3V243.57H3.15C4.47 241.95 4.9 240.89 5.52 240.77C6.96 240.48 8.5 240.62 10 240.62C58.11 240.62 106.22 240.62 154.33 240.62H160.61V210.65H154.73C104.79 210.65 54.84 210.65 4.9 210.61C3.27 210.61 1.64 210.05 0 209.74C0.11 209.09 0.21 208.44 0.32 207.79H328.53C328.78 202.79 329.01 198.23 329.24 193.68C329.97 193.72 330.69 193.77 331.42 193.81V207.41H340.55V84.5898H999.2V601.19H943.29C939.29 601.19 935.28 600.95 931.31 601.29C929.24 601.47 927.25 602.65 926.08 603.08C923.45 602.41 921.09 601.27 918.72 601.27C800.69 601.18 682.66 601.19 564.63 601.19H557.85V566.43H590.02C590.31 564.83 590.54 563.52 591 560.93C591.37 563.49 591.56 564.74 591.75 566.06H605.37V545.04H636.06V565.84H963.71V363.52H652.21V371.41H651.53V363.37H636.3V470.55H605.46V419.64H591.59V433.3H590.6V419.87H539.87V401.5H591.41V345.75C591.74 345.75 592.07 345.75 592.41 345.75V401.2H605.12V386.6H594.83C594.81 386.27 594.8 385.95 594.78 385.62H605.27V262.99H624.32V320.35H636.2V335.22H651.14V320.71C649.6 320.59 648.15 320.49 646.7 320.38C646.68 320.2 646.65 320.02 646.63 319.84C648.03 319.67 649.43 319.5 651.36 319.26V299.64C651.66 299.64 651.96 299.64 652.26 299.64V319.11C653.81 319.36 655.04 319.56 657.43 319.95C655.18 320.37 654.04 320.58 652.66 320.84V335.28H769.25C769.44 331.17 769.8 326.88 769.8 322.59C769.8 307.74 769.64 292.89 769.57 278.03C769.49 261.83 769.39 245.62 769.41 229.42C769.43 214.9 769.63 200.38 769.68 185.87C769.72 171.74 769.65 157.61 769.66 143.49C769.66 140.81 770 138.11 769.82 135.45C769.67 133.14 769.18 130.66 765.49 132.19C765.36 134.9 765.23 137.78 765.09 140.65C764.99 140.64 764.89 140.63 764.8 140.61C764.32 136.62 763.83 132.63 763.35 128.64C763.35 126.38 763.35 124.12 763.35 121.87C764 122.7 765.09 123.46 765.21 124.36C765.49 126.4 765.3 128.51 765.3 130.62H769.72C769.72 127.21 770.74 123.45 769.48 120.76C767.59 116.73 763.54 118.77 760.26 119.66C759.63 119.66 758.99 119.66 758.36 119.66H758.31ZM963.68 335.42V119.14H783.24C786.17 123.23 780.96 128.68 787.31 131.43C782.97 131.41 784.21 134.68 784.21 137.05C784.17 201.26 784.18 265.47 784.18 329.68C784.18 331.59 784.18 333.5 784.18 335.19H841.7V285.66H843.81V335.43H963.69L963.68 335.42ZM560.89 569.72V597.97H995.68V500.71H967.5V569.26H961.44C855.08 569.26 748.73 569.26 642.37 569.29C640.27 569.29 638.17 569.72 636.08 570.03C633.15 570.47 632.39 569.44 632.69 566.43C633.29 560.58 633.36 554.67 633.66 548.6H608.3V569.73H560.9L560.89 569.72ZM50.42 243.87V457H106.77V243.87H50.42ZM927.44 87.0499V116.05H967.49V397.19H995.74V87.0499H927.43H927.44ZM330.89 210.81C336.03 220.56 331.96 229.4 330.95 238.46H329.14C328.58 229.36 328.03 220.27 327.46 210.93H264.16V240.84H342.87V289.29H348.92V278.92C349.24 278.93 349.57 278.94 349.89 278.95V289.23H370.95V115.63H419.34V88.1599H343.47V210.8H330.88L330.89 210.81ZM771.19 131.92C771.19 134.08 771.19 135.72 771.19 137.36C771.19 187.93 771.19 238.5 771.19 289.07C771.19 303.71 771.19 318.35 771.19 332.99C771.19 335.18 771.46 337.48 768.13 337.45C762.03 337.4 755.94 337.44 749.84 337.43C730.69 337.42 711.53 337.39 692.38 337.38C679.1 337.38 665.81 337.38 652.62 337.38V361.17H926.63V336.6C914.44 336.6 902.26 336.5 890.09 336.62C872.18 336.79 854.27 337.21 836.35 337.35C819.83 337.48 803.31 337.39 786.79 337.4C783.76 337.4 782.43 336.17 782.48 332.86C782.64 322.9 782.48 312.94 782.46 302.98C782.41 285.64 782.32 268.3 782.32 250.95C782.32 231.66 782.38 212.38 782.46 193.09C782.52 178.27 782.67 163.45 782.75 148.64C782.78 143.07 782.75 137.5 782.75 131.89H771.15L771.19 131.92ZM633.41 467.13V357.56C633.41 351.57 633.26 345.58 633.46 339.59C633.63 334.33 631.85 329.16 633.73 323.36H621.18V265.87H608.34V404.61H542.76V416.63H608.91V467.12H633.41V467.13ZM608.46 115.3V146.32H634.62V115.6H643V88.0698H522.88V115.3H608.46ZM745.56 87.0198V115.45H823.83V87.0198H745.56ZM925.84 97.1199H825.59V115.51H925.84V97.1199ZM262.6 221.98H162.35V240.37H262.6V221.98ZM967.39 398.66V499.09H985.75V398.66H967.39ZM521.32 98.1498H420.89V115.5H521.32V98.1498ZM644.62 115.42H743.87V98.0499H644.62V115.42ZM928.49 361.2H963.89V337.57H928.49V361.2ZM162.16 218.32H262.61V210.93H162.16V218.32ZM644.56 94.4698H744.06V87.6098H644.56V94.4698ZM521.32 88.1498H420.86V94.5398H521.32V88.1498ZM989.32 398.68V499.14H995.72V398.68H989.32ZM925.85 87.1498H825.39V93.5398H925.85V87.1498ZM91.1 492.07H105.67V460.79H85.31V475.11C87.3 475.31 89.04 475.49 91.1 475.69V492.06V492.07ZM651.39 361.38C651.39 353.9 651.46 346.96 651.31 340.03C651.29 339.05 650.19 337.29 649.51 337.24C645.22 336.98 640.91 337.11 636.73 337.11V361.38H651.39ZM782.38 130.67C782.38 126.94 783.7 122.35 782.01 120.42C780.33 118.51 775.6 119.29 772.2 118.93C771.97 118.91 771.7 119.29 771.6 119.37V130.67H782.38ZM826.34 95.0798C826.34 95.1998 826.34 95.3198 826.34 95.4498H924.73C924.73 95.3298 924.73 95.2098 924.73 95.0798H826.34ZM261.69 220.38C261.69 220.26 261.69 220.13 261.69 220.01H163.3C163.3 220.13 163.3 220.26 163.3 220.38H261.69ZM987.15 497.98C987.32 498.04 987.48 498.11 987.65 498.17V399.83C987.48 399.83 987.32 399.83 987.15 399.83V497.98ZM520.29 96.5499C520.29 96.3799 520.27 96.2199 520.26 96.0499H421.74C421.74 96.2199 421.74 96.3799 421.74 96.5499H520.29ZM645.77 95.9398C645.7 96.1098 645.64 96.2698 645.57 96.4398H742.92V95.9398H645.77Z" fill="white"/>
<path d="M393.601 421.84V444.24C393.361 444.24 393.131 444.24 392.891 444.24V422H373.711V449.8C373.711 454.29 373.711 458.79 373.711 463.28C373.711 467.94 372.821 472.84 373.971 477.19C375.051 481.271 372.511 484.88 374.171 489.15C376.301 489.25 378.711 489.371 381.641 489.511V567.001H392.551V539.401C392.881 539.401 393.211 539.401 393.541 539.401V566.781H473.231V604.091C471.821 603.321 469.951 602.141 467.941 601.271C467.101 600.911 465.971 601.211 464.971 601.211C342.311 601.211 219.651 601.21 97.0006 601.24C94.2406 601.24 91.4806 601.651 88.3906 601.901V566.381H323.631V499.701C323.961 499.701 324.291 499.701 324.611 499.701V565.98H339.481V403.4C351.501 403.4 362.981 403.341 374.471 403.421C380.561 403.461 386.641 403.901 392.731 403.911C407.911 403.941 423.081 403.83 438.261 403.78C443.861 403.76 449.461 403.881 455.051 403.721C457.991 403.631 459.741 404.261 459.581 407.671C459.421 411.321 459.851 415.031 459.381 418.631C459.211 419.981 457.251 422.14 456.081 422.15C446.261 422.28 436.431 421.93 426.611 421.86C415.711 421.78 404.821 421.84 393.601 421.84ZM91.2706 597.891H470.201V570.061H378.591V492.27H370.711V405.78H342.521V569.41H91.2706V597.891ZM373.881 419.53C384.321 419.53 394.761 419.45 405.201 419.55C421.551 419.7 437.911 420.291 454.251 420.011C461.321 419.891 456.321 413.2 458.101 409.93C458.401 409.39 455.621 405.97 454.121 405.86C448.861 405.48 443.531 406.09 438.231 406.11C424.781 406.15 411.321 406.07 397.871 406.05C389.931 406.04 381.981 406.05 373.871 406.05V419.53H373.881Z" fill="white"/>
<path d="M691.488 673.31H963.658V640.23H815.308C815.308 639.9 815.308 639.57 815.308 639.25H963.988V617.32L964.798 617.34V691C964.588 691 964.388 691 964.178 691.01V674.29H691.488C691.488 673.97 691.488 673.64 691.488 673.32V673.31Z" fill="white"/>
<path d="M542.329 671.069H533.579C533.579 670.899 533.579 670.729 533.579 670.559C537.109 670.179 541.479 668.289 544.019 669.699C553.739 675.069 563.829 671.219 573.659 671.979C583.919 672.769 594.279 672.159 604.599 672.159C614.919 672.159 625.569 672.159 636.049 672.159C646.369 672.159 656.689 672.159 666.999 672.169C667.759 672.169 668.519 672.339 669.249 673.069H381.789V691.069L380.949 691.049V631.409C381.169 631.389 381.379 631.379 381.599 631.359V639.139H418.389C418.389 639.469 418.389 639.789 418.389 640.119H381.919V671.799H542.359C542.339 671.559 542.329 671.319 542.309 671.079L542.329 671.069Z" fill="white"/>
<path d="M1019.11 118.051H1092.62L1092.65 118.701H1076.98V325.271C1076.66 325.271 1076.33 325.271 1076.01 325.271V119.031H1044.1V234.501C1043.77 234.501 1043.44 234.501 1043.12 234.501V118.921H1019.11C1019.11 118.631 1019.12 118.341 1019.13 118.051H1019.11Z" fill="white"/>
<path d="M1076.84 565.371H1092.82C1092.82 565.691 1092.82 566.011 1092.81 566.331H1019.05V565.371H1042.85V541.351C1043.18 541.351 1043.51 541.351 1043.84 541.351V564.931H1075.9V367.621C1076.21 367.621 1076.52 367.621 1076.83 367.621V565.361L1076.84 565.371Z" fill="white"/>
<path d="M637.159 17.8184H797.94C797.94 18.1384 797.94 18.4584 797.94 18.7784H636.549C637.479 26.8784 639 34.3184 638.99 41.7584C638.98 49.0684 637.4 56.3684 636.57 63.1984V55.1684C633.99 54.9684 631.759 54.7884 629.539 54.6184C629.539 54.4384 629.53 54.2584 629.52 54.0784C631.68 53.9284 633.84 53.7884 636.37 53.6184V0.158437C636.64 0.158437 636.899 0.158437 637.169 0.148438V17.8284L637.159 17.8184Z" fill="white"/>
<path d="M966.189 17.9308V0.0507812C966.389 0.0507812 966.589 0.0507812 966.789 0.0607812V73.7308C966.569 73.7308 966.359 73.7308 966.139 73.7408V56.1308C963.209 55.9508 960.659 55.7908 958.099 55.6408C958.099 55.4408 958.099 55.2308 958.099 55.0308H965.669V18.9308H821.309C821.309 18.6008 821.309 18.2608 821.309 17.9308H966.179H966.189Z" fill="white"/>
<path d="M605.37 17.9519V0.171875C605.64 0.171875 605.91 0.171875 606.19 0.171875V53.3219C607.83 53.6619 609.17 53.9519 611.48 54.4319C609.27 54.7519 608.01 54.9319 606.44 55.1619V62.5919C606.15 62.6019 605.86 62.6219 605.57 62.6319V54.9519H576.8C576.8 54.6319 576.79 54.3119 576.78 53.9819H605.15V19.0919H495.84V17.9519H605.35H605.37Z" fill="white"/>
<path d="M481.251 18.97H370.961V53.68H387.531C387.531 54.06 387.531 54.44 387.531 54.82H370.711V62.65C370.411 62.65 370.111 62.67 369.811 62.68V54.93H364.011C363.991 54.67 363.961 54.41 363.941 54.15C365.681 53.98 367.431 53.81 369.681 53.59V0H370.591V17.73H481.391C481.341 18.14 481.301 18.55 481.251 18.96V18.97Z" fill="white"/>
<path d="M797.908 640.24H635.518V647.86C635.208 647.87 634.898 647.891 634.598 647.901V640.451C631.228 640.271 628.358 640.111 625.488 639.961C625.488 639.731 625.498 639.501 625.508 639.271H634.128C634.318 636.351 634.478 633.79 634.638 631.23C634.848 631.23 635.058 631.23 635.268 631.23V639.06H798.018C797.988 639.46 797.948 639.85 797.918 640.25L797.908 640.24Z" fill="white"/>
<path d="M1042.91 437.171V398.571H1034.25C1034.24 398.261 1034.23 397.941 1034.22 397.631H1042.91V270.691C1043.26 270.691 1043.6 270.691 1043.95 270.691V397.461H1052.74L1052.77 398.401H1044.01V437.151C1043.64 437.161 1043.28 437.171 1042.91 437.181V437.171Z" fill="white"/>
<path d="M219.74 672.95H110.22V690.91L109.32 690.89V617.32C109.52 617.32 109.73 617.32 109.93 617.32V672.05H219.74C219.74 672.35 219.74 672.66 219.74 672.96V672.95Z" fill="white"/>
<path d="M263.77 186.56V41.02C264.07 41.02 264.36 41.01 264.66 41V53.7H289.67V54.69H264.97V186.56C264.57 186.56 264.17 186.56 263.77 186.56Z" fill="white"/>
<path d="M339.851 672.232V631.262C340.171 631.262 340.491 631.262 340.811 631.262V691.042C340.481 691.042 340.161 691.042 339.831 691.052V673.202H231.941C231.941 672.872 231.941 672.542 231.941 672.222H339.851V672.232Z" fill="white"/>
<path d="M652.28 469.449H659.22C659.22 469.669 659.22 469.879 659.22 470.099H642.73C642.71 469.909 642.69 469.729 642.68 469.539H651.37V396.539C651.67 396.539 651.98 396.539 652.28 396.539V469.449Z" fill="white"/>
<path d="M390.79 222.019V291.529H399.42V292.249H382.8C382.8 292.089 382.78 291.929 382.77 291.759C384.87 291.639 386.98 291.529 389.59 291.389V221.809L390.78 222.019H390.79Z" fill="white"/>
<path d="M746.459 55.7589C746.319 58.8889 746.209 61.3189 746.099 63.7589C745.889 63.7589 745.669 63.7589 745.459 63.7589V56.0289H704.559V54.9589H745.149V46.1889C745.459 46.1689 745.769 46.1489 746.079 46.1289V54.8289H772.159C772.159 55.1389 772.159 55.4589 772.159 55.7689H746.459V55.7589Z" fill="white"/>
<path d="M825.079 55.6386V64.7686C824.829 64.7686 824.589 64.7686 824.339 64.7686V55.9686H797.379C797.379 55.6086 797.379 55.2386 797.379 54.8786H824.149V46.0886C824.459 46.0786 824.769 46.0686 825.079 46.0586V54.7286H861.769C861.769 55.0386 861.769 55.3386 861.779 55.6486H825.079V55.6386Z" fill="white"/>
<path d="M323.96 403.321H314.82L314.84 402.691H331.56C331.58 402.871 331.59 403.051 331.61 403.231C329.48 403.371 327.35 403.501 324.86 403.661V469.011C324.56 469.011 324.26 469.011 323.96 469.011V403.311V403.321Z" fill="white"/>
<path d="M521.672 54.0306V44.8906H522.412V53.7306H553.362C553.362 54.0906 553.362 54.4506 553.362 54.8106H522.562V62.6306C522.262 62.6306 521.962 62.6306 521.652 62.6406V54.9506H490.942C490.942 54.6406 490.932 54.3306 490.922 54.0306H521.672Z" fill="white"/>
<path d="M1036.42 499.329H1042.86V461.539C1043.21 461.539 1043.56 461.539 1043.91 461.539V499.299H1052.69C1052.7 499.609 1052.71 499.919 1052.73 500.229H1044.05V522.979C1043.74 522.979 1043.43 522.999 1043.11 522.999V500.629C1040.39 500.419 1038.18 500.259 1035.96 500.089C1036.11 499.839 1036.26 499.579 1036.41 499.329H1036.42Z" fill="white"/>
<path d="M473.79 648.099C473.68 645.669 473.56 643.239 473.42 640.259H439.73C439.73 639.949 439.73 639.629 439.73 639.319H473.42V631.309H474.38C474.49 633.669 474.61 636.029 474.75 639.009H499.44C499.44 639.419 499.44 639.829 499.44 640.239H474.86C474.68 643.009 474.52 645.559 474.36 648.099C474.17 648.099 473.98 648.099 473.78 648.099H473.79Z" fill="white"/>
<path d="M462.229 54.9484H419.699V62.5884C419.399 62.5884 419.099 62.6084 418.789 62.6184V54.9684H407.019C406.999 54.6484 406.989 54.3384 406.969 54.0184H418.389C418.569 50.6384 418.719 47.7684 418.879 44.8984C419.099 44.8984 419.329 44.8984 419.549 44.9084V53.7284H462.459L462.229 54.9384V54.9484Z" fill="white"/>
<path d="M591.368 319.2V263.66H582.738C582.738 263.42 582.738 263.17 582.738 262.93H599.358C599.368 263.08 599.378 263.23 599.398 263.38C597.288 263.51 595.188 263.63 592.558 263.79V319.36C592.158 319.3 591.758 319.25 591.358 319.19L591.368 319.2Z" fill="white"/>
<path d="M557.319 639.369C557.459 636.099 557.569 633.659 557.679 631.219C557.899 631.219 558.109 631.229 558.329 631.239V639.059H573.319C573.319 639.429 573.319 639.789 573.319 640.159H558.489V647.979C558.189 647.979 557.889 647.999 557.579 648.009V640.299H520.889C520.889 639.999 520.889 639.689 520.879 639.389H557.309L557.319 639.369Z" fill="white"/>
<path d="M687.989 54.9402H643.449V63.5602C643.209 63.5602 642.969 63.5602 642.719 63.5602V45.9402C642.879 45.9302 643.039 45.9202 643.199 45.9102C643.309 48.3402 643.429 50.7802 643.559 53.7302H688.179C688.119 54.1302 688.049 54.5402 687.989 54.9402Z" fill="white"/>
<path d="M928.212 55.0184V45.8984C928.462 45.8984 928.712 45.8984 928.952 45.8984V54.7384H938.952C938.952 55.0484 938.952 55.3684 938.952 55.6784H929.232V63.6784C928.872 63.6784 928.502 63.6784 928.142 63.6784V55.9284H896.442C896.442 55.6284 896.432 55.3184 896.422 55.0184H928.202H928.212Z" fill="white"/>
<path d="M392.692 512.982C392.692 508.522 393.152 503.992 392.552 499.612C392.052 495.982 395.482 491.062 390.672 489.142C391.342 487.772 392.572 486.392 392.602 484.972C392.802 477.522 392.692 470.072 393.462 462.602V487.882C395.092 488.192 396.412 488.442 398.882 488.902C396.472 489.262 395.222 489.442 393.642 489.672V513.122C393.322 513.072 393.002 513.022 392.692 512.972V512.982Z" fill="white"/>
<path d="M339.929 52.9809V42.9609C340.179 42.9609 340.429 42.9609 340.689 42.9709V52.6409C342.929 52.7809 344.819 52.9009 346.709 53.0209C346.709 53.2109 346.709 53.4009 346.709 53.5809C344.969 53.7209 343.219 53.8609 340.929 54.0509V64.6009C340.559 64.6009 340.189 64.6209 339.819 64.6209V53.9209H313.079C313.079 53.6009 313.069 53.2909 313.059 52.9709H339.929V52.9809Z" fill="white"/>
<path d="M402.549 387.448H374.709V395.268C374.409 395.268 374.109 395.288 373.799 395.298V387.558H366.989C366.979 387.258 366.959 386.968 366.949 386.668H373.409C373.599 383.618 373.769 381.058 373.929 378.488C374.139 378.488 374.349 378.488 374.559 378.498V386.358H402.529C402.529 386.718 402.529 387.088 402.529 387.448H402.549Z" fill="white"/>
<path d="M457.681 386.372H430.711C430.711 386.072 430.711 385.762 430.711 385.462H457.671V378.672C457.891 378.672 458.111 378.672 458.331 378.672V395.312L457.691 395.332V386.362L457.681 386.372Z" fill="white"/>
<path d="M605.63 639.33V631.27C605.84 631.27 606.05 631.27 606.27 631.27C606.38 633.7 606.49 636.14 606.62 638.9C608.93 639.07 611.16 639.239 613.4 639.409C613.4 639.589 613.4 639.78 613.4 639.96C611.33 640.09 609.26 640.21 606.65 640.37V647.979C606.29 647.979 605.93 647.99 605.57 648V640.28H589.799C589.789 639.96 589.78 639.65 589.77 639.33H605.65H605.63Z" fill="white"/>
<path d="M659.12 263.569H652.38V283.499C652.08 283.499 651.78 283.499 651.47 283.499V263.719H642.5C642.5 263.439 642.52 263.159 642.52 262.879H659.08C659.09 263.109 659.1 263.339 659.11 263.579L659.12 263.569Z" fill="white"/>
<path d="M538.762 395.381V378.691C538.922 378.671 539.082 378.641 539.242 378.621C539.412 380.411 539.572 382.201 539.782 384.501H557.382C557.382 384.801 557.382 385.111 557.382 385.411H539.762C539.602 388.981 539.452 392.191 539.312 395.401C539.132 395.401 538.942 395.391 538.762 395.381Z" fill="white"/>
<path d="M582.672 470.398H590.452V454.488H591.382V470.078C594.272 470.268 596.812 470.428 599.352 470.598C599.352 470.778 599.342 470.948 599.332 471.128H582.762C582.732 470.888 582.702 470.648 582.672 470.408V470.398Z" fill="white"/>
<path d="M338.98 395.221V378.551C339.17 378.551 339.37 378.541 339.56 378.531C339.67 380.951 339.78 383.381 339.91 386.351H348.61C348.61 386.661 348.62 386.961 348.63 387.271H339.96V395.211C339.64 395.211 339.31 395.221 338.99 395.231L338.98 395.221Z" fill="white"/>
<path d="M591.69 147.74H599.18C599.18 147.97 599.18 148.19 599.18 148.42H582.61C582.61 148.23 582.59 148.04 582.59 147.85H590.19C590.4 145.82 590.56 144.27 590.73 142.73C590.91 142.73 591.09 142.73 591.28 142.73C591.41 144.29 591.55 145.85 591.71 147.74H591.69Z" fill="white"/>
<path d="M606.49 476.698V484.088C608.37 484.278 609.919 484.438 611.479 484.598C611.479 484.778 611.479 484.968 611.469 485.148C609.909 485.278 608.35 485.418 606.45 485.578V493.048C606.22 493.048 606 493.048 605.77 493.048V476.488C606.01 476.558 606.25 476.618 606.5 476.688L606.49 476.698Z" fill="white"/>
<path d="M635.622 493.279C635.482 490.409 635.342 487.549 635.192 484.529C633.552 484.419 632.112 484.319 630.672 484.219C630.652 484.029 630.632 483.829 630.602 483.639C631.992 483.489 633.382 483.329 635.162 483.129C635.292 480.989 635.432 478.779 635.572 476.559C635.742 476.559 635.922 476.559 636.092 476.569V493.229C635.932 493.229 635.762 493.249 635.602 493.259L635.622 493.279Z" fill="white"/>
<path d="M330.978 250.881C330.338 249.331 329.688 247.781 328.898 245.871H332.108V250.241C331.728 250.451 331.348 250.661 330.968 250.881H330.978Z" fill="white"/>
<path d="M567.429 51.9313C566.859 52.6613 566.279 53.4013 565.709 54.1313C565.289 53.6913 564.869 53.2513 564.449 52.8213C565.139 52.5213 565.839 52.2313 566.529 51.9313L566.389 51.7812C566.529 52.0312 566.669 52.2812 566.799 52.5312C567.049 52.2812 567.299 52.0312 567.549 51.7812L567.409 51.9313H567.429Z" fill="white"/>
<path d="M325.818 479.26C325.438 479.61 325.118 480.13 324.678 480.26C324.088 480.43 323.418 480.3 321.238 480.3C323.488 479.27 324.408 478.85 325.328 478.43L325.828 479.26H325.818Z" fill="white"/>
<path d="M566.54 51.9317C566.61 51.3717 566.68 50.8217 566.76 50.2617H567.22C567.29 50.8217 567.36 51.3717 567.44 51.9317L567.58 51.7817C567.19 51.7817 566.8 51.7817 566.41 51.7817L566.55 51.9317H566.54Z" fill="white"/>
<path d="M391.032 208.078C391.242 208.258 391.452 208.388 391.572 208.578C391.632 208.678 391.572 208.998 391.522 209.008C391.302 209.048 391.072 209.008 390.852 208.998C390.912 208.718 390.972 208.428 391.042 208.088L391.032 208.078Z" fill="white"/>
<path d="M652.731 386.871C652.941 387.051 653.151 387.181 653.271 387.371C653.331 387.471 653.271 387.791 653.221 387.801C653.001 387.841 652.771 387.801 652.551 387.791C652.611 387.511 652.671 387.221 652.741 386.881L652.731 386.871Z" fill="white"/>
<path d="M785.15 59.9802C784.94 60.1102 784.75 60.2302 784.56 60.3502C784.51 60.0602 784.43 59.7702 784.43 59.4902C784.43 59.3802 784.65 59.2702 784.77 59.1602C784.9 59.4302 785.03 59.7102 785.15 59.9802Z" fill="white"/>
<path d="M225.78 672.181C225.6 672.371 225.43 672.551 225.27 672.731C225.17 672.451 225.04 672.171 225 671.881C224.99 671.781 225.2 671.651 225.31 671.531C225.47 671.751 225.62 671.961 225.78 672.181Z" fill="white"/>
<path d="M681.762 678.512C681.942 678.732 682.232 678.932 682.222 679.112C682.202 679.342 681.942 679.542 681.782 679.762C681.672 679.642 681.462 679.512 681.482 679.402C681.522 679.112 681.652 678.832 681.762 678.512Z" fill="white"/>
<path d="M786.789 224.422H827.88C827.88 225.022 827.88 225.622 827.88 226.222H786.94C786.88 225.622 786.83 225.022 786.77 224.422H786.789Z" fill="white"/>
<path d="M824.29 131.669H802.32C802.32 131.409 802.32 131.159 802.32 130.899H824.03V122.969C824.32 122.969 824.61 122.969 824.91 122.969V140.609C824.71 140.609 824.5 140.609 824.3 140.619V131.659L824.29 131.669Z" fill="white"/>
<path d="M957.769 121.328C958.019 122.688 958.269 124.048 958.529 125.408C958.089 125.518 957.649 125.618 957.199 125.728C956.869 124.308 956.539 122.898 956.219 121.478C956.739 121.428 957.249 121.378 957.769 121.328Z" fill="white"/>
<path d="M795.781 129.411C795.621 129.171 795.371 128.951 795.371 128.721C795.371 128.551 795.671 128.361 795.841 128.191C795.941 128.311 796.131 128.451 796.111 128.551C796.051 128.841 795.911 129.111 795.791 129.411H795.781Z" fill="white"/>
<path d="M974.98 112.892C974.31 113.212 973.64 113.532 972.97 113.852C972.67 112.792 972.37 111.732 972.07 110.672H974.98C974.98 111.412 974.98 112.152 974.98 112.892Z" fill="white"/>
<path d="M348.82 259.282V244.122C347.38 243.812 346.06 243.532 344.75 243.252C344.76 243.122 344.78 242.982 344.79 242.852H354.46C354.49 243.012 354.51 243.172 354.54 243.332C353.13 243.502 351.72 243.672 349.82 243.902V259.442C349.49 259.392 349.16 259.342 348.83 259.292L348.82 259.282Z" fill="white"/>
</g>
<defs>
<clipPath id="clip0_1527_15632">
<rect width="1092.82" height="691.06" fill="white"/>
</clipPath>
</defs>
</svg>
