<svg width="795" height="607" viewBox="0 0 795 607" fill="none" xmlns="http://www.w3.org/2000/svg">
<g clip-path="url(#clip0_1490_16054)">
<path d="M758.31 34.6599C757.1 34.3599 755.9 33.8098 754.69 33.8098C716.73 33.7598 678.78 33.7698 640.82 33.7798C639.86 33.7798 638.89 33.8698 637.88 33.9198V64.4798H605.55V34.1199H591.66C591.53 35.6199 591.39 37.1898 591.26 38.7598C591.08 38.7598 590.9 38.7598 590.73 38.7598C590.56 37.2099 590.39 35.6599 590.2 33.9398H390.81V103.58C390.48 103.58 390.14 103.58 389.81 103.58V34.0998H374.18V207.31H339.87V158.98H107.9C108.63 242.54 106.73 326.09 109.43 409.97H88.19V393.33C85.95 393.72 84.28 394.01 82.1 394.38V373.56H49.3V158.57H3.15C4.47 156.95 4.9 155.89 5.52 155.77C6.96 155.48 8.5 155.62 10 155.62C58.11 155.62 106.22 155.62 154.33 155.62H160.61V125.65H154.73C104.79 125.65 54.84 125.65 4.9 125.61C3.27 125.61 1.64 125.05 0 124.74C0.11 124.09 0.21 123.44 0.32 122.79H328.53C328.78 117.79 329.01 113.23 329.24 108.68C329.97 108.72 330.69 108.77 331.42 108.81V122.41H340.55V-0.410156H999.2V516.19H943.29C939.29 516.19 935.28 515.95 931.31 516.29C929.24 516.47 927.25 517.65 926.08 518.08C923.45 517.41 921.09 516.27 918.72 516.27C800.69 516.18 682.66 516.19 564.63 516.19H557.85V481.43H590.02C590.31 479.83 590.54 478.52 591 475.93C591.37 478.49 591.56 479.74 591.75 481.06H605.37V460.04H636.06V480.84H963.71V278.52H652.21V286.41H651.53V278.37H636.3V385.55H605.46V334.64H591.59V348.3H590.6V334.87H539.87V316.5H591.41V260.75C591.74 260.75 592.07 260.75 592.41 260.75V316.2H605.12V301.6H594.83C594.81 301.27 594.8 300.95 594.78 300.62H605.27V177.99H624.32V235.35H636.2V250.22H651.14V235.71C649.6 235.59 648.15 235.49 646.7 235.38C646.68 235.2 646.65 235.02 646.63 234.84C648.03 234.67 649.43 234.5 651.36 234.26V214.64C651.66 214.64 651.96 214.64 652.26 214.64V234.11C653.81 234.36 655.04 234.56 657.43 234.95C655.18 235.37 654.04 235.58 652.66 235.84V250.28H769.25C769.44 246.17 769.8 241.88 769.8 237.59C769.8 222.74 769.64 207.89 769.57 193.03C769.49 176.83 769.39 160.62 769.41 144.42C769.43 129.9 769.63 115.38 769.68 100.87C769.72 86.7398 769.65 72.6099 769.66 58.4899C769.66 55.8099 770 53.1098 769.82 50.4498C769.67 48.1398 769.18 45.6599 765.49 47.1898C765.36 49.8998 765.23 52.7798 765.09 55.6498C764.99 55.6398 764.89 55.6298 764.8 55.6098C764.32 51.6198 763.83 47.6298 763.35 43.6398C763.35 41.3798 763.35 39.1199 763.35 36.8699C764 37.6999 765.09 38.4598 765.21 39.3598C765.49 41.3998 765.3 43.5098 765.3 45.6198H769.72C769.72 42.2098 770.74 38.4498 769.48 35.7598C767.59 31.7299 763.54 33.7699 760.26 34.6599C759.63 34.6599 758.99 34.6599 758.36 34.6599H758.31ZM963.68 250.42V34.1398H783.24C786.17 38.2298 780.96 43.6798 787.31 46.4298C782.97 46.4098 784.21 49.6799 784.21 52.0499C784.17 116.26 784.18 180.47 784.18 244.68C784.18 246.59 784.18 248.5 784.18 250.19H841.7V200.66H843.81V250.43H963.69L963.68 250.42ZM560.89 484.72V512.97H995.68V415.71H967.5V484.26H961.44C855.08 484.26 748.73 484.26 642.37 484.29C640.27 484.29 638.17 484.72 636.08 485.03C633.15 485.47 632.39 484.44 632.69 481.43C633.29 475.58 633.36 469.67 633.66 463.6H608.3V484.73H560.9L560.89 484.72ZM50.42 158.87V372H106.77V158.87H50.42ZM927.44 2.04985V31.0499H967.49V312.19H995.74V2.04985H927.43H927.44ZM330.89 125.81C336.03 135.56 331.96 144.4 330.95 153.46H329.14C328.58 144.36 328.03 135.27 327.46 125.93H264.16V155.84H342.87V204.29H348.92V193.92C349.24 193.93 349.57 193.94 349.89 193.95V204.23H370.95V30.6298H419.34V3.15985H343.47V125.8H330.88L330.89 125.81ZM771.19 46.9198C771.19 49.0798 771.19 50.7198 771.19 52.3598C771.19 102.93 771.19 153.5 771.19 204.07C771.19 218.71 771.19 233.35 771.19 247.99C771.19 250.18 771.46 252.48 768.13 252.45C762.03 252.4 755.94 252.44 749.84 252.43C730.69 252.42 711.53 252.39 692.38 252.38C679.1 252.38 665.81 252.38 652.62 252.38V276.17H926.63V251.6C914.44 251.6 902.26 251.5 890.09 251.62C872.18 251.79 854.27 252.21 836.35 252.35C819.83 252.48 803.31 252.39 786.79 252.4C783.76 252.4 782.43 251.17 782.48 247.86C782.64 237.9 782.48 227.94 782.46 217.98C782.41 200.64 782.32 183.3 782.32 165.95C782.32 146.66 782.38 127.38 782.46 108.09C782.52 93.2698 782.67 78.4498 782.75 63.6398C782.78 58.0698 782.75 52.4998 782.75 46.8898H771.15L771.19 46.9198ZM633.41 382.13V272.56C633.41 266.57 633.26 260.58 633.46 254.59C633.63 249.33 631.85 244.16 633.73 238.36H621.18V180.87H608.34V319.61H542.76V331.63H608.91V382.12H633.41V382.13ZM608.46 30.2999V61.3199H634.62V30.5998H643V3.06985H522.88V30.2999H608.46ZM745.56 2.01984V30.4498H823.83V2.01984H745.56ZM925.84 12.1199H825.59V30.5098H925.84V12.1199ZM262.6 136.98H162.35V155.37H262.6V136.98ZM967.39 313.66V414.09H985.75V313.66H967.39ZM521.32 13.1498H420.89V30.4998H521.32V13.1498ZM644.62 30.4198H743.87V13.0499H644.62V30.4198ZM928.49 276.2H963.89V252.57H928.49V276.2ZM162.16 133.32H262.61V125.93H162.16V133.32ZM644.56 9.46985H744.06V2.60985H644.56V9.46985ZM521.32 3.14985H420.86V9.53985H521.32V3.14985ZM989.32 313.68V414.14H995.72V313.68H989.32ZM925.85 2.14985H825.39V8.53985H925.85V2.14985ZM91.1 407.07H105.67V375.79H85.31V390.11C87.3 390.31 89.04 390.49 91.1 390.69V407.06V407.07ZM651.39 276.38C651.39 268.9 651.46 261.96 651.31 255.03C651.29 254.05 650.19 252.29 649.51 252.24C645.22 251.98 640.91 252.11 636.73 252.11V276.38H651.39ZM782.38 45.6698C782.38 41.9398 783.7 37.3498 782.01 35.4198C780.33 33.5098 775.6 34.2898 772.2 33.9298C771.97 33.9098 771.7 34.2898 771.6 34.3699V45.6698H782.38ZM826.34 10.0798C826.34 10.1998 826.34 10.3198 826.34 10.4498H924.73C924.73 10.3298 924.73 10.2098 924.73 10.0798H826.34ZM261.69 135.38C261.69 135.26 261.69 135.13 261.69 135.01H163.3C163.3 135.13 163.3 135.26 163.3 135.38H261.69ZM987.15 412.98C987.32 413.04 987.48 413.11 987.65 413.17V314.83C987.48 314.83 987.32 314.83 987.15 314.83V412.98ZM520.29 11.5499C520.29 11.3799 520.27 11.2199 520.26 11.0499H421.74C421.74 11.2199 421.74 11.3799 421.74 11.5499H520.29ZM645.77 10.9398C645.7 11.1098 645.64 11.2698 645.57 11.4398H742.92V10.9398H645.77Z" fill="white"/>
<path d="M393.601 336.84V359.24C393.361 359.24 393.131 359.24 392.891 359.24V337H373.711V364.8C373.711 369.29 373.711 373.79 373.711 378.28C373.711 382.94 372.821 387.84 373.971 392.19C375.051 396.271 372.511 399.88 374.171 404.15C376.301 404.25 378.711 404.371 381.641 404.511V482.001H392.551V454.401C392.881 454.401 393.211 454.401 393.541 454.401V481.781H473.231V519.091C471.821 518.321 469.951 517.141 467.941 516.271C467.101 515.911 465.971 516.211 464.971 516.211C342.311 516.211 219.651 516.21 97.0006 516.24C94.2406 516.24 91.4806 516.651 88.3906 516.901V481.381H323.631V414.701C323.961 414.701 324.291 414.701 324.611 414.701V480.98H339.481V318.4C351.501 318.4 362.981 318.341 374.471 318.421C380.561 318.461 386.641 318.901 392.731 318.911C407.911 318.941 423.081 318.83 438.261 318.78C443.861 318.76 449.461 318.881 455.051 318.721C457.991 318.631 459.741 319.261 459.581 322.671C459.421 326.321 459.851 330.031 459.381 333.631C459.211 334.981 457.251 337.14 456.081 337.15C446.261 337.28 436.431 336.93 426.611 336.86C415.711 336.78 404.821 336.84 393.601 336.84ZM91.2706 512.891H470.201V485.061H378.591V407.27H370.711V320.78H342.521V484.41H91.2706V512.891ZM373.881 334.53C384.321 334.53 394.761 334.45 405.201 334.55C421.551 334.7 437.911 335.291 454.251 335.011C461.321 334.891 456.321 328.2 458.101 324.93C458.401 324.39 455.621 320.97 454.121 320.86C448.861 320.48 443.531 321.09 438.231 321.11C424.781 321.15 411.321 321.07 397.871 321.05C389.931 321.04 381.981 321.05 373.871 321.05V334.53H373.881Z" fill="white"/>
<path d="M691.488 588.31H963.658V555.23H815.308C815.308 554.9 815.308 554.57 815.308 554.25H963.988V532.32L964.798 532.34V606C964.588 606 964.388 606 964.178 606.01V589.29H691.488C691.488 588.97 691.488 588.64 691.488 588.32V588.31Z" fill="white"/>
<path d="M542.329 586.069H533.579C533.579 585.899 533.579 585.729 533.579 585.559C537.109 585.179 541.479 583.289 544.019 584.699C553.739 590.069 563.829 586.219 573.659 586.979C583.919 587.769 594.279 587.159 604.599 587.159C614.919 587.159 625.569 587.159 636.049 587.159C646.369 587.159 656.689 587.159 666.999 587.169C667.759 587.169 668.519 587.339 669.249 588.069H381.789V606.069L380.949 606.049V546.409C381.169 546.389 381.379 546.379 381.599 546.359V554.139H418.389C418.389 554.469 418.389 554.789 418.389 555.119H381.919V586.799H542.359C542.339 586.559 542.329 586.319 542.309 586.079L542.329 586.069Z" fill="white"/>
<path d="M797.908 555.24H635.518V562.86C635.208 562.87 634.898 562.891 634.598 562.901V555.451C631.228 555.271 628.358 555.111 625.488 554.961C625.488 554.731 625.498 554.501 625.508 554.271H634.128C634.318 551.351 634.478 548.79 634.638 546.23C634.848 546.23 635.058 546.23 635.268 546.23V554.06H798.018C797.988 554.46 797.948 554.85 797.918 555.25L797.908 555.24Z" fill="white"/>
<path d="M219.74 587.95H110.22V605.91L109.32 605.89V532.32C109.52 532.32 109.73 532.32 109.93 532.32V587.05H219.74C219.74 587.35 219.74 587.66 219.74 587.96V587.95Z" fill="white"/>
<path d="M263.77 101.56V-43.98C264.07 -43.98 264.36 -43.99 264.66 -44V-31.3H289.67V-30.31H264.97V101.56C264.57 101.56 264.17 101.56 263.77 101.56Z" fill="white"/>
<path d="M339.851 587.232V546.262C340.171 546.262 340.491 546.262 340.811 546.262V606.042C340.481 606.042 340.161 606.042 339.831 606.052V588.202H231.941C231.941 587.872 231.941 587.542 231.941 587.222H339.851V587.232Z" fill="white"/>
<path d="M652.28 384.449H659.22C659.22 384.669 659.22 384.879 659.22 385.099H642.73C642.71 384.909 642.69 384.729 642.68 384.539H651.37V311.539C651.67 311.539 651.98 311.539 652.28 311.539V384.449Z" fill="white"/>
<path d="M390.79 137.019V206.529H399.42V207.249H382.8C382.8 207.089 382.78 206.929 382.77 206.759C384.87 206.639 386.98 206.529 389.59 206.389V136.809L390.78 137.019H390.79Z" fill="white"/>
<path d="M323.96 318.321H314.82L314.84 317.691H331.56C331.58 317.871 331.59 318.051 331.61 318.231C329.48 318.371 327.35 318.501 324.86 318.661V384.011C324.56 384.011 324.26 384.011 323.96 384.011V318.311V318.321Z" fill="white"/>
<path d="M473.79 563.099C473.68 560.669 473.56 558.239 473.42 555.259H439.73C439.73 554.949 439.73 554.629 439.73 554.319H473.42V546.309H474.38C474.49 548.669 474.61 551.029 474.75 554.009H499.44C499.44 554.419 499.44 554.829 499.44 555.239H474.86C474.68 558.009 474.52 560.559 474.36 563.099C474.17 563.099 473.98 563.099 473.78 563.099H473.79Z" fill="white"/>
<path d="M591.368 234.2V178.66H582.738C582.738 178.42 582.738 178.17 582.738 177.93H599.358C599.368 178.08 599.378 178.23 599.398 178.38C597.288 178.51 595.188 178.63 592.558 178.79V234.36C592.158 234.3 591.758 234.25 591.358 234.19L591.368 234.2Z" fill="white"/>
<path d="M557.319 554.369C557.459 551.099 557.569 548.659 557.679 546.219C557.899 546.219 558.109 546.229 558.329 546.239V554.059H573.319C573.319 554.429 573.319 554.789 573.319 555.159H558.489V562.979C558.189 562.979 557.889 562.999 557.579 563.009V555.299H520.889C520.889 554.999 520.889 554.689 520.879 554.389H557.309L557.319 554.369Z" fill="white"/>
<path d="M392.692 427.982C392.692 423.522 393.152 418.992 392.552 414.612C392.052 410.982 395.482 406.062 390.672 404.142C391.342 402.772 392.572 401.392 392.602 399.972C392.802 392.522 392.692 385.072 393.462 377.602V402.882C395.092 403.192 396.412 403.442 398.882 403.902C396.472 404.262 395.222 404.442 393.642 404.672V428.122C393.322 428.072 393.002 428.022 392.692 427.972V427.982Z" fill="white"/>
<path d="M402.549 302.448H374.709V310.268C374.409 310.268 374.109 310.288 373.799 310.298V302.558H366.989C366.979 302.258 366.959 301.968 366.949 301.668H373.409C373.599 298.618 373.769 296.058 373.929 293.488C374.139 293.488 374.349 293.488 374.559 293.498V301.358H402.529C402.529 301.718 402.529 302.088 402.529 302.448H402.549Z" fill="white"/>
<path d="M457.681 301.372H430.711C430.711 301.072 430.711 300.762 430.711 300.462H457.671V293.672C457.891 293.672 458.111 293.672 458.331 293.672V310.312L457.691 310.332V301.362L457.681 301.372Z" fill="white"/>
<path d="M605.63 554.33V546.27C605.84 546.27 606.05 546.27 606.27 546.27C606.38 548.7 606.49 551.14 606.62 553.9C608.93 554.07 611.16 554.239 613.4 554.409C613.4 554.589 613.4 554.78 613.4 554.96C611.33 555.09 609.26 555.21 606.65 555.37V562.979C606.29 562.979 605.93 562.99 605.57 563V555.28H589.799C589.789 554.96 589.78 554.65 589.77 554.33H605.65H605.63Z" fill="white"/>
<path d="M659.12 178.569H652.38V198.499C652.08 198.499 651.78 198.499 651.47 198.499V178.719H642.5C642.5 178.439 642.52 178.159 642.52 177.879H659.08C659.09 178.109 659.1 178.339 659.11 178.579L659.12 178.569Z" fill="white"/>
<path d="M538.762 310.381V293.691C538.922 293.671 539.082 293.641 539.242 293.621C539.412 295.411 539.572 297.201 539.782 299.501H557.382C557.382 299.801 557.382 300.111 557.382 300.411H539.762C539.602 303.981 539.452 307.191 539.312 310.401C539.132 310.401 538.942 310.391 538.762 310.381Z" fill="white"/>
<path d="M582.672 385.398H590.452V369.488H591.382V385.078C594.272 385.268 596.812 385.428 599.352 385.598C599.352 385.778 599.342 385.948 599.332 386.128H582.762C582.732 385.888 582.702 385.648 582.672 385.408V385.398Z" fill="white"/>
<path d="M338.98 310.221V293.551C339.17 293.551 339.37 293.541 339.56 293.531C339.67 295.951 339.78 298.381 339.91 301.351H348.61C348.61 301.661 348.62 301.961 348.63 302.271H339.96V310.211C339.64 310.211 339.31 310.221 338.99 310.231L338.98 310.221Z" fill="white"/>
<path d="M591.69 62.7405H599.18C599.18 62.9705 599.18 63.1905 599.18 63.4205H582.61C582.61 63.2305 582.59 63.0405 582.59 62.8505H590.19C590.4 60.8205 590.56 59.2705 590.73 57.7305C590.91 57.7305 591.09 57.7305 591.28 57.7305C591.41 59.2905 591.55 60.8505 591.71 62.7405H591.69Z" fill="white"/>
<path d="M606.49 391.698V399.088C608.37 399.278 609.919 399.438 611.479 399.598C611.479 399.778 611.479 399.968 611.469 400.148C609.909 400.278 608.35 400.418 606.45 400.578V408.048C606.22 408.048 606 408.048 605.77 408.048V391.488C606.01 391.558 606.25 391.618 606.5 391.688L606.49 391.698Z" fill="white"/>
<path d="M635.622 408.279C635.482 405.409 635.342 402.549 635.192 399.529C633.552 399.419 632.112 399.319 630.672 399.219C630.652 399.029 630.632 398.829 630.602 398.639C631.992 398.489 633.382 398.329 635.162 398.129C635.292 395.989 635.432 393.779 635.572 391.559C635.742 391.559 635.922 391.559 636.092 391.569V408.229C635.932 408.229 635.762 408.249 635.602 408.259L635.622 408.279Z" fill="white"/>
<path d="M330.978 165.881C330.338 164.331 329.688 162.781 328.898 160.871H332.108V165.241C331.728 165.451 331.348 165.661 330.968 165.881H330.978Z" fill="white"/>
<path d="M325.818 394.26C325.438 394.61 325.118 395.13 324.678 395.26C324.088 395.43 323.418 395.3 321.238 395.3C323.488 394.27 324.408 393.85 325.328 393.43L325.828 394.26H325.818Z" fill="white"/>
<path d="M391.032 123.078C391.242 123.258 391.452 123.388 391.572 123.578C391.632 123.678 391.572 123.998 391.522 124.008C391.302 124.048 391.072 124.008 390.852 123.998C390.912 123.718 390.972 123.428 391.042 123.088L391.032 123.078Z" fill="white"/>
<path d="M652.731 301.871C652.941 302.051 653.151 302.181 653.271 302.371C653.331 302.471 653.271 302.791 653.221 302.801C653.001 302.841 652.771 302.801 652.551 302.791C652.611 302.511 652.671 302.221 652.741 301.881L652.731 301.871Z" fill="white"/>
<path d="M225.78 587.181C225.6 587.371 225.43 587.551 225.27 587.731C225.17 587.451 225.04 587.171 225 586.881C224.99 586.781 225.2 586.651 225.31 586.531C225.47 586.751 225.62 586.961 225.78 587.181Z" fill="white"/>
<path d="M681.762 593.512C681.942 593.732 682.232 593.932 682.222 594.112C682.202 594.342 681.942 594.542 681.782 594.762C681.672 594.642 681.462 594.512 681.482 594.402C681.522 594.112 681.652 593.832 681.762 593.512Z" fill="white"/>
<path d="M786.789 139.422H827.88C827.88 140.022 827.88 140.622 827.88 141.222H786.94C786.88 140.622 786.83 140.022 786.77 139.422H786.789Z" fill="white"/>
<path d="M348.82 174.282V159.122C347.38 158.812 346.06 158.532 344.75 158.252C344.76 158.122 344.78 157.982 344.79 157.852H354.46C354.49 158.012 354.51 158.172 354.54 158.332C353.13 158.502 351.72 158.672 349.82 158.902V174.442C349.49 174.392 349.16 174.342 348.83 174.292L348.82 174.282Z" fill="white"/>
</g>
<defs>
<clipPath id="clip0_1490_16054">
<rect width="1092.82" height="691.06" fill="white" transform="translate(0 -85)"/>
</clipPath>
</defs>
</svg>
