<svg width="1085" height="677" viewBox="0 0 1085 677" fill="none" xmlns="http://www.w3.org/2000/svg">
<g clip-path="url(#clip0_1730_14237)">
<path d="M442 0V12.5H433.7V25H425.4V37.5H417.1V50H408.8V62.5H400.5V75H392.2V87.5H384V100H375.7V112.5H367.4V121H116V133.5H107.7V146H99.4V158.5H91.1V171H82.8V183.5H74.5V196H66.2V208.5H58V221H49.7V233.5H41.4V246H33.1V258.5H24.8V271H16.5V283.5H8.3V296H0V330H326V376H360V363.8H368.6V351.6H377.2V339.4H385.8V327.2H394.4V315H403V302.8H411.6V290.6H420.2V278.4H428.8V266.2H437.4V254H446V241.8H454.6V229.6H463.2V217.4H471.8V209H584V238H613V225.8H621.6V213.6H630.2V209H683.5V210.5H675.2V223H666.9V235.5H658.6V248H650.3V260.5H642V273H633.7V285.5H625.4V298H617.1V310.5H608.8V323H600.5V335.5H592.2V348H584V396.5H576V409H567.7V421.5H559.4V434H551.1V446.5H542.8V459H534.5V468H480V310H442V322.5H433.7V335H425.4V347.5H417.1V360H408.8V372.5H400.5V385H392.2V397.5H384V410H375.7V422.5H367.4V435H359.1V447.5H350.8V460H342.5V468H201V480.5H192.7V493H184.4V505.5H176.1V518H167.8V530.5H159.5V543H151.2V555.5H143V568H134.7V580.5H126.4V593H118.1V605.5H109.8V618H101.5V630.5H93.2V643H85V677H455V664.8H463.6V652.6H472.2V640.4H480.8V628.2H489.4V616H498V603.8H506.6V591.6H515.2V579.4H523.8V567.2H532.4V555H541V542.8H549.6V530.6H558.2V518.4H566.8V506H575.4V502H584.4V549H602.7V555.5H594V568H585.7V580.5H577.4V593H569.1V605.5H560.8V618H552.5V630.5H544.2V643H536V677H965V664.8H973.6V652.6H982.2V640.4H990.8V628.2H999.4V616H1008V603.8H1016.6V591.6H1025.2V579.4H1033.8V567.2H1042.4V555H1051V542.8H1059.6V530.6H1068.2V518.4H1076.8V506H1085.4V0H442ZM121 138.2H350.9V146H121V138.2ZM344.1 254V248.1H350.8V254H344.1ZM350.9 256.7V258.5H344.2V256.7H350.9ZM344.1 246V244.5H350.8V246H344.1ZM344.1 241.5V235.9H350.8V241.5H344.1ZM344.1 233.5V232.3H350.8V233.5H344.1ZM344.1 229V223.7H350.8V229H344.1ZM344.1 221V220.1H350.8V221H344.1ZM344.1 216.5V211.5H350.8V216.5H344.1ZM344.1 208.5V207.9H350.8V208.5H344.1ZM344.1 204V199.3H350.8V204H344.1ZM344.1 196V195.6H350.8V196H344.1ZM344.1 191.5V187.1H350.8V191.5H344.1ZM344.1 183.5L350.8 183.4V183.5H344.1ZM344.1 179V176H350.8V179H344.1ZM344.1 175V174.9H350.8V175H344.1ZM344.1 166.5V163.8H350.8V166.5H344.1ZM344.1 154V151.6H350.8V154H344.1ZM121 150.4H342.6V154H121V150.4ZM335.6 266.5V260.4H342.6V266.5H335.6ZM342.6 268.9V271H335.6V268.9H342.6ZM335.6 258.5V256.7H342.6V258.5H335.6ZM335.6 254V248.1H342.6V254H335.6ZM335.6 246V244.5H342.6V246H335.6ZM335.6 241.5V235.9H342.6V241.5H335.6ZM335.6 233.5V232.3H342.6V233.5H335.6ZM335.6 229V223.7H342.6V229H335.6ZM335.6 221V220.1H342.6V221H335.6ZM335.6 216.5V211.5H342.6V216.5H335.6ZM335.6 208.5V207.9H342.6V208.5H335.6ZM335.6 204V199.3H342.6V204H335.6ZM335.6 196V195.6H342.6V196H335.6ZM335.6 191.5V187.1H342.6V191.5H335.6ZM335.6 183.5L342.6 183.4V183.5H335.6ZM335.6 179V176H342.6V179H335.6ZM335.6 175V174.9H342.6V175H335.6ZM335.6 166.5V163.8H342.6V166.5H335.6ZM112.4 138.2H116V146H112.4V138.2ZM112.4 150.4H116V158.5H112.4V150.4ZM112.4 162.6H334.3V166.5H112.4V162.6ZM103.9 150.4H107.7V158.5H103.9V150.4ZM103.9 162.6H107.7V171H103.9V162.6ZM95.3 162.6H99.4V171H95.3V162.6ZM86.7 174.9H91.1V183.5H86.7V174.9ZM78.1 187.1H82.8V196H78.1V187.1ZM69.6 199.3H74.6V208.5H69.6V199.3ZM61 211.5H66.3V221H61V211.5ZM52.4 223.7H58V233.5H52.4V223.7ZM43.9 235.9H49.7V246H43.9V235.9ZM43.9 260.4H161L162 258.5H43.9V248.1H49.7V256.7H163L164.5 254H52.4V248.1H167.8L169 246H52.4V235.9H58V244.5H169.9L171.6 241.5H61V235.9H174.7L176.1 233.5H61V223.7H66.3V232.3H176.8L178.7 229H69.7V223.7H181.7L183.2 221H69.6V211.5H74.6V220.1H183.7L185.7 216.5H78.1V211.5H188.4L190.1 208.5H78.1V199.3H82.8V207.9H190.4L192.6 204H86.6V199.3H195.3L197.2 196H86.7V187.1H91.1V195.7H197.4L199.7 191.6H95.3V187.2H202.3L204.3 183.6H95.3V175H99.4V183.6H204.3L206.8 179.2H103.9V175.1H209.2L213.1 168.2H280.1L276.2 175.1H334.4V175.2H326V179.2H273.8L271.3 183.6H326V183.7H271.3L269.3 187.3H326V191.7H266.7L264.4 195.8H326V196.2H264.2L262.3 199.5H326V204.2H259.7L257.5 208.1H326V208.7H257.2L255.5 211.7H326V216.7H252.6L250.6 220.3H326V221.2H250.1L248.6 223.9H326V229.2H245.6L243.7 232.5H326V233.7H243.1L241.7 236.1H326V241.7H238.6L236.9 244.7H326V246.2H236L234.8 248.3H326V254.2H231.5L230 256.9H326V258.7H229L228 260.6H326V266.7H43.9V260.4ZM327 279V272.6H334.3V279H327ZM334.3 281.1V283.5H327V281.1H334.3ZM327 271V268.9H334.3V271H327ZM327 266.5V260.4H334.3V266.5H327ZM327 258.5V256.7H334.3V258.5H327ZM327 254V248.1H334.3V254H327ZM327 246V244.5H334.3V246H327ZM327 241.5V235.9H334.3V241.5H327ZM327 233.5V232.3H334.3V233.5H327ZM327 229V223.7H334.3V229H327ZM327 221V220.1H334.3V221H327ZM327 216.5V211.5H334.3V216.5H327ZM327 208.5V207.9H334.3V208.5H327ZM327 204V199.3H334.3V204H327ZM327 196V195.6H334.3V196H327ZM327 191.5V187.1H334.3V191.5H327ZM327 183.5L334.3 183.4V183.5H327ZM327 179V176H334.3V179H327ZM35.3 248.1H41.4V258.5H35.3V248.1ZM35.3 260.4H41.4V269H326V271.1H35.3V260.4ZM35.3 272.6H326V279H35.3V272.6ZM26.7 260.4H33.1V271H26.7V260.4ZM26.7 272.6H33.1V281.2H326V283.6H26.7V272.6ZM26.7 284.8H326V291.5H26.7V284.8ZM18.1 272.6H24.8V283.5H18.1V272.6ZM18.1 284.8H24.8V293.4H326V296H18.1V284.8ZM9.6 284.8H16.6V296H9.6V284.8ZM359 375H327V329H1V297H8.3V317.8H334.3V363.8H359V375ZM359 362.5H335.6V316.5H9.6V297H16.6V305.6H342.6V351.6H359V362.5ZM359 350H344.1V304H18.1V297H327V293.4H350.9V339.4H359V350ZM359 337.5H352.7V291.5H327V284.8H335.6V281.2H359V337.5ZM359 279H335.6V272.6H344.2V269H359V279ZM359 266.5H344.1V260.4H352.7V256.8H359V266.5ZM359 254H352.7V248.1H359V254ZM359 246H352.7V244.5H359V246ZM359 241.5H352.7V235.9H359V241.5ZM359 233.5H352.7V232.3H359V233.5ZM359 229H352.7V223.7H359V229ZM359 221H352.7V220.1H359V221ZM359 216.5H352.7V211.5H359V216.5ZM359.1 208H359V208.5H352.7V207.9H359.1V208ZM359.1 204H352.7V199.3H359.1V204ZM359.1 196H352.7V195.6H359.1V196ZM359.1 191.5H352.7V187.1H359.1V191.5ZM359.1 183.5H352.7V183.4L359.1 183.5ZM359.1 179H352.7V176H359.1V179ZM359.1 175H352.7V174.9H359.1V175ZM359.1 166.5H352.7V163.8H359.1V166.5ZM359.1 154H352.7V151.6H359.1V154ZM359.1 146H352.7V139.4H359.1V146ZM359.1 133.5H121V126H359.1V133.5ZM367.3 362.5H360V351.6H367.3V362.5ZM367.3 350H360V339.4H367.3V350ZM367.3 337.5H360V327.1H367.3V337.5ZM367.3 325H361.3V279H360V268.9H367.3V325ZM367.3 266.5H360V256.7H367.3V266.5ZM367.3 254H360V248.1H361.3V244.5H367.3V254ZM367.3 241.5H361.3V235.9H367.3V241.5ZM367.3 233.5H361.3V232.3H367.3V233.5ZM367.3 229H361.3V223.7H367.3V229ZM367.3 221H361.3V220.1H367.3V221ZM367.3 216.5H361.3V211.5H367.3V216.5ZM367.3 208H361.3V207.9H367.3V208ZM367.3 204H361.3V199.3H367.3V204ZM367.3 196H361.3V195.6H367.3V196ZM367.4 191.5H361.3V187.1H367.4V191.5ZM367.4 183.5H361.3V183.4L367.4 183.5ZM367.4 179H361.3V176H367.4V179ZM367.4 175H361.3V174.9H367.4V175ZM367.4 166.5H361.3V163.8H367.4V166.5ZM367.4 154H361.3V151.6H367.4V154ZM367.4 146H361.3V139.4H367.4V146ZM367.4 133.5H361.3V127.1H367.4V133.5ZM375.6 350H368.6V339.4H375.6V350ZM375.6 337.5H368.6V327.1H375.6V337.5ZM375.6 325H368.6V314.9H375.6V325ZM375.6 312.5H369.9V266.5H368.6V256.7H375.6V312.5ZM375.6 254H368.6V244.5H375.6V254ZM375.6 241.5H368.6V235.9H369.9V232.3H375.6V241.5ZM375.6 229H369.9V223.7H375.6V229ZM375.6 221H369.9V220.1H375.6V221ZM375.6 216.5H369.9V211.5H375.6V216.5ZM375.6 208H369.9V207.9H375.6V208ZM375.6 204H369.9V199.3H375.6V204ZM375.6 191.5H369.9V187.1H375.6V191.5ZM375.6 183.5H369.9V183.4L375.6 183.5ZM375.7 179H369.8V176H375.7V179ZM375.7 175H369.8V174.9H375.7V175ZM375.7 166.5H369.8V163.8H375.7V166.5ZM375.7 154H369.8V151.6H375.7V154ZM375.7 146H369.8V139.4H375.7V146ZM375.7 133.5H369.8V127.1H375.7V133.5ZM375.7 121H369.8V114.9H375.7V121ZM383.9 337.5H377.2V327.1H383.9V337.5ZM383.9 325H377.2V314.9H383.9V325ZM383.9 312.5H377.2V302.7H383.9V312.5ZM383.9 300H378.5V254H377.2V244.5H383.9V300ZM383.9 241.5H377.2V232.3H383.9V241.5ZM383.9 229H377.2V223.7H378.5V220.1H383.9V229ZM383.9 216.5H378.5V211.5H383.9V216.5ZM383.9 208H378.5V207.9H383.9V208ZM383.9 204H378.5V199.3H383.9V204ZM383.9 191.5H378.5V187.1H383.9V191.5ZM383.9 179H378.5V176H383.9V179ZM383.9 175H378.5V174.9H383.9V175ZM384 166.5H378.4V163.8H384V166.5ZM384 154H378.4V151.6H384V154ZM384 146H378.4V139.4H384V146ZM384 133.5H378.4V127.1H384V133.5ZM384 121H378.4V114.9H384V121ZM384 112.5H378.4V102.7H384V112.5ZM392.1 325H385.7V314.9H392.1V325ZM392.1 312.5H385.7V302.7H392.1V312.5ZM392.1 300H385.7V290.5H392.1V300ZM392.1 287.5H387V241.5H385.7V232.3H392.1V287.5ZM392.1 229H385.7V220.1H392.1V229ZM392.1 216.5H385.7V211.5H387V209H392.1V216.5ZM392.1 208H387V207.9H392.1V208ZM392.1 204H387V199.3H392.1V204ZM392.1 191.5H387V187.1H392.1V191.5ZM392.1 179H387V176H392.1V179ZM392.1 175H387V174.9H392.1V175ZM392.1 166.5H387V163.8H392.1V166.5ZM392.3 154H387V151.6H392.3V154ZM392.3 146H387V139.4H392.3V146ZM392.3 133.5H387V127.1H392.3V133.5ZM392.3 121H387V114.9H392.3V121ZM392.3 112.5H387V102.7H392.3V112.5ZM392.3 100H387V90.5H392.3V100ZM400.4 312.5H394.3V302.7H400.4V312.5ZM400.4 300H394.3V290.5H400.4V300ZM400.4 287.5H394.3V278.3H400.4V287.5ZM400.4 275H395.5V229H394.2V220.1H400.3L400.4 275ZM400.4 216.5H394.3V209H400.4V216.5ZM400.4 208H394.3V207.9H400.4V208ZM400.4 204H394.3V199.3H395.6V196.8H400.5L400.4 204ZM400.4 191.5H395.5V187.1H400.4V191.5ZM400.4 179H395.5V176H400.4V179ZM400.4 175H395.5V174.9H400.4V175ZM400.4 166.5H395.5V163.8H400.4V166.5ZM400.4 154H395.5V151.6H400.4V154ZM400.6 145.5H400.5V146H395.6V139.4H400.6V145.5ZM400.6 133.5H395.6V127.1H400.6V133.5ZM400.6 121H395.6V114.9H400.6V121ZM400.6 112.5H395.6V102.7H400.6V112.5ZM400.6 100H395.6V90.5H400.6V100ZM400.6 87.5H395.6V78.3H400.6V87.5ZM408.7 300H402.8V290.5H408.7V300ZM408.7 287.5H402.8V278.3H408.7V287.5ZM408.7 275H402.8V266.1H408.7V275ZM408.7 262.5H404.1V216.5H402.8V209H408.7V262.5ZM408.7 208H402.8V207.9H408.7V208ZM408.7 204H402.8V196.8H408.7V204ZM408.7 191.5H402.8V187.1H404.1V184.6H408.7V191.5ZM408.7 179H404.1V176H408.7V179ZM408.7 175H404.1V174.9H408.7V175ZM408.7 166.5H404.1V163.8H408.7V166.5ZM408.7 154H404.1V151.6H408.7V154ZM408.7 145.5H404.1V139.4H408.7V145.5ZM408.9 133H408.8V133.5H404.2V127.1H408.9V133ZM408.9 121H404.2V114.9H408.9V121ZM408.9 112.5H404.2V102.7H408.9V112.5ZM408.9 100H404.2V90.5H408.9V100ZM408.9 87.5H404.2V78.3H408.9V87.5ZM408.9 75H404.2V66.1H408.9V75ZM417 287.5H411.4V278.3H417V287.5ZM417 275H411.4V266.1H417V275ZM417 262.5H411.4V253.9H417V262.5ZM417 250H412.7V209H417V250ZM417 208H412.7V204H411.4V196.8H417V208ZM417 191.5H411.4V184.6H417V191.5ZM417 179H411.4V176H417V179ZM417 175H411.4V174.9H412.7V172.4H417V175ZM417 166.5H412.7V163.8H417V166.5ZM417 154H412.7V151.6H417V154ZM417 145.5H412.7V139.4H417V145.5ZM417 133H412.7V127.1H417V133ZM417.1 120.5H417V121H412.7V114.9H417.1V120.5ZM417.1 112.5H412.7V102.7H417.1V112.5ZM417.1 100H412.7V90.5H417.1V100ZM417.1 87.5H412.7V78.3H417.1V87.5ZM417.1 75H412.7V66.1H417.1V75ZM417.1 62.5H412.7V53.9H417.1V62.5ZM425.3 275H420V266.1H425.3V275ZM425.3 262.5H420V253.9H425.3V262.5ZM425.3 250H420V241.6H425.3V250ZM425.3 237.5H421.3V209H425.3V237.5ZM425.3 208H421.3V196.8H425.3V208ZM425.3 195.5H421.3V191.5H420V184.6H425.3V195.5ZM425.3 179H420V176H425.3V179ZM425.3 175H420V172.4H425.3V175ZM425.3 166.5H420V163.8H425.3V166.5ZM425.3 162.5H421.3V160.1H425.3V162.5ZM425.3 154H421.3V151.6H425.3V154ZM425.3 145.5H421.3V139.4H425.3V145.5ZM425.3 133H421.3V127.1H425.3V133ZM425.3 120.5H421.3V114.9H425.3V120.5ZM425.4 108H425.3V112.5H421.3V102.7H425.4V108ZM425.4 100H421.3V90.5H425.4V100ZM425.4 87.5H421.3V78.3H425.4V87.5ZM425.4 75H421.3V66.1H425.4V75ZM425.4 62.5H421.3V53.9H425.4V62.5ZM425.4 50H421.3V41.6H425.4V50ZM433.6 262.5H428.6V253.9H433.6V262.5ZM433.6 250H428.6V241.6H433.6V250ZM433.6 237.5H428.6V229.4H433.6V237.5ZM433.6 225H429.9V209H433.6V225ZM433.6 208H429.9V196.8H433.6V208ZM433.6 195.5H429.9V184.6H433.6V195.5ZM433.6 183H429.9V179H428.6V176H433.6V183ZM433.6 175H428.6V172.4H433.6V175ZM433.6 166.5H428.6V163.8H433.6V166.5ZM433.6 162.5H428.6V160.1H433.6V162.5ZM433.6 154H428.6V151.6H433.6V154ZM433.6 150H429.9V147.9H433.6V150ZM433.6 145.5H429.9V139.4H433.6V145.5ZM433.6 133H429.9V127.1H433.6V133ZM433.6 120.5H429.9V114.9H433.6V120.5ZM433.6 112.5H429.9V111.3H433.6V112.5ZM433.6 108H429.9V102.7H433.6V108ZM433.7 95.5H433.6V100H429.9V90.5H433.8V95.5H433.7ZM433.7 87.5H429.8V78.3H433.7V87.5ZM433.7 75H429.8V66.1H433.7V75ZM433.7 62.5H429.8V53.9H433.7V62.5ZM433.7 50H429.8V41.6H433.7V50ZM433.7 37.5H429.8V29.4H433.7V37.5ZM441.9 250H437.2V241.6H441.9V250ZM441.9 237.5H437.2V229.4H441.9V237.5ZM441.9 225H437.2V217.2H441.9V225ZM441.9 212.5H438.5V209H441.9V212.5ZM441.9 208H438.5V196.8H441.9V208ZM441.9 195.5H438.5V184.6H441.9V195.5ZM441.9 183H438.5V176H441.9V183ZM441.9 175H438.5V172.4H441.9V175ZM441.9 170.5H438.5V166.5H437.2V163.8H441.9V170.5ZM441.9 162.5H437.2V160.1H441.9V162.5ZM441.9 154H437.2V151.6H441.9V154ZM441.9 150H437.2V147.9H441.9V150ZM441.9 145.5H437.2V139.4H441.9V145.5ZM441.9 137.5H438.5V135.7H441.9V137.5ZM441.9 133H438.5V127.1H441.9V133ZM441.9 120.5H438.5V114.9H441.9V120.5ZM441.9 112.5H438.5V111.3H441.9V112.5ZM441.9 108H438.5V102.7H441.9V108ZM441.9 100H438.5V99.1H441.9V100ZM441.9 95.5H438.5V90.5H441.9V95.5ZM442 83H441.9V87.5H438.5V78.3H442.1V83H442ZM442 75H438.4V66.1H442V75ZM442 62.5H438.4V53.9H442V62.5ZM442 50H438.4V41.6H442V50ZM442 37.5H438.4V29.4H442V37.5ZM442 25H438.4V17.2H442V25ZM450.1 237.5H445.7V229.4H450.1V237.5ZM450.1 225H445.7V217.2H450.1V225ZM450.1 212.5H445.7V209H450.1V212.5ZM450.1 208H445.7V205H450.1V208ZM450.1 200H447V196.8H450.1V200ZM450.1 195.5H447V184.6H450.1V195.5ZM450.1 183H447V176H450.1V183ZM450.1 175H447V172.4H450.1V175ZM450.1 170.5H447V163.8H450.1V170.5ZM450.1 162.5H447V160.1H450.1V162.5ZM450.1 158H447V154H445.7V151.6H450.1V158ZM450.1 150H445.7V147.9H450.1V150ZM450.1 145.5H445.7V139.4H450.1V145.5ZM450.1 137.5H445.7V135.7H450.1V137.5ZM450.1 133H445.7V127.1H450.1V133ZM450.1 125H447V123.5H450.1V125ZM450.1 120.5H447V114.9H450.1V120.5ZM450.1 112.5H447V111.3H450.1V112.5ZM450.1 108H447V102.7H450.1V108ZM450.1 100H447V99.1H450.1V100ZM450.1 95.5H447V90.5H450.1V95.5ZM450.1 87.5H447V86.9H450.1V87.5ZM450.1 83H447V78.3H450.1V83ZM458.4 225H454.3V217.2H458.4V225ZM458.4 212.5H454.3V209H458.4V212.5ZM458.4 208H454.3V205H458.4V208ZM458.4 200H454.3V196.8H458.4V200ZM458.4 195.5H454.3V184.6H458.4V195.5ZM458.4 183H454.3V176H458.4V183ZM458.4 175H454.3V172.4H458.4V175ZM458.4 170.5H454.3V163.8H458.4V170.5ZM458.4 162.5H454.3V160.1H458.4V162.5ZM458.4 158H454.3V151.6H458.4V158ZM458.4 150H454.3V147.9H458.4V150ZM458.4 145.5H454.3V139.4H458.4V145.5ZM458.4 137.5H454.3V135.7H458.4V137.5ZM458.4 133H454.3V127.1H458.4V133ZM458.4 125H454.3V123.5H458.4V125ZM458.4 120.5H454.3V114.9H458.4V120.5ZM458.4 112.5H454.3V111.3H458.4V112.5ZM458.4 108H454.3V102.7H458.4V108ZM458.4 100H454.3V99.1H458.4V100ZM458.4 95.5H454.3V90.5H458.4V95.5ZM458.4 87.5H454.3V86.9H458.4V87.5ZM458.4 83H454.3V78.3H458.4V83ZM458.4 75H454.3V74.6H458.4V75ZM458.4 70.5H450.1V75H447V66.1H458.4V70.5ZM466.7 212.5H462.8V209H466.7V212.5ZM466.7 208H462.8V205H466.7V208ZM466.7 200H462.8V196.8H466.7V200ZM466.7 195.5H462.8V184.6H466.7V195.5ZM466.7 183H462.8V176H466.7V183ZM466.7 175H462.8V172.4H466.7V175ZM466.7 170.5H462.8V163.8H466.7V170.5ZM466.7 162.5H462.8V160.1H466.7V162.5ZM466.7 158H462.8V151.6H466.7V158ZM466.7 150H462.8V147.9H466.7V150ZM466.7 145.5H462.8V139.4H466.7V145.5ZM466.7 137.5H462.8V135.7H466.7V137.5ZM466.7 133H462.8V127.1H466.7V133ZM466.7 125H462.8V123.5H466.7V125ZM466.7 120.5H462.8V114.9H466.7V120.5ZM466.7 112.5H462.8V111.3H466.7V112.5ZM466.7 108H462.8V102.7H466.7V108ZM466.7 100H462.8V99.1H466.7V100ZM466.7 95.5H462.8V90.5H466.7V95.5ZM466.7 87.5H462.8V86.9H466.7V87.5ZM466.7 83H462.8V78.3H466.7V83ZM466.7 75H462.8V74.6H466.7V75ZM466.7 70.5H462.8V66.1H466.7V70.5ZM466.7 62.5H462.8V62.4L466.7 62.5ZM466.7 58H458.4V62.5H447V53.9H466.7V58ZM466.7 45.5V50H447V41.6H475V45.5H466.7ZM471.4 195.5V184.6H475V195.5H471.4ZM475 196.8V200H471.4V196.8H475ZM471.4 183V176H475V183H471.4ZM471.4 175V172.4H475V175H471.4ZM471.4 170.5V163.8H475V170.5H471.4ZM471.4 162.5V160.1H475V162.5H471.4ZM471.4 158V151.6H475V158H471.4ZM471.4 150V147.9H475V150H471.4ZM471.4 145.5V139.4H475V145.5H471.4ZM471.4 137.5V135.7H475V137.5H471.4ZM471.4 133V127.1H475V133H471.4ZM471.4 125V123.5H475V125H471.4ZM471.4 120.5V114.9H475V120.5H471.4ZM471.4 112.5V111.3H475V112.5H471.4ZM471.4 108V102.7H475V108H471.4ZM471.4 100V99.1H475V100H471.4ZM471.4 95.5V90.5H475V95.5H471.4ZM471.4 87.5V86.9H475V87.5H471.4ZM471.4 83V78.3H475V83H471.4ZM471.4 75V74.6H475V75H471.4ZM471.4 70.5V66.1H475V70.5H471.4ZM471.4 62.5L475 62.4V62.5H471.4ZM471.4 58V53.9H475V58H471.4ZM612 237H585V208H471.4V205H480V196.8H592.3V225.8H612V237ZM612 224.5H593.6V195.5H480V184.6H600.6V213.6H612V224.5ZM620.3 224.5H613V213.6H620.3V224.5ZM620.3 212H613V209H620.3V212ZM620.3 208H612V212H602.1V183H480V176H608.9V201.4H620.3V208ZM480 145.5V139.4H507L508 137.5H480V135.7H509L510.5 133H480V127.1H513.9L515.1 125H480V123.5H515.9L517.6 120.5H480V114.9H520.8L522.2 112.5H480V111.3H522.8L524.6 108H480V102.7H527.7L529.2 100H480V99.1H529.7L531.7 95.5H480V90.5H534.5L536.2 87.5H480V86.9H536.6L538.8 83H480V78.3H541.4L543.3 75H480V74.6H543.5L545.8 70.5H480V66.1H548.3L550.3 62.5H480V62.4H550.4L552.9 58H480V53.9H691.7V62.5H687.9V58H619.9L617.4 62.4H683.4V62.5H617.3L615.3 66.1H683.4V75H679.3V70.5H612.9L610.6 74.6H675.3V75H610.4L608.5 78.3H675.2V87.5H670.8V83H605.9L603.7 86.9H667V87.5H603.4L601.7 90.5H667V100H662.3V95.5H598.9L596.9 99.1H658.7V100H596.3L594.8 102.7H658.7V112.5H653.7V108H591.8L590 111.3H650.5V112.5H589.3L587.9 114.9H650.4V125H645V120.5H584.6L582.9 123.5H642V125H582.1L580.9 127.1H642V137.5H636.4V133H577.6L576.1 135.7H633.8V137.5H575L574 139.4H633.7V150H627.9V145.5H570.5L569.1 147.9H625.4V150H480V147.9H502.2L503.6 145.5H480ZM719.7 45.5V50H705V41.6H728V45.5H719.7ZM728 53.9V58H724.4V53.9H728ZM719.7 53.9V58H711.4V62H705V53.9H719.7ZM719.7 67V70.5H715.9V67H719.7ZM711.4 67V70.5H703.1V74.5H696.4V66.1H700V67H711.4ZM707.3 83V79.2H711.4V83H707.3ZM711.4 86.9V87H707.3V86.9H711.4ZM698.7 95.5V91.4H703.1V95.5H698.7ZM703.1 99.1V99.5H698.7V99.1H703.1ZM698.7 87V86.9H703.1V87H698.7ZM694.9 83V87H687.9V78.3H691.7V79.2H703.1V83H694.9ZM690.1 108V103.6H694.8V108H690.1ZM694.9 111.3V112H690.2V111.3H694.9ZM690.1 99.5V99.1H694.8V99.5H690.1ZM686.6 95.5V99.5H679.3V90.5H683.4V91.4H694.8V95.5H686.6ZM681.6 120.5V115.9H686.6V120.5H681.6ZM686.6 123.5V124.5H681.6V123.5H686.6ZM681.6 112V111.3H686.6V112H681.6ZM678.3 108V112H670.7V102.7H675.1V103.6H686.5V108H678.3ZM673 133V128.1H678.3V133H673ZM678.3 135.7V137H673V135.7H678.3ZM673 124.5V123.5H678.3V124.5H673ZM670 120.5V124.5H662.1V114.9H666.8V115.8H678.2V120.4H670V120.5ZM664.4 145.5V140.3H670V145.5H664.4ZM670 147.9V149.5H664.4V147.9H670ZM664.4 137V135.7H670V137H664.4ZM661.7 133V137H653.6V127.1H658.6V128H670V132.9H661.7V133ZM655.9 158V152.5H661.7V158H655.9ZM661.7 160.1V162H655.9V160.1H661.7ZM655.9 149.5V147.9H661.7V149.5H655.9ZM653.4 145.5V149.5H645V139.4H650.3V140.3H661.7V145.5H653.4ZM949.1 601V595.1H955.8V601H949.1ZM955.9 603.7V605.5H949.2V603.7H955.9ZM949.1 593V591.5H955.8V593H949.1ZM949.1 588.5V582.9H955.8V588.5H949.1ZM949.1 580.5V579.3H955.8V580.5H949.1ZM949.1 576V570.7H955.8V576H949.1ZM949.1 568V567.1H955.8V568H949.1ZM949.1 563.5V558.5H955.8V563.5H949.1ZM949.1 555.5V554.9H955.8V555.5H949.1ZM949.1 551V546.3H955.8V551H949.1ZM949.1 543V542.6H955.8V543H949.1ZM949.1 538.5V534.1H955.8V538.5H949.1ZM949.1 530.5L955.8 530.4V530.5H949.1ZM949.1 526V521.9H955.8V526H949.1ZM949.1 513.5V509.6H955.8V513.5H949.1ZM949.1 501V497.4H955.8V501H949.1ZM949.1 493V485.2H955.8V493H949.1ZM949.1 480.5V473H955.8V480.5H949.1ZM949.1 468V183H722V176H955.9V468H949.1ZM940.6 613.5V607.4H947.6V613.5H940.6ZM947.6 615.9V618H940.6V615.9H947.6ZM940.6 605.5V603.7H947.6V605.5H940.6ZM940.6 601V595.1H947.6V601H940.6ZM940.6 593V591.5H947.6V593H940.6ZM940.6 588.5V582.9H947.6V588.5H940.6ZM940.6 580.5V579.3H947.6V580.5H940.6ZM940.6 576V570.7H947.6V576H940.6ZM940.6 568V567.1H947.6V568H940.6ZM940.6 563.5V558.5H947.6V563.5H940.6ZM940.6 555.5V554.9H947.6V555.5H940.6ZM940.6 551V546.3H947.6V551H940.6ZM940.6 543V542.6H947.6V543H940.6ZM940.6 538.5V534.1H947.6V538.5H940.6ZM940.6 530.5L947.6 530.4V530.5H940.6ZM940.6 526V521.9H947.6V526H940.6ZM940.6 513.5V509.6H947.6V513.5H940.6ZM940.6 501V497.4H947.6V501H940.6ZM940.6 493V485.2H947.6V493H940.6ZM940.6 480.5V473H947.6V480.5H940.6ZM940.6 468V195.5H722V184.6H947.6V468H940.6ZM932 626V619.6H939.3V626H932ZM939.3 628.1V630.5H932V628.1H939.3ZM932 618V615.9H939.3V618H932ZM932 613.5V607.4H939.3V613.5H932ZM932 605.5V603.7H939.3V605.5H932ZM932 601V595.1H939.3V601H932ZM932 593V591.5H939.3V593H932ZM932 588.5V582.9H939.3V588.5H932ZM932 580.5V579.3H939.3V580.5H932ZM932 576V570.7H939.3V576H932ZM932 568V567.1H939.3V568H932ZM932 563.5V558.5H939.3V563.5H932ZM932 555.5V554.9H939.3V555.5H932ZM932 551V546.3H939.3V551H932ZM932 543V542.6H939.3V543H932ZM932 538.5V534.1H939.3V538.5H932ZM932 530.5L939.3 530.4V530.5H932ZM932 526V521.9H939.3V526H932ZM932 513.5V509.6H939.3V513.5H932ZM932 501V497.4H939.3V501H932ZM932 493V485.2H939.3V493H932ZM932 480.5V473H939.3V480.5H932ZM932 468V208H722V196.8H939.3V468H932ZM592.3 628.1V630.5H585V628.1H592.3ZM585 626V624H592.3V626H585ZM593.6 631.8V628.1H612V638.5H585V631.8H593.6ZM593.6 626V624H612V626H593.6ZM593.6 623V619.6H602.2V616H620.4V626H613V623H593.6ZM600.6 615.9V618H593.6V615.9H600.6ZM593.6 613.5V611.8H600.6V613.5H593.6ZM608.9 603.7V605.5H602.2V603.7H608.9ZM602.1 601V599.6H608.8V601H602.1ZM610.7 607.4V603.7H628.6V613.5H621.6V610.5H602.2V607.4H610.7ZM617.1 591.5V593H610.7V591.5H617.1ZM610.7 588.5V587.4H617.1V588.5H610.7ZM619.3 595.1V591.5H636.9V601H630.2V598H610.8V595.1H619.3ZM610.6 549V555.5H605.6V549H610.6ZM605.6 548V546.3H610.6V548H605.6ZM610.6 558.5V567.1H625.5V568H605.6V558.5H610.6ZM679.3 498V497.4H687.9V489.6H703.2V501H698.8V498H679.3ZM670.7 510.5V509.6H679.3V506H694.9V513.5H690.2V510.5H670.7ZM662.1 523V521.9H670.7V518.2H686.6V526H681.6V523H662.1ZM653.6 535.5V534.1H662.2V530.5H678.4V538.6H673V535.6H653.6V535.5ZM645 548V546.3H653.6V542.6H670V551H664.4V548H645ZM636.4 560.5V558.5H645V554.9H661.7V563.5H655.9V560.5H636.4ZM627.9 573V570.7H636.5V567.1H653.5V576H647.4V573H627.9ZM619.3 585.5V582.9H627.9V579.3H645.2V588.5H638.8V585.5H619.3ZM636.9 587.4V588.5H619.3V587.4H636.9ZM625.4 579.3V580.5H619.3V579.3H625.4ZM619.3 576V575.1H625.4V576H619.3ZM627.9 563.5V562.9H633.7V563.5H627.9ZM633.7 567.1V568H627.9V567.1H633.7ZM625.4 560.5V563.5H614.1V558.5H633.7V560.5H625.4ZM627.9 576V575.1H645.2V576H627.9ZM636.4 551V550.7H642V551H636.4ZM642 554.9V555.5H636.4V554.9H642ZM633.7 548V551H622.7V546.3H642V548H633.7ZM636.4 563.5V562.9H653.4V563.5H636.4ZM642 535.5V538.5H631.3V534.1H650.3V535.5H642ZM650.3 542.6V543H645V542.6H650.3ZM645 551V550.7H661.7V551H645ZM653.6 530.5L658.6 530.4V530.5H653.6ZM675.1 485.5V493H657V485.2H683.4V485.5H675.1ZM683.4 489.6V493H679.3V489.6H683.4ZM675.1 497.4V498H666.8V501H657V497.4H675.1ZM683.4 480.5H657V475.7H664.4V473H683.4V480.5ZM661.7 388.5H655.9V379.9H661.7V388.5ZM658.6 392.1V439.1H661.7V448H655.9V392.1H658.6ZM661.7 451.3V460.5H655.9V451.3H661.7ZM661.7 463.5V468H655.9V463.5H661.7ZM666.9 509.6V510.5H658.6V513.5H648.5V509.6H666.9ZM652 487.9V493H648.4V487.9H652ZM648.4 485.5V485.2H652V485.5H648.4ZM652 497.4V505.5H648.4V497.4H652ZM653.4 401H647.3V392.1H653.4V401ZM650.3 404.3V451.3H653.4V460.5H647.3V404.3H650.3ZM653.4 463.5V468H652V473H647.3V463.5H653.4ZM652 475.7V480.5H647.3V475.7H652ZM658.6 521.9V523H650.3V526H639.9V521.9H658.6ZM643.7 500.1V505.5H639.9V500.1H643.7ZM639.9 498V497.4H643.7V498H639.9ZM643.7 509.6V518H639.9V509.6H643.7ZM645.1 460.5H645V413.5H638.7V404.3H645.1V460.5ZM642 416.5V463.5H645.1V473H638.7V416.5H642ZM645.1 475.7V480.5H643.7V485.5H638.7V475.7H645.1ZM643.7 487.9V493H638.7V487.9H643.7ZM650.3 530.4L631.3 530.5V521.9H635.4V530.5H650.3V530.4ZM635.4 512.4V518H631.3V512.4H635.4ZM631.3 510.5V509.6H635.4V510.5H631.3ZM636.9 473H636.5V426H630.2V416.5H636.9V473ZM633.7 428.7V475.7H636.9V485.5H630.2V428.7H633.7ZM636.9 487.9V493H635.5V498H630.2V487.9H636.9ZM635.4 500.1V505.5H630.1V500.1H635.4ZM642 542.6V543H622.7V534.1H627.1V542.7H642V542.6ZM627.1 524.6V530.5H622.7V524.6H627.1ZM622.7 523V521.9H627.1V523H622.7ZM628.6 485.5H627.9V438.5H621.6V428.7H628.6V485.5ZM625.4 440.9V487.9H628.5V498H621.5V440.9H625.4ZM628.6 500.1V505.5H627.2V510.5H621.6V500.1H628.6ZM627.1 512.4V518H621.5V512.4H627.1ZM633.7 554.9V555.5H614.1V546.3H618.8V554.9H633.7ZM618.9 536.8V543H614.2V536.8H618.9ZM614.1 535.5V534.1H618.8V535.5H614.1ZM620.3 498H619.3V451H613V440.9H620.3V498ZM617.1 453.1V500.1H620.3V510.5H613V453.1H617.1ZM620.3 512.4V518H618.9V523H613V512.4H620.3ZM618.9 524.6V530.5H613V524.6H618.9ZM625.4 570.7V573H617.1V576H605.5V570.7H625.4ZM628.6 599.6V601H610.7V599.6H628.6ZM620.3 611.8V613.5H602.1V611.8H620.3ZM613 640.4H931V643H613V640.4ZM613 638.5V628.1H620.3V631.8H931V638.5H613ZM621.6 630.5V628.1H931V630.5H621.6ZM621.6 626V615.9H628.6V619.5H931V625.9H621.6V626ZM630.1 618V615.9H931V618H630.1ZM630.1 613.5V603.7H636.8V607.4H931V613.5H630.1ZM638.7 605.5V603.7H931V605.5H638.7ZM638.7 601V591.5H645.1V595.1H931V601H638.7ZM647.3 593V591.5H931V593H647.3ZM647.3 588.5V579.3H653.4V582.9H931V588.5H647.3ZM655.9 580.5V579.3H931V580.5H655.9ZM655.9 576V567.1H661.7V570.7H931V576H655.9ZM664.4 568V567.1H931V568H664.4ZM664.4 563.5V554.9H670V558.5H931V563.5H664.4ZM673 555.5V554.9H931V555.5H673ZM673 551V542.6H678.3V546.3H931V551H673ZM681.6 543V542.6H931V543H681.6ZM681.6 538.5V530.4H686.6V534H931V538.4H681.6V538.5ZM690.1 530.5L931 530.4V530.5H690.1ZM690.1 526V518.2H694.8V521.9H931V526H690.1ZM698.7 513.5V506H703.1V509.6H931V513.5H698.7ZM707.3 501V485.5H687.9V485.2H696.5V477.4H711.5V497.4H931V501H707.3ZM687.9 480.5V477.4H691.7V480.5H687.9ZM696.4 468V465.2H700V468H696.4ZM715.9 493V473H705V465.2H719.7V485.2H931V493H715.9ZM724.4 480.5V460.5H705V453H728V473H931V480.5H724.4ZM733 468V448H700V460.5H691.7V468H664.4V463.5H673V451.3H681.6V439.1H690.2V426.9H698.8V414.7H707.4V402.5H716V390.3H724.6V378H733.2V231H722.2V209H931.2V468H733ZM666.9 379.9V426.9H670V435.5H664.4V379.9H666.9ZM664.4 376V367.6H670V376H664.4ZM670 439.1V448H664.4V439.1H670ZM670 451.3V460.5H664.4V451.3H670ZM675.1 367.6V414.6H678.3V423H673V367.6H675.1ZM673 363.5V355.4H678.3V363.5H673ZM678.3 426.9V435.5H673V426.9H678.3ZM678.3 439.1V448H673V439.1H678.3ZM683.4 355.4V402.4H686.5V410.5H681.5V355.4H683.4ZM681.6 351V343.2H686.6V351H681.6ZM686.6 414.6V423H681.6V414.6H686.6ZM686.6 426.9V435.5H681.6V426.9H686.6ZM633.7 163.8V164.7H645.1V170.5H636.8V174.5H627.8V163.8H633.7ZM627.9 162.5V151.6H633.7V162.5H627.9ZM642 151.6V152.5H653.4V158H645.1V162H636.4V151.6H642ZM636.4 150V139.4H642V150H636.4ZM700 196.8V198H696.4V196.8H700ZM696.4 195.5V190.2H700V195.5H696.4ZM700 202.4V208H696.4V202.4H700ZM700 209V268.5H696.4V209H700ZM700 272.6V309H698.7V281H696.4V272.6H700ZM698.7 402.4H703.1V410.5H698.7V402.4ZM698.7 398V390.2H703.1V398H698.7ZM698.7 385.5V331H700V378H703.1V385.5H698.7ZM698.7 326V314H703.1V326H698.7ZM700 183H647.3V176.9H655.9V176H700V183ZM653.4 164.7V170.5H647.3V164.7H653.4ZM647.3 162V160.1H653.4V162H647.3ZM653.4 172.4V174.5H647.3V172.4H653.4ZM638.7 183V176.9H645.1V183H638.7ZM645.1 184.6V187H638.7V184.6H645.1ZM638.7 174.5V172.4H645.1V174.5H638.7ZM638.7 189.1H647.3V184.5H700V185.4H691.7V195.4H638.7V189.1ZM694.9 331V338.5H690.2V331H694.9ZM690.1 410.5V402.4H694.8V410.5H690.1ZM694.9 414.6V423H690.2V414.6H694.9ZM690.1 398V343.2H691.7V390.2H694.9V398H690.1ZM690.1 321.5V314H691.7V321.5H690.1ZM691.7 208H687.9V202.4H691.7V208ZM691.7 209V210.5H687.9V209H691.7ZM691.7 214.6V281H687.9V214.6H691.7ZM691.7 284.9V309H690.1V293.5H687.8V284.9H691.7ZM713.4 243.5V209H717V236H728V373H724.4V243.5H713.4ZM713.4 208V196.8H717V208H713.4ZM717 183H705V178H717V183ZM717 184.6V195.5H713.4V185.5H705V184.6H717ZM708.7 190.2V195.5H705V190.2H708.7ZM708.7 196.8V208H705V196.8H708.7ZM708.7 209V248.2H719.7V373H715.9V256H705V209H708.7ZM719.7 378V385.5H715.9V378H719.7ZM711.4 260.4V373H707.3V268.5H705V260.4H711.4ZM707.3 385.5V378H711.4V385.5H707.3ZM711.4 390.2V398H707.3V390.2H711.4ZM722 175V173H700V175H655.9V172.4H955.9V175H722ZM645 137.5V127.1H650.3V137.5H645ZM653.6 125V114.9H658.6V125H653.6ZM662.1 112.5V102.7H666.8V112.5H662.1ZM670.7 100V90.5H675.1V100H670.7ZM679.3 87.5V78.3H683.4V87.5H679.3ZM687.9 75V66.1H691.7V75H687.9ZM696.4 62.5V53.9H700V62.5H696.4ZM700 50H696.4V45.5H480V41.6H700V50ZM625.4 151.6V162.5H619.3V158H480V151.6H625.4ZM625.4 163.8V175H619.3V163.8H625.4ZM617.1 160.1V162.5H480V160.1H617.1ZM617.1 163.8V175H610.7V170.5H480V163.8H617.1ZM608.9 172.4V175H480V172.4H608.9ZM628.6 212H621.6V209H628.6V212ZM628.6 208H621.6V201.4H628.6V208ZM628.6 199.5H621.6V196.8H628.6V199.5ZM628.6 195.5H620.3V199.5H610.7V176H617.1V189.1H628.5L628.6 195.5ZM628.6 183V187H619.3V176H625.4V176.9H636.8V183H628.6ZM630.1 195.5V189.1H636.8V195.5H630.1ZM636.9 196.8V199.5H630.2V196.8H636.9ZM630.1 187V184.6H636.8V187H630.1ZM630.1 208V201.4H638.7V196.8H691.7V198H683.4V208H630.1ZM686.6 338.4L681.6 338.5V338.4H686.6ZM683.4 331V334H681.5V331H683.4ZM681.6 321.5V314H683.5V321.5H681.6ZM679.3 214.6H683.4V223H679.3V214.6ZM679.3 226.9H683.4V293.5H679.3V226.9ZM679.3 297.1H683.4V309H681.5V306H679.2V297.1H679.3ZM678.3 350.6V351H673V350.6H678.3ZM675.1 338.4L673 338.5V338.4H675.1ZM673 334V331H675.1V334H673ZM675.1 343.2V346.5H673V343.2H675.1ZM670.7 226.9H675.1V235.5H670.7V226.9ZM670.7 239.1H675.1V306H670.7V239.1ZM670.7 314H675.1V321.5H673V318.5H670.7V314ZM670 362.9V363.5H664.4V362.9H670ZM666.9 338.4L664.5 338.5V338.4H666.9ZM664.4 334V331H666.8V334H664.4ZM666.9 343.2V346.5H664.5V343.2H666.9ZM666.9 350.6V351H664.5V350.6H666.9ZM666.9 355.4V359H664.5V355.4H666.9ZM662.1 239.1H666.8V248H662.1V239.1ZM662.1 251.3H666.8V309H662.1V251.3ZM662.1 314H666.8V318.5H662.1V314ZM661.7 375.1V376H655.9V375.1H661.7ZM658.6 355.4V359H655.9V355.4H658.6ZM655.9 351V350.6H658.6V351H655.9ZM658.6 362.9V363.5H655.9V362.9H658.6ZM658.6 367.6V371.5H655.9V367.6H658.6ZM653.6 251.3H658.6V260.5H653.6V251.3ZM653.6 263.5H658.6V309H653.6V263.5ZM653.6 314H658.6V321.5H653.6V314ZM653.6 333.7H658.6V334H653.6V333.7ZM653.6 338.4H658.6V338.5L653.6 338.4ZM653.6 343.2H658.6V346.5H655.9V343.5H653.6V343.2ZM653.4 387.3V388.5H647.3V387.3H653.4ZM650.3 367.6V371.5H647.3V367.6H650.3ZM647.3 363.5V362.9H650.3V363.5H647.3ZM650.3 375.1V376H647.3V375.1H650.3ZM650.3 379.9V384H647.3V379.9H650.3ZM645 263.5H650.3V273H645V263.5ZM645 275.7H650.3V309H645V275.7ZM645 314H650.3V321.5H645V314ZM645 331H650.3V334H645V331ZM645 338.4H650.3V338.5L645 338.4ZM645 343.2H650.3V343.5H645V343.2ZM645 345.9H650.3V346.5H645V345.9ZM645 350.6H650.3V351H645V350.6ZM645 355.4H650.3V359H647.3V356H645V355.4ZM645 358.1H645.1V359H645V358.1ZM645 362.9H645.1V363.5H645V362.9ZM645 367.6H645.1V371.5H645V367.6ZM645 375.1H645.1V376H645V375.1ZM645 379.9H645.1V384H645V379.9ZM645 387.3H645.1V388.5H645V387.3ZM645 399.5V392.1H645.1V401H638.7V399.5H645ZM642 379.9V384H638.7V379.9H642ZM638.7 376V375.1H642V376H638.7ZM642 387.3V388.5H638.7V387.3H642ZM642 392.1V396.5H638.7V392.1H642ZM642 321.5H639V314H642V321.5ZM636.4 275.7H642V285.5H636.4V275.7ZM636.4 287.9H642V309H636.4V287.9ZM636.4 331H642V334H636.4V331ZM636.4 338.4H642V338.5L636.4 338.4ZM636.4 343.2H642V346.5H636.4V343.2ZM636.4 350.6H642V351H636.4V350.6ZM636.4 355.4H642V356H636.4V355.4ZM636.4 358.1H642V359H636.4V358.1ZM636.4 362.9H642V363.5H636.4V362.9ZM636.4 367.6H642V371.5H638.7V368.5H636.4V367.6ZM636.4 370.4H636.8V371.5H636.4V370.4ZM636.4 375.1H636.8V376H636.4V375.1ZM636.4 379.9H636.8V384H636.4V379.9ZM636.4 387.3H636.8V388.5H636.4V387.3ZM636.4 392.1H636.8V396.5H636.4V392.1ZM636.4 399.5H636.8V401H636.4V399.5ZM636.4 411.7V404.3H636.8V413.5H630.1V411.7H636.4ZM633.7 392.1V396.5H630.1V392.1H633.7ZM630.1 388.5V387.3H633.7V388.5H630.1ZM633.7 399.5V401H630.1V399.5H633.7ZM633.7 404.3V409H630.1V404.3H633.7ZM633.7 338.4L630.4 338.5V338.4H633.7ZM630.4 334V326.2H633.7V334H630.4ZM627.9 287.9H633.7V298H627.9V287.9ZM627.9 300.1H633.7V321.5H627.9V300.1ZM627.9 343.2H633.7V346.5H627.9V343.2ZM627.9 350.6H633.7V351H627.9V350.6ZM627.9 355.4H633.7V359H627.9V355.4ZM627.9 362.9H633.7V363.5H627.9V362.9ZM627.9 367.6H633.7V368.5H627.9V367.6ZM627.9 370.4H633.7V371.5H627.9V370.4ZM627.9 375.1H633.7V376H627.9V375.1ZM627.9 379.9H633.7V384H630.1V381H627.8L627.9 379.9ZM627.9 382.6H628.6V384H627.9V382.6ZM627.9 387.3H628.6V388.5H627.9V387.3ZM627.9 392.1H628.6V396.5H627.9V392.1ZM627.9 399.5H628.6V401H627.9V399.5ZM627.9 404.3H628.6V409H627.9V404.3ZM627.9 411.7H628.6V413.5H627.9V411.7ZM627.9 423.9V416.5H628.6V426H621.6V423.9H627.9ZM625.4 404.3V409H621.5V404.3H625.4ZM621.6 401V399.5H625.5V401H621.6ZM625.4 411.7V413.5H621.5V411.7H625.4ZM625.4 416.5V421.5H621.5V416.5H625.4ZM625.4 350.6V351H621.8V350.6H625.4ZM621.9 346.5V338.4H625.5V346.5H621.9ZM619.3 300.1H625.4V310.5H619.3V300.1ZM619.3 312.4H625.4V334H619.3V312.4ZM619.3 355.4H625.4V359H619.3V355.4ZM619.3 362.9H625.4V363.5H619.3V362.9ZM619.3 367.6H625.4V371.5H619.3V367.6ZM619.3 375.1H625.4V376H619.3V375.1ZM619.3 379.9H625.4V381H619.3V379.9ZM619.3 382.6H625.4V384H619.3V382.6ZM619.3 387.3H625.4V388.5H619.3V387.3ZM619.3 392.1H625.4V396.5H621.5V393.5H619.2V392.1H619.3ZM619.3 394.8H620.3V396.5H619.3V394.8ZM619.3 399.5H620.3V401H619.3V399.5ZM619.3 404.3H620.3V409H619.3V404.3ZM619.3 411.7H620.3V413.5H619.3V411.7ZM619.3 416.5H620.3V421.5H619.3V416.5ZM619.3 423.9H620.3V426H619.3V423.9ZM619.3 436.1V428.7H620.3V438.5H613V436.1H619.3ZM617.1 416.5V421.5H613V416.5H617.1ZM613 413.5V411.7H617.1V413.5H613ZM617.1 423.9V426H613V423.9H617.1ZM617.1 428.7V434H613V428.7H617.1ZM617.1 362.9V363.5H613.3V362.9H617.1ZM613.3 359V350.6H617.1V359H613.3ZM610.7 312.4H617.1V323H610.7V312.4ZM610.7 324.6H617.1V346.5H610.7V324.6ZM610.7 367.6H617.1V371.5H610.7V367.6ZM610.7 375.1H617.1V376H610.7V375.1ZM610.7 379.9H617.1V384H610.7V379.9ZM610.7 387.3H617.1V388.5H610.7V387.3ZM610.7 392.1H617.1V393.5H610.7V392.1ZM610.7 394.8H617.1V396.5H610.7V394.8ZM610.7 399.5H617.1V401H610.7V399.5ZM610.7 404.3H617.1V409H613V406H610.7V404.3ZM610.7 407H612V409H610.7V407ZM610.7 411.7H612V413.5H610.7V411.7ZM610.7 416.5H612V421.5H610.7V416.5ZM610.7 423.9H612V426H610.7V423.9ZM610.7 428.7H612V434H610.7V428.7ZM610.7 436.1H612V438.5H610.7V436.1ZM602.1 324.6H608.8V335.5H602.1V324.6ZM602.1 336.8H608.8V359H602.1V336.8ZM604.7 371.5V362.9H608.9V371.5H604.7ZM608.9 375.1V376H604.7V375.1H608.9ZM602.1 379.9H608.8V384H602.1V379.9ZM602.1 387.3H608.8V388.5H602.1V387.3ZM602.1 392.1H608.8V396.5H602.1V392.1ZM602.1 399.5H608.8V401H602.1V399.5ZM602.1 404.3H608.8V406H602.1V404.3ZM602.1 407H608.8V409H602.1V407ZM602.1 411.7H608.8V413.5H602.1V411.7ZM602.1 416.5H608.8V421.5H602.1V416.5ZM602.1 423.9H608.8V426H602.1V423.9ZM602.1 428.7H608.8V434H602.1V428.7ZM602.1 436.1H608.8V438.5H602.1V436.1ZM602.1 440.9H608.8V446.5H602.1V440.9ZM602.1 448.4H610.7V441H612V451H602.1V448.4ZM593.6 336.8H600.6V348H593.6V336.8ZM593.6 349H600.6V371.5H593.6V349ZM596.1 384V375.1H600.5V384H596.1ZM600.6 387.3V388.5H596.2V387.3H600.6ZM593.6 392.1H600.6V396.5H593.6V392.1ZM593.6 399.5H600.6V401H593.6V399.5ZM593.6 404.3H600.6V409H593.6V404.3ZM593.6 411.7H600.6V413.5H593.6V411.7ZM593.6 416.5H600.6V421.5H593.6V416.5ZM593.6 423.9H600.6V426H593.6V423.9ZM593.6 428.7H600.6V434H593.6V428.7ZM593.6 436.1H600.6V438.5H593.6V436.1ZM593.6 440.9H600.6V446.5H593.6V440.9ZM593.6 448.4H600.6V451H593.6V448.4ZM593.6 453.1H600.6V459H593.6V453.1ZM593.6 460.6H602.2V453.2H612.1V510.6H610.8V463.6H593.7V460.6H593.6ZM585 349H592.3V384H585V349ZM587.6 396.5V387.3H592.3V396.5H587.6ZM592.3 399.5V401H587.6V399.5H592.3ZM585 404.3H592.3V409H585V404.3ZM585 411.7H592.3V413.5H585V411.7ZM585 416.5H592.3V421.5H585V416.5ZM585 423.9H592.3V426H585V423.9ZM585 428.7H592.3V434H585V428.7ZM585 436.1H592.3V438.5H585V436.1ZM585 440.9H592.3V446.5H585V440.9ZM585 448.4H592.3V451H585V448.4ZM585 453.1H592.3V459H585V453.1ZM585 460.6H592.3V463.5H585V460.6ZM585 465.4H592.3V471.5H585V465.4ZM585 472.8H593.6V465.4H608.9V512.4H612V523H602.1V476H585V472.8ZM585 485V477.6H600.6V524.6H612V530.5H610.6V535.5H593.6V488.5H575V485H585ZM584 477.6V484H575V477.6H584ZM575 476V472.8H584V476H575ZM579 399.5H584V409H579V399.5ZM579 411.7H584V413.5H579V411.7ZM570.4 411.7H576V416.5H584V421.5H570.4V411.7ZM570.4 423.9H584V426H570.4V423.9ZM561.9 423.9H567.7V428.7H584V434H561.9V423.9ZM561.9 436.1H584V438.5H561.9V436.1ZM553.3 436.1H559.4V440.9H584V446.5H553.3V436.1ZM553.3 448.4H584V451H553.3V448.4ZM544.7 448.4H551.1V453.2H584V459.1H544.7V448.4ZM544.7 460.6H584V463.5H544.7V460.6ZM447 315H475V473H526.3V480.5H471.4V322.5H447V315ZM447 327.2H466.7V485.2H518V493H462.9V335H447V327.2ZM447 339.4H458.4V497.4H518V501H454.3V347.5H447V339.4ZM445.7 473H447V351.6H450.1V501H445.7V473ZM438.4 327.2H442V335H438.4V327.2ZM438.4 339.4H442V347.5H438.4V339.4ZM438.4 351.6H442V360H438.4V351.6ZM438.4 363.9H441.8V468H438.4V363.9ZM437.1 485.2H438.4V473H441.8V501H437.1V485.2ZM437.1 506H441.8V513.5H437.1V506ZM429.9 339.4H433.8V347.5H429.9V339.4ZM429.9 351.6H433.8V360H429.9V351.6ZM429.9 363.9H433.8V372.5H429.9V363.9ZM429.9 376.1H433.6V468H429.9V376.1ZM429.9 473H433.6V480.5H429.9V473ZM428.6 497.4H429.9V485.2H433.6V501H428.6V497.4ZM428.6 506H433.6V513.5H428.6V506ZM428.6 518.2H433.6V526H428.6V518.2ZM421.3 351.6H425.4V360H421.3V351.6ZM421.3 363.9H425.4V372.5H421.3V363.9ZM421.3 376.1H425.4V385H421.3V376.1ZM421.3 388.3H425.3V468H421.3V388.3ZM421.3 473H425.3V480.5H421.3V473ZM421.3 485.2H425.3V493H421.3V485.2ZM421.3 497.4H425.3V501H421.3V497.4ZM420 509.6H421.3V506H425.3V513.5H420V509.6ZM420 518.2H425.3V526H420V518.2ZM420 530.4H425.3V538.5H420V530.4ZM412.7 363.9H417.1V372.5H412.7V363.9ZM412.7 376.1H417.1V385H412.7V376.1ZM412.7 388.3H417.1V397.5H412.7V388.3ZM412.7 400.5H417V468H412.7V400.5ZM412.7 473H417V480.5H412.7V473ZM412.7 485.2H417V493H412.7V485.2ZM412.7 497.4H417V501H412.7V497.4ZM412.7 509.6H417V513.5H412.7V509.6ZM411.4 521.9H412.7V518.2H417V526H411.4V521.9ZM411.4 530.4H417V538.5H411.4V530.4ZM411.4 542.6H417V551H411.4V542.6ZM404.1 376.1H408.8V385H404.1V376.1ZM404.1 388.3H408.8V397.5H404.1V388.3ZM404.1 400.5H408.8V410H404.1V400.5ZM404.1 412.7H408.7V468H404.1V412.7ZM404.1 473H408.7V480.5H404.1V473ZM404.1 485.2H408.7V493H404.1V485.2ZM404.1 497.4H408.7V501H404.1V497.4ZM404.1 509.6H408.7V513.5H404.1V509.6ZM404.1 521.9H408.7V526H404.1V521.9ZM402.9 534.1H404.2V530.5H408.8V538.6H402.9V534.1ZM402.9 542.6H408.8V551H402.9V542.6ZM402.9 554.9H408.8V563.5H402.9V554.9ZM395.6 388.3H400.6V397.5H395.6V388.3ZM395.6 400.5H400.6V410H395.6V400.5ZM395.6 412.7H400.6V422.5H395.6V412.7ZM395.6 424.9H400.5V468H395.6V424.9ZM395.6 473H400.5V480.5H395.6V473ZM395.6 485.2H400.5V493H395.6V485.2ZM395.6 497.4H400.5V501H395.6V497.4ZM395.6 509.6H400.5V513.5H395.6V509.6ZM395.6 521.9H400.5V526H395.6V521.9ZM395.6 530.4H400.5V530.5L395.6 530.4ZM395.6 534.1H400.5V538.5H395.6V534.1ZM394.3 546.3H395.6V542.6H400.5V551H394.4L394.3 546.3ZM394.3 554.9H400.4V563.5H394.3V554.9ZM394.3 567.1H400.4V576H394.3V567.1ZM387 400.5H392.3V410H387V400.5ZM387 412.7H392.3V422.5H387V412.7ZM387 424.9H392.3V435H387V424.9ZM387 437.1H392.1V468H387V437.1ZM387 473H392.1V480.5H387V473ZM387 485.2H392.1V493H387V485.2ZM387 497.4H392.1V501H387V497.4ZM387 509.6H392.1V513.5H387V509.6ZM387 521.9H392.1V526H387V521.9ZM387 530.4H392.1V530.5L387 530.4ZM387 534.1H392.1V538.5H387V534.1ZM387 542.6H392.1V543H387V542.6ZM387 546.3H392.1V551H387V546.3ZM385.7 558.5H387V554.9H392.1V563.5H385.7V558.5ZM385.7 567.1H392.1V576H385.7V567.1ZM385.7 579.3H392.1V588.5H385.7V579.3ZM378.4 412.7H384V422.5H378.4V412.7ZM378.4 424.9H384V435H378.4V424.9ZM378.4 437.1H384V447.5H378.4V437.1ZM378.4 449.4H383.8V468H378.4V449.4ZM378.4 473H383.8V480.5H378.4V473ZM378.4 485.2H383.8V493H378.4V485.2ZM378.4 497.4H383.8V501H378.4V497.4ZM378.4 509.6H383.8V513.5H378.4V509.6ZM378.4 521.9H383.8V526H378.4V521.9ZM378.4 530.4H383.8V530.5L378.4 530.4ZM378.4 534.1H383.8V538.5H378.4V534.1ZM378.4 542.6H383.8V543H378.4V542.6ZM378.4 546.3H383.8V551H378.4V546.3ZM378.4 554.9H383.8V555.5H378.4V554.9ZM378.4 558.5H383.8V563.5H378.4V558.5ZM377.1 570.7H378.4V567.1H383.8V576H377.1V570.7ZM377.1 579.3H383.8V588.5H377.1V579.3ZM377.1 591.5H383.8V601H377.1V591.5ZM369.9 424.9H375.8V435H369.9V424.9ZM369.9 437.1H375.8V447.5H369.9V437.1ZM369.9 449.4H375.8V460H369.9V449.4ZM369.9 461.6H375.6V468H369.9V461.6ZM369.9 473H375.6V480.5H369.9V473ZM369.9 485.2H375.6V493H369.9V485.2ZM369.9 497.4H375.6V501H369.9V497.4ZM369.9 509.6H375.6V513.5H369.9V509.6ZM369.9 521.9H375.6V526H369.9V521.9ZM369.9 530.4H375.6V530.5L369.9 530.4ZM369.9 534.1H375.6V538.5H369.9V534.1ZM369.9 542.6H375.6V543H369.9V542.6ZM369.9 546.3H375.6V551H369.9V546.3ZM369.9 554.9H375.6V555.5H369.9V554.9ZM369.9 558.5H375.6V563.5H369.9V558.5ZM369.9 567.1H375.6V568H369.9V567.1ZM369.9 570.7H375.6V576H369.9V570.7ZM368.6 582.9H369.9V579.3H375.6V588.5H368.6V582.9ZM368.6 591.5H375.6V601H368.6V591.5ZM368.6 603.7H375.6V613.5H368.6V603.7ZM361.3 437.1H367.4V447.5H361.3V437.1ZM361.3 449.4H367.4V460H361.3V449.4ZM361.3 461.6H367.4V468H361.3V461.6ZM361.3 473.8H367.3V480.5H361.3V473.8ZM361.3 485.2H367.3V493H361.3V485.2ZM361.3 497.4H367.3V501H361.3V497.4ZM361.3 509.6H367.3V513.5H361.3V509.6ZM361.3 521.9H367.3V526H361.3V521.9ZM361.3 530.4H367.3V530.5L361.3 530.4ZM361.3 534.1H367.3V538.5H361.3V534.1ZM361.3 542.6H367.3V543H361.3V542.6ZM361.3 546.3H367.3V551H361.3V546.3ZM361.3 554.9H367.3V555.5H361.3V554.9ZM361.3 558.5H367.3V563.5H361.3V558.5ZM361.3 567.1H367.3V568H361.3V567.1ZM361.3 570.7H367.3V576H361.3V570.7ZM361.3 579.3H367.3V580.5H361.3V579.3ZM361.3 582.9H367.3V588.5H361.3V582.9ZM360 595.1H361.3V591.5H367.3V601H360V595.1ZM360 603.7H367.3V613.5H360V603.7ZM360 615.9H367.3V626H360V615.9ZM352.7 449.4H359.1V460H352.7V449.4ZM352.7 461.6H359.1V468H352.7V461.6ZM352.7 473.8H359.1V480.5H352.7V473.8ZM352.7 486H359V493H352.7V486ZM352.7 497.4H359V501H352.7V497.4ZM352.7 509.6H359V513.5H352.7V509.6ZM352.7 521.9H359V526H352.7V521.9ZM352.7 530.4H359V530.5L352.7 530.4ZM352.7 534.1H359V538.5H352.7V534.1ZM352.7 542.6H359V543H352.7V542.6ZM352.7 546.3H359V551H352.7V546.3ZM352.7 554.9H359V555.5H352.7V554.9ZM352.7 558.5H359V563.5H352.7V558.5ZM352.7 567.1H359V568H352.7V567.1ZM352.7 570.7H359V576H352.7V570.7ZM352.7 579.3H359V580.5H352.7V579.3ZM352.7 582.9H359V588.5H352.7V582.9ZM352.7 591.5H359V593H352.7V591.5ZM352.7 595.1H359V601H352.7V595.1ZM344.1 461.6H350.8V468H344.1V461.6ZM344.1 473.8H350.8V480.5H344.1V473.8ZM344.1 486H350.8V493H344.1V486ZM344.1 497.4H350.8V501H344.1V497.4ZM344.1 509.6H350.8V513.5H344.1V509.6ZM344.1 521.9H350.8V526H344.1V521.9ZM344.1 530.4H350.8V530.5L344.1 530.4ZM344.1 534.1H350.8V538.5H344.1V534.1ZM344.1 542.6H350.8V543H344.1V542.6ZM344.1 546.3H350.8V551H344.1V546.3ZM344.1 554.9H350.8V555.5H344.1V554.9ZM344.1 558.5H350.8V563.5H344.1V558.5ZM344.1 567.1H350.8V568H344.1V567.1ZM344.1 570.7H350.8V576H344.1V570.7ZM344.1 579.3H350.8V580.5H344.1V579.3ZM344.1 582.9H350.8V588.5H344.1V582.9ZM344.1 591.5H350.8V593H344.1V591.5ZM344.1 595.1H350.8V601H344.1V595.1ZM344.1 603.7H350.8V605.5H344.1V603.7ZM344.1 607.4H352.7V603.7H359V613.5H344.1V607.4ZM335.6 473.8H342.6V480.5H335.6V473.8ZM335.6 486H342.6V493H335.6V486ZM335.6 497.4H342.6V501H335.6V497.4ZM335.6 509.6H342.6V513.5H335.6V509.6ZM335.6 521.9H342.6V526H335.6V521.9ZM335.6 530.4H342.6V530.5L335.6 530.4ZM335.6 534.1H342.6V538.5H335.6V534.1ZM335.6 542.6H342.6V543H335.6V542.6ZM335.6 546.3H342.6V551H335.6V546.3ZM335.6 554.9H342.6V555.5H335.6V554.9ZM335.6 558.5H342.6V563.5H335.6V558.5ZM335.6 567.1H342.6V568H335.6V567.1ZM335.6 570.7H342.6V576H335.6V570.7ZM335.6 579.3H342.6V580.5H335.6V579.3ZM335.6 582.9H342.6V588.5H335.6V582.9ZM335.6 591.5H342.6V593H335.6V591.5ZM335.6 595.1H342.6V601H335.6V595.1ZM335.6 603.7H342.6V605.5H335.6V603.7ZM335.6 607.4H342.6V613.5H335.6V607.4ZM335.6 615.9H342.6V618H335.6V615.9ZM335.6 619.6H344.2V616H359V626H335.6V619.6ZM335.6 628.1H359V638.5H327V631.8H335.6V628.1ZM334.3 497.4V501H327V497.4H334.3ZM327 493V486H334.3V493H327ZM334.3 509.6V513.5H327V509.6H334.3ZM334.3 521.9V526H327V521.9H334.3ZM334.3 530.4L327 530.5V530.4H334.3ZM334.3 534.1V538.5H327V534.1H334.3ZM334.3 542.6V543H327V542.6H334.3ZM334.3 546.3V551H327V546.3H334.3ZM334.3 554.9V555.5H327V554.9H334.3ZM334.3 558.5V563.5H327V558.5H334.3ZM334.3 567.1V568H327V567.1H334.3ZM334.3 570.7V576H327V570.7H334.3ZM334.3 579.3V580.5H327V579.3H334.3ZM334.3 582.9V588.5H327V582.9H334.3ZM334.3 591.5V593H327V591.5H334.3ZM334.3 595.1V601H327V595.1H334.3ZM334.3 603.7V605.5H327V603.7H334.3ZM334.3 607.4V613.5H327V607.4H334.3ZM334.3 615.9V618H327V615.9H334.3ZM334.3 619.6V626H327V619.6H334.3ZM334.3 628.1V630.5H327V628.1H334.3ZM206 473H334.3V480.5H206V473ZM206 485.2H326V493H206V485.2ZM206 497.4H326V501H206V497.4ZM197.4 485.2H201V493H197.4V485.2ZM197.4 497.4H201V505.5H197.4V497.4ZM197.4 509.6H326V513.5H197.4V509.6ZM188.9 497.4H192.8V505.5H188.9V497.4ZM188.9 509.6H192.8V518H188.9V509.6ZM188.9 521.9H326V526H188.9V521.9ZM180.3 509.6H184.4V518H180.3V509.6ZM180.3 521.9H184.4V530.5H326V530.6H180.3V521.9ZM180.3 534.1H326V538.5H180.3V534.1ZM171.7 521.9H176.1V530.5H171.7V521.9ZM171.7 534.1H176.1V542.7H326V543.1H171.7V534.1ZM171.7 546.3H326V551H171.7V546.3ZM163.1 534.1H167.8V543H163.1V534.1ZM163.1 546.3H167.8V554.9H326V555.5H163.1V546.3ZM163.1 558.5H326V563.5H163.1V558.5ZM154.6 546.3H159.6V555.5H154.6V546.3ZM154.6 558.5H159.6V567.1H326V568H154.6V558.5ZM154.6 570.7H326V576H154.6V570.7ZM146 558.5H151.3V568H146V558.5ZM146 570.7H151.3V579.3H326V580.5H146V570.7ZM146 582.9H326V588.5H146V582.9ZM137.4 570.7H143V580.5H137.4V570.7ZM137.4 582.9H143V591.5H326V593H137.4V582.9ZM137.4 595.1H326V601H137.4V595.1ZM128.9 582.9H134.8V593H128.9V582.9ZM128.9 595.1H134.8V603.7H326V605.5H128.9V595.1ZM128.9 607.4H326V613.5H128.9V607.4ZM120.3 595.1H126.4V605.5H120.3V595.1ZM120.3 607.4H126.4V616H326V618.1H120.3V607.4ZM120.3 619.6H326V626H120.3V619.6ZM111.7 607.4H118.1V618H111.7V607.4ZM111.7 619.6H118.1V628.2H326V630.6H111.7V619.6ZM111.7 631.8H326V638.5H111.7V631.8ZM103.1 619.6H109.8V630.5H103.1V619.6ZM103.1 631.8H109.8V640.4H326V643H103.1V631.8ZM94.6 631.8H101.6V643H94.6V631.8ZM454 676H86V644H93.3V664.8H454V676ZM454 663.5H94.6V644H101.6V652.6H454V663.5ZM454 651H103.1V644H327V640.4H359V644H454V651ZM462.3 663.5H455V652.6H462.3V663.5ZM462.3 651H455V643H360V640.4H462.3V651ZM462.3 638.5H360V628.1H367.3V631.8H462.3V638.5ZM470.6 651H463.6V640.4H470.6V651ZM470.6 638.5H463.6V630.5H368.6V628.1H470.6V638.5ZM470.6 626H368.6V615.9H375.6V619.5H470.6V626ZM478.9 638.5H472.2V628.1H478.9V638.5ZM478.9 626H472.2V618H377.2V615.9H478.9V626ZM478.9 613.5H377.1V603.7H383.8V607.4H478.8V613.5H478.9ZM487.1 626H480.7V615.9H487.1V626ZM487.1 613.5H480.7V605.5H385.7V603.7H487.1V613.5ZM487.1 601H385.7V591.5H392.1V595.1H487.1V601ZM495.4 613.5H489.3V603.7H495.4V613.5ZM495.4 601H489.3V593H394.3V591.5H495.4V601ZM495.4 588.5H394.3V579.3H400.4V582.9H495.4V588.5ZM503.7 601H497.8V591.5H503.7V601ZM503.7 588.5H497.8V580.5H402.8V579.3H503.6L503.7 588.5ZM503.7 576H402.9V567.1H408.8V570.7H503.8L503.7 576ZM512 588.5H506.4V579.3H512V588.5ZM512 576H506.4V568H411.4V567.1H512V576ZM512 563.5H411.4V554.9H417V558.5H512V563.5ZM520.3 576H515V567.1H520.3V576ZM520.3 563.5H515V555.5H420V554.9H520.3V563.5ZM520.3 551H420V542.6H425.3V546.3H520.3V551ZM528.6 563.5H523.6V554.9H528.6V563.5ZM528.6 551H523.6V543H428.6V542.6H528.6V551ZM528.6 538.5H428.6V530.4H433.6V534H528.6V538.5ZM536.9 551H532.2V542.6H536.9V551ZM536.9 538.5H532.2V530.5H437.2V530.4H536.9V538.5ZM536.9 526H437.2V518.2H441.9V521.9H536.9V526ZM545.1 538.5H540.7V530.4H545.1V538.5ZM545.1 526H540.7V518.2H545.1V526ZM545.1 513.5H445.7V506H450.1V509.6H545.1V513.5ZM553.4 526H549.3V518.2H553.4V526ZM553.4 513.5H549.3V506H553.4V513.5ZM553.4 501H519V497.4H553.4V501ZM561.7 513.5H557.9V506H561.7V513.5ZM561.7 501H557.9V493H519V485.2H526.3V489.8H561.7V501ZM561.7 488.5H527.6V485.2H561.7V488.5ZM570 501H566.4V489.8H570V501ZM570 488.5H566.4V485H570V488.5ZM570 484H566.4V480.5H527.5V473H534.5V477.6H570V484ZM570 476H536.1V473H570V476ZM536.1 468V460.6H542.8V465.4H584V471.5H575V468H536.1ZM585 548V501H575V489.8H592.3V536.8H610.6V543H602.3V548H585ZM597 558.5H602.3V568H597V558.5ZM597 570.7H602.3V579.3H617.1V580.5H597V570.7ZM597 582.9H617.1V585.5H608.8V588.5H597V582.9ZM588.4 570.7H594V580.5H588.4V570.7ZM588.4 582.9H594V591.5H608.9V593H588.5V582.9H588.4ZM588.4 595.1H608.8V598H600.5V601H588.4V595.1ZM579.9 582.9H585.7V593H579.9V582.9ZM579.9 595.1H585.7V603.7H600.6V605.5H579.9V595.1ZM579.9 607.4H600.6V610.5H592.3V613.5H579.9V607.4ZM571.3 595.1H577.4V605.5H571.3V595.1ZM571.3 607.4H577.4V616H592.3V618.1H571.3V607.4ZM571.3 619.6H592.3V623H584V626H571.3V619.6ZM562.7 607.4H569.1V618H562.7V607.4ZM562.7 619.6H569.1V628.2H584V630.6H562.7V619.6ZM562.7 631.8H584V638.5H562.7V631.8ZM554.1 619.6H560.8V630.5H554.1V619.6ZM554.1 631.8H560.8V640.4H584V643H554.1V631.8ZM545.6 631.8H552.6V643H545.6V631.8ZM964 676H537V644H544.3V664.8H964V676ZM964 663.5H545.6V644H552.6V652.6H964V663.5ZM964 651H554.1V644H585V640.4H612V644H932V640.4H964V651ZM964 638.5H932V631.8H940.6V628.1H964V638.5ZM964 626H940.6V619.6H949.2V616H964V626ZM964 613.5H949.1V607.4H957.7V603.7H964V613.5ZM964 601H957.7V595.1H964V601ZM964 593H957.7V591.5H964V593ZM964 588.5H957.7V582.9H964V588.5ZM964 580.5H957.7V579.3H964V580.5ZM964 576H957.7V570.7H964V576ZM964 568H957.7V567.1H964V568ZM964 563.5H957.7V558.5H964V563.5ZM964 555.5H957.7V554.9H964V555.5ZM964 551H957.7V546.3H964V551ZM964 543H957.7V542.6H964V543ZM964 538.5H957.7V534.1H964V538.5ZM964 530.5H957.7V530.4L964 530.5ZM964 526H957.7V521.9H964V526ZM964 513.5H957.7V509.6H964V513.5ZM964 501H957.7V497.4H964V501ZM964 493H957.7V485.2H964V493ZM964 480.5H957.7V473H964V480.5ZM964 468H957.7V176H964V468ZM964.1 175H957.7V170.5H655.9V164.7H664.5V163.8H964.2V175H964.1ZM964.1 162.5H664.4V160.1H964.1V162.5ZM972.3 663.5H965V652.6H972.3V663.5ZM972.3 651H965V640.4H972.3V651ZM972.3 638.5H965V628.1H972.3V638.5ZM972.3 626H965V615.9H972.3V626ZM972.3 613.5H965V603.7H972.3V613.5ZM972.3 601H965V595.1H966.3V591.5H972.3V601ZM972.3 588.5H966.3V582.9H972.3V588.5ZM972.3 580.5H966.3V579.3H972.3V580.5ZM972.3 576H966.3V570.7H972.3V576ZM972.3 568H966.3V567.1H972.3V568ZM972.3 563.5H966.3V558.5H972.3V563.5ZM972.3 555.5H966.3V554.9H972.3V555.5ZM972.3 551H966.3V546.3H972.3V551ZM972.3 543H966.3V542.6H972.3V543ZM972.3 538.5H966.3V534.1H972.3V538.5ZM972.3 530.5H966.3V530.4L972.3 530.5ZM972.3 526H966.3V521.9H972.3V526ZM972.3 513.5H966.3V509.6H972.3V513.5ZM972.3 501H966.3V497.4H972.3V501ZM972.3 493H966.3V485.2H972.3V493ZM972.3 480.5H966.3V473H972.3V480.5ZM972.3 468H966.3V163.8H972.3V468ZM972.4 162.5H966.3V158H664.4V152.5H673V151.6H972.4V162.5ZM864.5 145.5L863.1 147.9H972.4V150H673V147.9H796.2L797.6 145.5H673V140.3H681.6V139.4H801L802 137.5H681.6V135.7H803L804.5 133H681.5V128.1H690.1V127.2H807.8L809 125.1H690V123.6H809.8L811.5 120.6H690.1V116H698.7V115.1H814.8L816.2 112.7H698.7V111.5H816.8L818.6 108.2H698.6V103.8H707.2V102.9H821.6L823.1 100.2H707.3V99.3H823.7L825.7 95.7H707.3V91.6H715.9V90.7H828.6L830.3 87.7H715.9V87.1H830.6L832.8 83.2H715.9V79.4H724.5V78.5H835.5L837.4 75.2H724.4V74.8H837.5L839.8 70.7H724.4V67H733V66.1H842.3L844.3 62.5H733V62.4H844.4L846.9 58H733V53.9H1038.7V62.5H1034.9V58H913.9L911.4 62.4H1030.5V62.5H911.3L909.3 66.1H1030.4V75H1026.3V70.5H906.8L904.5 74.6H1022.2V75H904.3L902.4 78.3H1022.1V87.5H1017.7V83H899.8L897.6 86.9H1013.9V87.5H897.2L895.5 90.5H1013.8V100H1009.1V95.5H892.7L890.7 99.1H1005.5V100H890.2L888.7 102.7H1005.6V112.5H1000.6V108H885.7L883.9 111.3H997.4V112.5H883.1L881.7 114.9H997.2V125H992V120.5H878.6L876.9 123.5H989V125H876.1L874.9 127.1H989V137.5H983.4V133H871.6L870.1 135.7H980.8V137.5H869L868 139.4H980.7V150H974.9V145.5H864.5ZM733 45.5V41.6H1047V50H1043.4V45.5H733ZM980.6 651H973.6V640.4H980.6V651ZM980.6 638.5H973.6V628.1H980.6V638.5ZM980.6 626H973.6V615.9H980.6V626ZM980.6 613.5H973.6V603.7H980.6V613.5ZM980.6 601H973.6V591.5H980.6V601ZM980.6 588.5H973.6V582.9H974.9V579.3H980.6V588.5ZM980.6 576H974.9V570.7H980.6V576ZM980.6 568H974.9V567.1H980.6V568ZM980.6 563.5H974.9V558.5H980.6V563.5ZM980.6 555.5H974.9V554.9H980.6V555.5ZM980.6 551H974.9V546.3H980.6V551ZM980.6 543H974.9V542.6H980.6V543ZM980.6 538.5H974.9V534.1H980.6V538.5ZM980.6 530.5H974.9V530.4L980.6 530.5ZM980.6 526H974.9V521.9H980.6V526ZM980.6 513.5H974.9V509.6H980.6V513.5ZM980.6 501H974.9V497.4H980.6V501ZM980.6 493H974.9V485.2H980.6V493ZM980.6 480.5H974.9V473H980.6V480.5ZM988.9 638.5H982.2V628.1H988.9V638.5ZM988.9 626H982.2V615.9H988.9V626ZM988.9 613.5H982.2V603.7H988.9V613.5ZM988.9 601H982.2V591.5H988.9V601ZM988.9 588.5H982.2V579.3H988.9V588.5ZM988.9 576H982.2V570.7H983.5V567.1H988.9V576ZM988.9 563.5H983.5V558.5H988.9V563.5ZM988.9 555.5H983.5V554.9H988.9V555.5ZM988.9 551H983.5V546.3H988.9V551ZM988.9 543H983.5V542.6H988.9V543ZM988.9 538.5H983.5V534.1H988.9V538.5ZM988.9 530.5H983.5V530.4L988.9 530.5ZM988.9 526H983.5V521.9H988.9V526ZM988.9 513.5H983.5V509.6H988.9V513.5ZM988.9 501H983.5V497.4H988.9V501ZM988.9 493H983.5V485.2H988.9V493ZM988.9 480.5H983.5V473H988.9V480.5ZM997.1 626H990.7V615.9H997.1V626ZM997.1 613.5H990.7V603.7H997.1V613.5ZM997.1 601H990.7V591.5H997.1V601ZM997.1 588.5H990.7V579.3H997.1V588.5ZM997.1 576H990.7V567.1H997.1V576ZM997.1 563.5H990.7V558.5H992V554.9H997.1V563.5ZM997.1 551H992V546.3H997.1V551ZM997.1 543H992V542.6H997.1V543ZM997.1 538.5H992V534.1H997.1V538.5ZM997.1 530.5H992V530.4L997.1 530.5ZM997.1 526H992V521.9H997.1V526ZM997.1 513.5H992V509.6H997.1V513.5ZM997.1 501H992V497.4H997.1V501ZM997.1 493H992V485.2H997.1V493ZM997.1 480.5H992V473H997.1V480.5ZM1005.4 613.5H999.3V603.7H1005.4V613.5ZM1005.4 601H999.3V591.5H1005.4V601ZM1005.4 588.5H999.3V579.3H1005.4V588.5ZM1005.4 576H999.3V567.1H1005.4V576ZM1005.4 563.5H999.3V554.9H1005.4V563.5ZM1005.4 551H999.3V546.3H1000.6V542.6H1005.5V551H1005.4ZM1005.4 538.5H1000.5V534.1H1005.4V538.5ZM1005.4 530.5H1000.5V530.4L1005.4 530.5ZM1005.4 526H1000.5V521.9H1005.4V526ZM1005.4 513.5H1000.5V509.6H1005.4V513.5ZM1005.4 501H1000.5V497.4H1005.4V501ZM1005.4 493H1000.5V485.2H1005.4V493ZM1005.4 480.5H1000.5V473H1005.4V480.5ZM1013.7 601H1007.9V591.5H1013.7V601ZM1013.7 588.5H1007.9V579.3H1013.7V588.5ZM1013.7 576H1007.9V567.1H1013.7V576ZM1013.7 563.5H1007.9V554.9H1013.7V563.5ZM1013.7 551H1007.9V542.6H1013.7V551ZM1013.7 538.5H1007.9V534.1H1009.2V530.5H1013.8L1013.7 538.5ZM1013.7 526H1009.1V521.9H1013.7V526ZM1013.7 513.5H1009.1V509.6H1013.7V513.5ZM1013.7 501H1009.1V497.4H1013.7V501ZM1013.7 493H1009.1V485.2H1013.7V493ZM1013.7 480.5H1009.1V473H1013.7V480.5ZM1022 588.5H1016.4V579.3H1022V588.5ZM1022 576H1016.4V567.1H1022V576ZM1022 563.5H1016.4V554.9H1022V563.5ZM1022 551H1016.4V542.6H1022V551ZM1022 538.5H1016.4V530.4H1022V538.5ZM1022 526H1016.4V521.9H1017.7V518.2H1022V526ZM1022 513.5H1017.7V509.6H1022V513.5ZM1022 501H1017.7V497.4H1022V501ZM1022 493H1017.7V485.2H1022V493ZM1022 480.5H1017.7V473H1022V480.5ZM1030.3 576H1025V567.1H1030.3V576ZM1030.3 563.5H1025V554.9H1030.3V563.5ZM1030.3 551H1025V542.6H1030.3V551ZM1030.3 538.5H1025V530.4H1030.3V538.5ZM1030.3 526H1025V518.2H1030.3V526ZM1030.3 513.5H1025V509.6H1026.3V506H1030.3V513.5ZM1030.3 501H1026.3V497.4H1030.3V501ZM1030.3 493H1026.3V485.2H1030.3V493ZM1030.3 480.5H1026.3V473H1030.3V480.5ZM1038.6 563.5H1033.6V554.9H1038.6V563.5ZM1038.6 551H1033.6V542.6H1038.6V551ZM1038.6 538.5H1033.6V530.4H1038.6V538.5ZM1038.6 526H1033.6V518.2H1038.6V526ZM1038.6 513.5H1033.6V506H1038.6V513.5ZM1038.6 501H1033.6V497.4H1034.9V485.2H1038.6V501ZM1038.6 480.5H1034.9V473H1038.6V480.5ZM1046.9 551H1042.2V542.6H1046.9V551ZM1046.9 538.5H1042.2V530.4H1046.9V538.5ZM1046.9 526H1042.2V518.2H1046.9V526ZM1046.9 513.5H1042.2V506H1046.9V513.5ZM1046.9 501H1042.2V485.2H1043.5V473H1046.9V501ZM1055.1 538.5H1050.7V530.4H1055.1V538.5ZM1055.1 526H1050.7V518.2H1055.1V526ZM1055.1 513.5H1050.7V506H1055.1V513.5ZM1055.1 501H1050.7V473H1052V294L1046.9 298.7V468H1043.5V301.9L1038.6 306.4V468H1034.9V309.8L1030.3 314V468H1026.3V317.6L1022 321.5V468H1017.7V325.5L1013.7 329.2V468H1009.1V333.4L1005.4 336.8V468H1000.5V341.3L997.1 344.4V468H992V349.1L988.9 352V468H983.5V357L980.6 359.6V468H974.9V151.6H980.6V265.7L983.5 263.1V139.4H988.9V258L992 255.1V127.1H997.1V250.4L1000.5 247.3V114.9H1005.4V242.8L1009.1 239.4V102.7H1013.7V235.2L1017.7 231.5V90.5H1022V227.6L1026.3 223.7V78.3H1030.3V220L1034.9 215.8V66.1H1038.6V212.4L1043.5 207.9V53.9H1046.9V204.8L1052 200.1V41.6H1055.1V501ZM1063.4 526H1059.3V518.2H1063.4V526ZM1063.4 513.5H1059.3V506H1063.4V513.5ZM1063.4 501H1059.3V37.5H1052V33H728V37.5H705V33H475V37.5H447V29.4H1063.4V501ZM1071.7 513.5H1067.9V506H1071.7V513.5ZM1071.7 501H1067.9V25H447V17.2H1071.7V501ZM1080 501H1076.4V12.5H447V5H1080V501Z" fill="white"/>
</g>
<defs>
<clipPath id="clip0_1730_14237">
<rect width="1085" height="677" fill="white"/>
</clipPath>
</defs>
</svg>
