<svg width="28" height="28" viewBox="0 0 28 28" fill="#f2f3c1" xmlns="http://www.w3.org/2000/svg">
<path d="M13.7894 0.408203C17.536 0.408203 18.0035 0.421992 19.4734 0.49094C20.942 0.559887 21.9418 0.790171 22.8215 1.13215C23.7316 1.4824 24.4983 1.95676 25.265 2.72207C25.9662 3.4114 26.5088 4.24524 26.8549 5.16556C27.1955 6.04395 27.4272 7.04506 27.4961 8.51364C27.561 9.98359 27.5789 10.4511 27.5789 14.1976C27.5789 17.9442 27.5651 18.4117 27.4961 19.8817C27.4272 21.3502 27.1955 22.35 26.8549 23.2297C26.5098 24.1506 25.9671 24.9846 25.265 25.6732C24.5755 26.3742 23.7417 26.9167 22.8215 27.2631C21.9431 27.6037 20.942 27.8354 19.4734 27.9044C18.0035 27.9692 17.536 27.9871 13.7894 27.9871C10.0429 27.9871 9.57539 27.9733 8.10543 27.9044C6.63686 27.8354 5.63712 27.6037 4.75736 27.2631C3.83667 26.9177 3.00269 26.375 2.31387 25.6732C1.61255 24.984 1.06997 24.1501 0.723946 23.2297C0.381968 22.3513 0.151684 21.3502 0.0827366 19.8817C0.0179262 18.4117 0 17.9442 0 14.1976C0 10.4511 0.0137894 9.98359 0.0827366 8.51364C0.151684 7.04368 0.381968 6.04533 0.723946 5.16556C1.06901 4.24467 1.61171 3.41061 2.31387 2.72207C3.00289 2.02051 3.83681 1.47789 4.75736 1.13215C5.63712 0.790171 6.63548 0.559887 8.10543 0.49094C9.57539 0.426129 10.0429 0.408203 13.7894 0.408203ZM13.7894 7.30292C11.9608 7.30292 10.2071 8.02933 8.91414 9.32234C7.62113 10.6154 6.89472 12.3691 6.89472 14.1976C6.89472 16.0262 7.62113 17.7799 8.91414 19.0729C10.2071 20.366 11.9608 21.0924 13.7894 21.0924C15.618 21.0924 17.3717 20.366 18.6647 19.0729C19.9578 17.7799 20.6842 16.0262 20.6842 14.1976C20.6842 12.3691 19.9578 10.6154 18.6647 9.32234C17.3717 8.02933 15.618 7.30292 13.7894 7.30292ZM22.7526 6.95819C22.7526 6.50104 22.571 6.06261 22.2477 5.73936C21.9245 5.41611 21.486 5.23451 21.0289 5.23451C20.5718 5.23451 20.1333 5.41611 19.8101 5.73936C19.4868 6.06261 19.3052 6.50104 19.3052 6.95819C19.3052 7.41534 19.4868 7.85376 19.8101 8.17701C20.1333 8.50027 20.5718 8.68187 21.0289 8.68187C21.486 8.68187 21.9245 8.50027 22.2477 8.17701C22.571 7.85376 22.7526 7.41534 22.7526 6.95819ZM13.7894 10.0608C14.8866 10.0608 15.9388 10.4967 16.7146 11.2725C17.4904 12.0483 17.9263 13.1005 17.9263 14.1976C17.9263 15.2948 17.4904 16.347 16.7146 17.1228C15.9388 17.8986 14.8866 18.3345 13.7894 18.3345C12.6923 18.3345 11.6401 17.8986 10.8643 17.1228C10.0885 16.347 9.65261 15.2948 9.65261 14.1976C9.65261 13.1005 10.0885 12.0483 10.8643 11.2725C11.6401 10.4967 12.6923 10.0608 13.7894 10.0608Z"/>
</svg>
