<svg width="1131" height="752" viewBox="0 0 1131 752" fill="none" xmlns="http://www.w3.org/2000/svg">
<path d="M524.797 26H645.567V77.88C645.559 96.151 638.297 113.671 625.378 126.591C612.458 139.51 594.938 146.772 576.667 146.78H524.797V26Z" stroke="white" stroke-width="2" stroke-miterlimit="10"/>
<path d="M706.003 26C722.011 26.0133 737.359 32.3833 748.672 43.7097C759.986 55.036 766.338 70.3914 766.333 86.4C766.333 102.405 759.978 117.755 748.665 129.077C737.353 140.399 722.008 146.767 706.003 146.78C698.069 146.787 690.211 145.23 682.879 142.198C675.547 139.167 668.884 134.721 663.272 129.113C657.659 123.506 653.206 116.848 650.167 109.519C647.128 102.19 645.564 94.3339 645.563 86.4C645.561 78.4644 647.124 70.6064 650.161 63.2751C653.199 55.9439 657.651 49.2831 663.264 43.6737C668.878 38.0642 675.541 33.6161 682.875 30.5835C690.208 27.551 698.067 25.9935 706.003 26Z" stroke="white" stroke-width="2" stroke-miterlimit="10"/>
<path d="M947.507 26C955.437 26 963.29 27.5621 970.616 30.5971C977.942 33.6321 984.599 38.0806 990.206 43.6884C995.813 49.2963 1000.26 55.9537 1003.29 63.2805C1006.33 70.6073 1007.89 78.4599 1007.89 86.39C1007.89 94.3192 1006.33 102.171 1003.29 109.496C1000.26 116.822 995.809 123.478 990.202 129.085C984.596 134.692 977.939 139.139 970.614 142.174C963.288 145.208 955.436 146.77 947.507 146.77C931.494 146.77 916.137 140.41 904.812 129.089C893.487 117.768 887.122 102.413 887.117 86.4C887.116 78.4686 888.677 70.6147 891.711 63.2867C894.746 55.9587 899.194 49.3001 904.802 43.6914C910.409 38.0826 917.067 33.6334 924.395 30.5979C931.722 27.5624 939.576 26 947.507 26Z" stroke="white" stroke-width="2" stroke-miterlimit="10"/>
<path d="M162.465 146.789H41.6953V267.559H162.465V146.789Z" stroke="white" stroke-width="2" stroke-miterlimit="10"/>
<path d="M283.247 146.789H162.477V267.559H283.247V146.789Z" stroke="white" stroke-width="2" stroke-miterlimit="10"/>
<path d="M404.012 146.789H283.242V267.559H404.012V146.789Z" stroke="white" stroke-width="2" stroke-miterlimit="10"/>
<path d="M826.734 146.789C842.747 146.789 858.105 153.151 869.429 164.474C880.752 175.797 887.114 191.155 887.114 207.169C887.114 215.098 885.552 222.95 882.518 230.275C879.483 237.601 875.036 244.257 869.429 249.864C863.822 255.471 857.166 259.919 849.84 262.953C842.515 265.987 834.663 267.549 826.734 267.549C810.719 267.549 795.36 261.188 784.035 249.865C772.71 238.542 766.346 223.184 766.344 207.169C766.346 191.154 772.71 175.797 784.035 164.473C795.36 153.15 810.719 146.789 826.734 146.789Z" stroke="white" stroke-width="2" stroke-miterlimit="10"/>
<path d="M1007.89 146.789H887.117V267.559H1007.89V146.789Z" stroke="white" stroke-width="2" stroke-miterlimit="10"/>
<path d="M1068.28 146.789C1076.21 146.789 1084.06 148.351 1091.39 151.385C1098.71 154.42 1105.37 158.867 1110.98 164.474C1116.58 170.081 1121.03 176.737 1124.06 184.063C1127.1 191.388 1128.66 199.24 1128.66 207.169C1128.66 215.098 1127.1 222.95 1124.06 230.275C1121.03 237.601 1116.58 244.257 1110.98 249.864C1105.37 255.471 1098.71 259.919 1091.39 262.953C1084.06 265.987 1076.21 267.549 1068.28 267.549C1052.27 267.549 1036.91 261.188 1025.58 249.865C1014.26 238.542 1007.89 223.184 1007.89 207.169C1007.89 191.154 1014.26 175.797 1025.58 164.473C1036.91 153.15 1052.27 146.789 1068.28 146.789Z" stroke="white" stroke-width="2" stroke-miterlimit="10"/>
<path d="M126.844 374.469C110.584 384.929 94.0737 391.739 77.3237 402.199C53.5737 357.129 -18.5963 276.109 6.06369 213.789C59.0637 305.049 143.184 331.439 198.064 321.329C191.854 317.709 150.564 339.019 126.804 374.469H126.844Z" stroke="white" stroke-width="2" stroke-miterlimit="10"/>
<path d="M283.247 387.731C242.987 350.291 202.73 350.695 162.477 388.941C200.697 348.275 200.697 307.608 162.477 266.941C202.737 305.181 242.993 305.585 283.247 268.151C245.787 308.011 245.787 347.868 283.247 387.721V387.731Z" stroke="white" stroke-width="2" stroke-miterlimit="10"/>
<path d="M404 267.561H524.78V388.331H477.55C458.047 388.32 439.345 380.568 425.554 366.777C411.763 352.986 404.011 334.284 404 314.781V267.551V267.561Z" stroke="white" stroke-width="2" stroke-miterlimit="10"/>
<path d="M645.567 388.34C629.551 404.355 607.83 413.351 585.182 413.351C562.533 413.351 540.812 404.355 524.797 388.34V267.57H645.567V388.34Z" stroke="white" stroke-width="2" stroke-miterlimit="10"/>
<path d="M976.166 397.172C954.746 369.072 920.836 366.722 898.716 379.512C856.206 359.322 824.416 341.712 787.266 339.752C886.006 310.052 986.146 301.002 1087.63 271.262C1050.48 324.532 1038.34 377.112 976.176 397.172H976.166Z" stroke="white" stroke-width="2" stroke-miterlimit="10"/>
<path d="M162.477 388.34H283.247V509.11H255.377C230.746 509.083 207.132 499.287 189.716 481.871C172.299 464.454 162.503 440.84 162.477 416.21V388.34Z" stroke="white" stroke-width="2" stroke-miterlimit="10"/>
<path d="M343.634 388.34C351.564 388.341 359.415 389.904 366.74 392.94C374.065 395.975 380.721 400.424 386.327 406.032C391.932 411.64 396.379 418.297 399.412 425.623C402.445 432.949 404.006 440.801 404.004 448.73C404.006 456.66 402.445 464.513 399.411 471.839C396.377 479.166 391.93 485.824 386.323 491.431C380.716 497.039 374.059 501.488 366.733 504.523C359.407 507.558 351.554 509.12 343.624 509.12C327.608 509.12 312.248 502.757 300.922 491.432C289.597 480.107 283.234 464.746 283.234 448.73C283.234 440.798 284.797 432.945 287.832 425.617C290.868 418.29 295.317 411.632 300.926 406.024C306.535 400.416 313.193 395.968 320.521 392.934C327.849 389.9 335.703 388.339 343.634 388.34Z" stroke="white" stroke-width="2" stroke-miterlimit="10"/>
<path d="M645.562 388.34H766.333V509.11H712.143C694.487 509.102 677.557 502.085 665.072 489.6C652.588 477.116 645.57 460.186 645.562 442.53V388.34Z" stroke="white" stroke-width="2" stroke-miterlimit="10"/>
<path d="M826.734 388.34C834.664 388.34 842.516 389.902 849.842 392.937C857.169 395.972 863.825 400.42 869.432 406.028C875.039 411.636 879.487 418.294 882.52 425.62C885.554 432.947 887.115 440.8 887.114 448.73C887.115 456.66 885.554 464.513 882.52 471.839C879.487 479.166 875.039 485.824 869.432 491.431C863.825 497.039 857.169 501.488 849.842 504.523C842.516 507.558 834.664 509.12 826.734 509.12C810.717 509.12 795.357 502.757 784.032 491.432C772.706 480.107 766.344 464.746 766.344 448.73C766.344 432.713 772.706 417.353 784.032 406.028C795.357 394.702 810.717 388.34 826.734 388.34Z" stroke="white" stroke-width="2" stroke-miterlimit="10"/>
<path d="M222.867 509.109C230.797 509.109 238.649 510.671 245.975 513.706C253.302 516.741 259.958 521.19 265.565 526.798C271.172 532.406 275.619 539.063 278.653 546.39C281.687 553.717 283.248 561.569 283.247 569.499C283.247 585.513 276.885 600.871 265.562 612.195C254.238 623.518 238.88 629.879 222.867 629.879C206.852 629.879 191.493 623.518 180.168 612.195C168.843 600.872 162.479 585.514 162.477 569.499C162.477 553.483 168.839 538.123 180.164 526.797C191.49 515.472 206.85 509.109 222.867 509.109Z" stroke="white" stroke-width="2" stroke-miterlimit="10"/>
<path d="M283.242 509.109H325.052C346.004 509.109 366.098 517.433 380.914 532.248C395.729 547.063 404.052 567.157 404.052 588.109V629.919H283.252V509.119L283.242 509.109Z" stroke="white" stroke-width="2" stroke-miterlimit="10"/>
<path d="M464.4 509.109C472.33 509.109 480.182 510.671 487.509 513.706C494.835 516.741 501.492 521.19 507.099 526.798C512.706 532.406 517.153 539.063 520.187 546.39C523.22 553.717 524.781 561.569 524.78 569.499C524.78 585.513 518.419 600.871 507.095 612.195C495.772 623.518 480.414 629.879 464.4 629.879C456.469 629.881 448.616 628.32 441.289 625.286C433.962 622.253 427.304 617.805 421.695 612.199C416.086 606.592 411.637 599.935 408.601 592.609C405.565 585.283 404.001 577.43 404 569.499C404 561.568 405.562 553.714 408.598 546.387C411.633 539.059 416.083 532.402 421.691 526.794C427.3 521.186 433.959 516.738 441.287 513.703C448.615 510.669 456.469 509.108 464.4 509.109Z" stroke="white" stroke-width="2" stroke-miterlimit="10"/>
<path d="M645.567 509.109H524.797V629.879H645.567V509.109Z" stroke="white" stroke-width="2" stroke-miterlimit="10"/>
<path d="M706.007 509.109C713.937 509.109 721.79 510.671 729.116 513.706C736.442 516.741 743.099 521.19 748.706 526.798C754.313 532.406 758.76 539.063 761.794 546.39C764.828 553.717 766.389 561.569 766.387 569.499C766.387 585.513 760.026 600.871 748.702 612.195C737.379 623.518 722.021 629.879 706.007 629.879C689.993 629.879 674.634 623.518 663.309 612.195C651.983 600.872 645.62 585.514 645.617 569.499C645.617 553.483 651.98 538.123 663.305 526.797C674.63 515.472 689.991 509.109 706.007 509.109Z" stroke="white" stroke-width="2" stroke-miterlimit="10"/>
<path d="M887.114 509.109H766.344V629.879H887.114V509.109Z" stroke="white" stroke-width="2" stroke-miterlimit="10"/>
<path d="M1068.28 346.922C1076.21 346.922 1084.06 348.484 1091.39 351.519C1098.72 354.554 1105.37 359.002 1110.98 364.61C1116.59 370.218 1121.03 376.876 1124.07 384.202C1127.1 391.529 1128.66 399.382 1128.66 407.312C1128.66 415.242 1127.1 423.095 1124.07 430.421C1121.03 437.748 1116.59 444.406 1110.98 450.013C1105.37 455.621 1098.72 460.07 1091.39 463.105C1084.06 466.14 1076.21 467.702 1068.28 467.702C1052.26 467.702 1036.9 461.339 1025.58 450.014C1014.25 438.689 1007.89 423.328 1007.89 407.312C1007.89 391.295 1014.25 375.935 1025.58 364.61C1036.9 353.284 1052.26 346.922 1068.28 346.922Z" stroke="white" stroke-width="2" stroke-miterlimit="10"/>
<path d="M102.085 629.879C110.015 629.879 117.868 631.441 125.194 634.476C132.52 637.511 139.177 641.959 144.784 647.567C150.391 653.175 154.838 659.833 157.872 667.159C160.906 674.486 162.467 682.339 162.465 690.269C162.465 706.283 156.104 721.641 144.78 732.964C133.457 744.287 118.099 750.649 102.085 750.649C86.0706 750.649 70.7117 744.288 59.3867 732.965C48.0616 721.641 41.698 706.284 41.6953 690.269C41.6953 674.252 48.0578 658.892 59.3831 647.567C70.7085 636.241 86.0689 629.879 102.085 629.879Z" stroke="white" stroke-width="2" stroke-miterlimit="10"/>
<path d="M283.247 629.879H162.477V750.649H283.247V629.879Z" stroke="white" stroke-width="2" stroke-miterlimit="10"/>
<path d="M508.53 629.881H524.79V750.651H404V734.391C404.013 706.671 415.032 680.091 434.635 660.492C454.238 640.893 480.82 629.879 508.54 629.871L508.53 629.881Z" stroke="white" stroke-width="2" stroke-miterlimit="10"/>
<path d="M585.187 629.879C593.117 629.879 600.969 631.441 608.296 634.476C615.622 637.511 622.279 641.959 627.886 647.567C633.492 653.175 637.94 659.833 640.974 667.159C644.007 674.486 645.568 682.339 645.567 690.269C645.567 706.283 639.205 721.641 627.882 732.964C616.559 744.287 601.201 750.649 585.187 750.649C569.172 750.649 553.813 744.288 542.488 732.965C531.163 721.641 524.8 706.284 524.797 690.269C524.797 674.252 531.159 658.892 542.485 647.567C553.81 636.241 569.17 629.879 585.187 629.879Z" stroke="white" stroke-width="2" stroke-miterlimit="10"/>
<path d="M766.333 629.879H645.562V750.649H766.333V629.879Z" stroke="white" stroke-width="2" stroke-miterlimit="10"/>
<path d="M887.117 629.879H917.307C941.326 629.892 964.358 639.44 981.342 656.424C998.326 673.408 1007.87 696.44 1007.89 720.459V750.649H887.117V629.879Z" stroke="white" stroke-width="2" stroke-miterlimit="10"/>
<path d="M102.085 26C110.016 26 117.869 27.5624 125.196 30.5981C132.523 33.6337 139.18 38.083 144.787 43.692C150.395 49.3009 154.842 55.9595 157.875 63.2874C160.908 70.6154 162.468 78.4691 162.465 86.4C162.465 102.414 156.104 117.772 144.78 129.095C133.457 140.419 118.099 146.78 102.085 146.78C86.0706 146.78 70.7117 140.419 59.3867 129.096C48.0616 117.773 41.698 102.415 41.6953 86.4C41.694 78.4686 43.2551 70.6147 46.2894 63.2867C49.3237 55.9587 53.7717 49.3001 59.3796 43.6914C64.9875 38.0826 71.6452 33.6334 78.9728 30.5979C86.3003 27.5624 94.1539 26 102.085 26Z" stroke="white" stroke-width="2" stroke-miterlimit="10"/>
<path d="M47.4375 87.0583C47.4375 73.3307 52.8908 60.1653 62.5977 50.4584C72.3045 40.7516 85.4699 35.2983 99.1975 35.2983V31.7383C112.923 31.7409 126.086 37.1954 135.791 46.902C145.496 56.6086 150.948 69.7724 150.948 83.4983V87.0583C150.949 93.855 149.611 100.585 147.011 106.865C144.411 113.145 140.599 118.851 135.794 123.658C130.988 128.464 125.283 132.277 119.004 134.878C112.724 137.479 105.994 138.818 99.1975 138.818V142.378C85.4699 142.378 72.3045 136.925 62.5977 127.218C52.8908 117.511 47.4375 104.346 47.4375 90.6183V87.0583Z" stroke="white" stroke-width="2" stroke-miterlimit="10"/>
<path d="M53.1641 87.7305C53.1641 76.2917 57.7081 65.3214 65.7966 57.233C73.885 49.1445 84.8553 44.6005 96.2941 44.6005V37.4805C107.733 37.4805 118.703 42.0245 126.792 50.113C134.88 58.2014 139.424 69.1717 139.424 80.6105V87.7305C139.424 99.1693 134.88 110.14 126.792 118.228C118.703 126.316 107.733 130.86 96.2941 130.86V138C90.6288 137.999 85.0193 136.882 79.7859 134.713C74.5524 132.544 69.7974 129.365 65.7924 125.358C61.7874 121.351 58.6108 116.595 56.4441 111.36C54.2773 106.126 53.1628 100.516 53.1641 94.8505V87.7305Z" stroke="white" stroke-width="2" stroke-miterlimit="10"/>
<path d="M58.8906 88.4009C58.8906 79.2483 62.5265 70.4706 68.9984 63.9987C75.4702 57.5268 84.248 53.8909 93.4006 53.8909V43.2109C102.553 43.2109 111.331 46.8468 117.803 53.3187C124.275 59.7906 127.911 68.5683 127.911 77.7209V88.4009C127.911 97.5536 124.275 106.331 117.803 112.803C111.331 119.275 102.553 122.911 93.4006 122.911V133.591C84.248 133.591 75.4702 129.955 68.9984 123.483C62.5265 117.011 58.8906 108.234 58.8906 99.0809V88.4009Z" stroke="white" stroke-width="2" stroke-miterlimit="10"/>
<path d="M64.6328 89.0714C64.6315 85.6724 65.3 82.3065 66.6001 79.166C67.9003 76.0255 69.8065 73.172 72.21 70.7686C74.6134 68.3651 77.4669 66.4589 80.6074 65.1587C83.7479 63.8586 87.1138 63.1901 90.5128 63.1914V48.9414C97.3766 48.9414 103.959 51.668 108.813 56.5215C113.666 61.3749 116.393 67.9576 116.393 74.8214V89.0714C116.399 92.4742 115.735 95.8449 114.437 98.9906C113.14 102.136 111.234 104.995 108.83 107.404C106.427 109.812 103.571 111.723 100.428 113.027C97.2851 114.33 93.9156 115.001 90.5128 115.001V129.241C83.649 129.241 77.0663 126.515 72.2129 121.661C67.3595 116.808 64.6328 110.225 64.6328 103.361V89.0714Z" stroke="white" stroke-width="2" stroke-miterlimit="10"/>
<path d="M70.3672 89.7397C70.3672 85.1638 72.1843 80.7752 75.419 77.5386C78.6537 74.302 83.0413 72.4823 87.6172 72.4797V54.6797C89.8833 54.6784 92.1275 55.1236 94.2215 55.9899C96.3156 56.8562 98.2184 58.1266 99.8212 59.7286C101.424 61.3305 102.696 63.2326 103.563 65.3261C104.431 67.4196 104.877 69.6635 104.877 71.9297V89.7397C104.877 94.3173 103.059 98.7075 99.8219 101.944C96.585 105.181 92.1948 107 87.6172 107V124.8C83.0422 124.8 78.6546 122.982 75.4196 119.747C72.1846 116.512 70.3672 112.125 70.3672 107.55V89.7397Z" stroke="white" stroke-width="2" stroke-miterlimit="10"/>
<path d="M76.0938 90.4002C76.0964 88.1131 77.0068 85.9206 78.625 84.3043C80.2431 82.688 82.4367 81.7802 84.7238 81.7802V60.4102C87.0057 60.4101 89.1947 61.3139 90.812 62.9237C92.4293 64.5335 93.3432 66.7183 93.3538 69.0002V90.4002C93.3458 92.6838 92.4331 94.8711 90.8155 96.4831C89.1979 98.0951 87.0074 99.0002 84.7238 99.0002V120.4C82.4357 120.398 80.2422 119.487 78.6243 117.87C77.0065 116.252 76.0964 114.058 76.0938 111.77V90.4002Z" stroke="white" stroke-width="2" stroke-miterlimit="10"/>
<path d="M81.8359 66.1406V91.0706V116.001" stroke="white" stroke-width="2" stroke-miterlimit="10"/>
<path d="M1008.89 407.312C1008.89 391.295 1015.25 375.935 1026.58 364.61C1037.9 353.284 1053.26 346.922 1069.28 346.922C1077.21 346.922 1085.06 348.484 1092.39 351.519C1099.72 354.554 1106.37 359.002 1111.98 364.61C1117.59 370.218 1122.03 376.876 1125.07 384.202C1128.1 391.529 1129.66 399.382 1129.66 407.312C1129.66 415.241 1128.1 423.093 1125.06 430.418C1122.03 437.744 1117.58 444.4 1111.98 450.007C1106.37 455.614 1099.71 460.061 1092.39 463.096C1085.06 466.13 1077.21 467.692 1069.28 467.692C1053.27 467.692 1037.91 461.331 1026.58 450.008C1015.26 438.684 1008.89 423.327 1008.89 407.312Z" stroke="white" stroke-width="2" stroke-miterlimit="10"/>
<path d="M1070.01 462C1056.28 462 1043.11 456.547 1033.41 446.84C1023.7 437.133 1018.25 423.968 1018.25 410.24H1014.69C1014.69 396.513 1020.14 383.348 1029.85 373.641C1039.55 363.934 1052.72 358.48 1066.45 358.48H1070.01C1083.74 358.48 1096.9 363.934 1106.61 373.641C1116.31 383.348 1121.77 396.513 1121.77 410.24H1125.33C1125.33 417.042 1123.98 423.776 1121.38 430.058C1118.78 436.341 1114.96 442.048 1110.15 446.855C1105.34 451.662 1099.62 455.473 1093.34 458.072C1087.05 460.671 1080.32 462.006 1073.52 462H1070.01Z" stroke="white" stroke-width="2" stroke-miterlimit="10"/>
<path d="M1070.63 456.22C1064.96 456.221 1059.35 455.107 1054.12 452.94C1048.89 450.773 1044.13 447.596 1040.12 443.591C1036.12 439.586 1032.94 434.831 1030.77 429.597C1028.6 424.364 1027.49 418.755 1027.49 413.09H1020.37C1020.38 401.658 1024.93 390.698 1033.01 382.618C1041.1 374.539 1052.07 370 1063.5 370H1070.63C1076.29 370 1081.9 371.116 1087.13 373.283C1092.37 375.451 1097.12 378.627 1101.12 382.632C1105.13 386.637 1108.31 391.392 1110.47 396.625C1112.64 401.858 1113.76 407.466 1113.76 413.13H1120.88C1120.88 424.569 1116.33 435.539 1108.24 443.628C1100.16 451.716 1089.19 456.26 1077.75 456.26L1070.63 456.22Z" stroke="white" stroke-width="2" stroke-miterlimit="10"/>
<path d="M1071.28 450.49C1062.13 450.488 1053.36 446.851 1046.89 440.379C1040.42 433.908 1036.78 425.131 1036.78 415.98H1026.09C1026.1 406.83 1029.73 398.054 1036.21 391.585C1042.68 385.115 1051.45 381.48 1060.6 381.48H1071.28C1080.43 381.48 1089.21 385.115 1095.68 391.585C1102.15 398.054 1105.79 406.83 1105.79 415.98H1116.47C1116.47 425.131 1112.84 433.908 1106.37 440.379C1099.9 446.851 1091.12 450.488 1081.97 450.49H1071.28Z" stroke="white" stroke-width="2" stroke-miterlimit="10"/>
<path d="M1072 444.76C1068.6 444.76 1065.24 444.091 1062.1 442.79C1058.96 441.489 1056.11 439.583 1053.7 437.18C1051.3 434.777 1049.39 431.924 1048.09 428.784C1046.79 425.644 1046.12 422.279 1046.12 418.88H1031.88C1031.88 412.024 1034.6 405.447 1039.44 400.595C1044.29 395.742 1050.86 393.011 1057.71 393H1072C1078.87 393 1085.45 395.727 1090.3 400.58C1095.16 405.434 1097.88 412.016 1097.88 418.88H1112.13C1112.13 425.744 1109.41 432.326 1104.55 437.18C1099.7 442.033 1093.12 444.76 1086.25 444.76H1072Z" stroke="white" stroke-width="2" stroke-miterlimit="10"/>
<path d="M1072.62 439C1068.05 439 1063.66 437.183 1060.42 433.948C1057.19 430.713 1055.37 426.325 1055.37 421.75H1037.56C1037.56 417.175 1039.38 412.787 1042.61 409.552C1045.85 406.317 1050.24 404.5 1054.81 404.5H1072.62C1077.2 404.5 1081.59 406.317 1084.82 409.552C1088.06 412.787 1089.87 417.175 1089.87 421.75H1107.68C1107.68 426.325 1105.87 430.713 1102.63 433.948C1099.4 437.183 1095.01 439 1090.43 439H1072.62Z" stroke="white" stroke-width="2" stroke-miterlimit="10"/>
<path d="M1073.3 433.289C1072.16 433.289 1071.04 433.066 1069.99 432.632C1068.95 432.198 1068 431.563 1067.19 430.761C1066.39 429.96 1065.76 429.009 1065.32 427.962C1064.89 426.915 1064.67 425.792 1064.67 424.659H1043.3C1043.3 422.372 1044.21 420.179 1045.83 418.563C1047.45 416.947 1049.64 416.039 1051.93 416.039H1073.3C1075.58 416.039 1077.78 416.947 1079.39 418.564C1081.01 420.18 1081.92 422.373 1081.92 424.659H1103.29C1103.29 426.948 1102.38 429.143 1100.76 430.761C1099.14 432.38 1096.95 433.289 1094.66 433.289H1073.3Z" stroke="white" stroke-width="2" stroke-miterlimit="10"/>
<path d="M404.006 146.79C387.99 130.776 366.269 121.779 343.621 121.779C320.972 121.779 299.251 130.776 283.236 146.79L197.836 61.39C278.356 -19.13 408.896 -19.13 489.406 61.39L404.006 146.79Z" stroke="white" stroke-width="2" stroke-miterlimit="10"/>
<path d="M398.654 138.872C391.857 132.073 383.788 126.681 374.907 123.001C366.026 119.322 356.507 117.428 346.894 117.428C337.281 117.428 327.762 119.322 318.881 123.001C310 126.681 301.931 132.073 295.134 138.872C268.934 112.942 241.614 88.5418 215.414 65.6718C282.894 -4.64825 393.254 -5.99825 460.724 61.7618C440.664 82.4718 423.314 106.862 403.264 134.962C401.757 136.262 400.221 137.565 398.654 138.872Z" stroke="white" stroke-width="2" stroke-miterlimit="10"/>
<path d="M393.28 131.001C387.615 125.335 380.89 120.84 373.488 117.773C366.086 114.707 358.152 113.128 350.14 113.128C342.128 113.128 334.194 114.707 326.792 117.773C319.39 120.84 312.665 125.335 307 131.001C283.06 107.611 256.89 87.2812 233 70.0012C287.42 9.83122 377.59 7.22121 432 62.1212C420.36 75.1212 414.12 95.4112 402.48 123.121L393.28 131.001Z" stroke="white" stroke-width="2" stroke-miterlimit="10"/>
<path d="M387.915 123.001C383.384 118.471 378.006 114.877 372.086 112.425C366.166 109.973 359.822 108.711 353.415 108.711C347.007 108.711 340.663 109.973 334.743 112.425C328.824 114.877 323.445 118.471 318.915 123.001C297.245 102.151 272.225 85.8813 250.555 74.2013C292.005 24.3013 361.935 20.3913 403.335 62.4913C400.105 67.6913 404.975 83.9513 401.745 111.291L387.915 123.001Z" stroke="white" stroke-width="2" stroke-miterlimit="10"/>
<path d="M382.557 115.112C375.692 108.25 366.383 104.396 356.677 104.396C346.971 104.396 337.662 108.25 330.797 115.112C311.397 96.7917 287.517 84.6017 268.117 78.5117C296.477 38.7817 346.277 33.5617 374.637 62.8517C379.817 60.2917 395.807 72.4917 400.997 99.4517L382.557 115.112Z" stroke="white" stroke-width="2" stroke-miterlimit="10"/>
<path d="M377.182 107.189C374.916 104.923 372.226 103.125 369.265 101.899C366.305 100.672 363.131 100.041 359.927 100.041C356.722 100.041 353.549 100.672 350.588 101.899C347.628 103.125 344.938 104.923 342.672 107.189C325.542 91.409 302.812 83.279 285.672 82.789C301.002 53.259 330.622 46.739 345.932 63.219C359.532 52.899 386.632 61.039 400.232 87.619L377.182 107.189Z" stroke="white" stroke-width="2" stroke-miterlimit="10"/>
<path d="M371.812 99.2695C370.68 98.136 369.336 97.2367 367.856 96.6232C366.376 96.0096 364.789 95.6938 363.187 95.6938C361.585 95.6938 359.999 96.0096 358.519 96.6232C357.039 97.2367 355.694 98.136 354.562 99.2695C339.692 85.9995 318.112 81.9995 303.242 87.0695C305.532 67.7395 314.962 59.9095 317.242 63.5895C339.242 45.5095 377.462 49.5895 399.472 75.7895L371.812 99.2695Z" stroke="white" stroke-width="2" stroke-miterlimit="10"/>
<path d="M366.457 91.3498C353.847 80.6498 333.457 80.6498 320.817 91.3498L288.547 63.9998C319.007 38.1198 368.297 38.1198 398.717 63.9998L366.457 91.3998V91.3498Z" stroke="white" stroke-width="2" stroke-miterlimit="10"/>
<path d="M766.333 86.4C766.333 102.405 759.978 117.755 748.665 129.077C737.353 140.399 722.008 146.767 706.003 146.78C698.069 146.787 690.211 145.23 682.879 142.198C675.547 139.167 668.884 134.721 663.272 129.113C657.659 123.506 653.206 116.848 650.167 109.519C647.128 102.19 645.564 94.3339 645.563 86.4C645.561 78.4644 647.124 70.6064 650.161 63.2751C653.199 55.9439 657.651 49.2831 663.264 43.6737C668.878 38.0642 675.541 33.6161 682.875 30.5835C690.208 27.551 698.067 25.9935 706.003 26C722.011 26.0133 737.359 32.3833 748.672 43.7097C759.986 55.036 766.338 70.3914 766.333 86.4Z" stroke="white" stroke-width="2" stroke-miterlimit="10"/>
<path d="M703.065 34.6406C709.862 34.6406 716.592 35.9795 722.871 38.5808C729.151 41.1821 734.856 44.9949 739.662 49.8014C744.467 54.6079 748.279 60.3139 750.879 66.5937C753.479 72.8734 754.817 79.6039 754.815 86.4006C754.815 85.6315 755.121 84.8939 755.665 84.35C756.209 83.8062 756.946 83.5006 757.715 83.5006C757.715 97.2196 752.269 110.377 742.573 120.083C732.877 129.788 719.724 135.247 706.005 135.261C706.772 135.261 707.507 135.565 708.049 136.107C708.591 136.649 708.895 137.384 708.895 138.151C702.095 138.157 695.36 136.824 689.075 134.226C682.79 131.628 677.078 127.818 672.267 123.012C667.455 118.206 663.638 112.499 661.033 106.217C658.428 99.9349 657.087 93.2012 657.085 86.4006C657.085 87.1671 656.781 87.9022 656.239 88.4442C655.697 88.9861 654.962 89.2906 654.195 89.2906C654.195 82.4892 655.536 75.7544 658.14 69.4714C660.744 63.1883 664.561 57.4801 669.373 52.6731C674.185 47.8661 679.897 44.0545 686.182 41.4563C692.468 38.858 699.204 37.5241 706.005 37.5306C705.622 37.5373 705.24 37.4674 704.884 37.3252C704.528 37.1829 704.203 36.9711 703.929 36.702C703.656 36.433 703.438 36.1122 703.29 35.7583C703.142 35.4043 703.065 35.0244 703.065 34.6406Z" stroke="white" stroke-width="2" stroke-miterlimit="10"/>
<path d="M700.16 43.2617C705.825 43.2617 711.434 44.3776 716.668 46.5458C721.901 48.7139 726.656 51.8917 730.661 55.8977C734.666 59.9038 737.843 64.6596 740.01 69.8935C742.177 75.1274 743.292 80.737 743.29 86.4017C743.29 84.8661 743.9 83.3934 744.986 82.3076C746.072 81.2217 747.545 80.6117 749.08 80.6117C749.08 92.0419 744.543 103.005 736.466 111.092C728.388 119.179 717.43 123.728 706 123.742C706.76 123.742 707.513 123.892 708.215 124.183C708.916 124.474 709.554 124.9 710.091 125.438C710.628 125.976 711.053 126.614 711.343 127.317C711.633 128.019 711.782 128.772 711.78 129.532C706.112 129.538 700.498 128.428 695.26 126.263C690.021 124.098 685.261 120.923 681.25 116.917C677.24 112.911 674.059 108.154 671.888 102.918C669.718 97.6824 668.6 92.0698 668.6 86.4017C668.6 87.9347 667.991 89.4048 666.907 90.4888C665.823 91.5728 664.353 92.1817 662.82 92.1817C662.82 86.5136 663.938 80.9011 666.108 75.665C668.279 70.429 671.46 65.6722 675.47 61.6665C679.481 57.6609 684.241 54.485 689.48 52.3204C694.718 50.1559 700.332 49.0451 706 49.0517C705.236 49.0583 704.477 48.9134 703.769 48.6254C703.061 48.3374 702.417 47.912 701.874 47.3736C701.331 46.8353 700.9 46.1948 700.606 45.4891C700.312 44.7833 700.16 44.0263 700.16 43.2617Z" stroke="white" stroke-width="2" stroke-miterlimit="10"/>
<path d="M697.275 51.8906C706.428 51.8906 715.206 55.5265 721.678 61.9984C728.149 68.4703 731.785 77.248 731.785 86.4006C731.784 85.2612 732.007 84.1327 732.442 83.0797C732.878 82.0266 733.516 81.0697 734.321 80.2635C735.126 79.4574 736.083 78.8179 737.135 78.3815C738.188 77.9452 739.316 77.7206 740.455 77.7206C740.455 86.8706 736.82 95.6458 730.35 102.116C723.88 108.586 715.105 112.221 705.955 112.221C708.257 112.221 710.465 113.135 712.093 114.763C713.721 116.391 714.635 118.599 714.635 120.901C705.484 120.901 696.708 117.266 690.237 110.796C683.765 104.327 680.128 95.5515 680.125 86.4006C680.125 87.54 679.901 88.6683 679.464 89.7208C679.028 90.7733 678.389 91.7296 677.582 92.5348C676.776 93.34 675.819 93.9784 674.766 94.4135C673.713 94.8487 672.585 95.0719 671.445 95.0706C671.447 90.5353 672.342 86.0448 674.08 81.8557C675.818 77.6667 678.365 73.8613 681.574 70.6571C684.784 67.453 688.594 64.9129 692.786 63.1822C696.978 61.4515 701.47 60.5641 706.005 60.5706C704.861 60.5772 703.727 60.3576 702.668 59.9243C701.609 59.491 700.647 58.8527 699.835 58.0461C699.024 57.2394 698.38 56.2803 697.941 55.2239C697.501 54.1675 697.275 53.0347 697.275 51.8906Z" stroke="white" stroke-width="2" stroke-miterlimit="10"/>
<path d="M694.38 60.5195C701.244 60.5195 707.827 63.2462 712.68 68.0996C717.534 72.953 720.26 79.5357 720.26 86.3995C720.259 84.8793 720.557 83.3737 721.138 81.9688C721.719 80.5639 722.571 79.2873 723.646 78.2118C724.72 77.1364 725.996 76.2833 727.4 75.7012C728.805 75.1191 730.31 74.8195 731.83 74.8195C731.83 81.6747 729.111 88.2498 724.268 93.1018C719.425 97.9538 712.855 100.686 706 100.7C707.52 100.7 709.024 100.999 710.428 101.58C711.832 102.162 713.107 103.014 714.182 104.088C715.256 105.163 716.108 106.438 716.69 107.842C717.271 109.246 717.57 110.75 717.57 112.27C714.168 112.276 710.798 111.612 707.653 110.315C704.508 109.018 701.65 107.113 699.242 104.711C696.833 102.308 694.922 99.4539 693.618 96.3119C692.314 93.1699 691.642 89.8015 691.64 86.3995C691.644 87.9214 691.348 89.4292 690.768 90.8364C690.189 92.2436 689.337 93.5226 688.262 94.6002C687.187 95.6777 685.911 96.5326 684.505 97.116C683.099 97.6993 681.592 97.9995 680.07 97.9995C680.066 94.5942 680.735 91.2215 682.036 88.0749C683.338 84.9283 685.249 82.0695 687.657 79.6625C690.066 77.2555 692.927 75.3475 696.074 74.048C699.222 72.7485 702.595 72.0829 706 72.0895C704.477 72.0961 702.967 71.8017 701.557 71.2232C700.148 70.6447 698.866 69.7935 697.787 68.7185C696.707 67.6435 695.85 66.3658 695.266 64.9588C694.681 63.5518 694.38 62.0431 694.38 60.5195Z" stroke="white" stroke-width="2" stroke-miterlimit="10"/>
<path d="M691.483 69.1406C696.061 69.1406 700.451 70.9591 703.688 74.196C706.925 77.4328 708.743 81.823 708.743 86.4006C708.742 84.5009 709.115 82.6195 709.841 80.864C710.567 79.1084 711.632 77.5132 712.975 76.1694C714.318 74.8256 715.912 73.7596 717.667 73.0323C719.422 72.305 721.303 71.9306 723.203 71.9306C723.203 76.497 721.393 80.877 718.168 84.1106C714.944 87.3441 710.569 89.1674 706.003 89.1806C707.903 89.1806 709.784 89.555 711.539 90.2823C713.294 91.0096 714.889 92.0756 716.231 93.4194C717.574 94.7632 718.639 96.3584 719.365 98.114C720.091 99.8695 720.464 101.751 720.463 103.651C718.194 103.657 715.945 103.216 713.846 102.352C711.748 101.488 709.84 100.218 708.233 98.6159C706.626 97.0135 705.351 95.1096 704.481 93.0135C703.611 90.9173 703.163 88.6701 703.163 86.4006C703.16 90.2348 701.636 93.9113 698.925 96.6225C696.214 99.3337 692.537 100.858 688.703 100.861C688.703 98.5911 689.151 96.3439 690.021 94.2478C690.891 92.1516 692.166 90.2478 693.773 88.6453C695.38 87.0429 697.288 85.7733 699.386 84.9093C701.485 84.0454 703.734 83.604 706.003 83.6106C704.099 83.6172 702.212 83.2478 700.45 82.5235C698.689 81.7993 697.088 80.7345 695.739 79.3902C694.39 78.0459 693.32 76.4485 692.589 74.6896C691.859 72.9308 691.483 71.0451 691.483 69.1406Z" stroke="white" stroke-width="2" stroke-miterlimit="10"/>
<path d="M688.594 77.77C690.883 77.77 693.078 78.6792 694.696 80.2977C696.314 81.9161 697.224 84.1112 697.224 86.4C697.218 84.1169 697.664 81.8552 698.534 79.7443C699.404 77.6335 700.682 75.715 702.294 74.0988C703.907 72.4825 705.822 71.2002 707.931 70.3253C710.04 69.4503 712.301 69 714.584 69C714.592 71.2854 713.693 73.4806 712.084 75.1041C710.476 76.7276 708.289 77.6468 706.004 77.66C710.596 77.6732 714.995 79.5053 718.24 82.7552C721.484 86.0051 723.308 90.408 723.314 95C722.181 95.0013 721.059 94.7793 720.012 94.3467C718.965 93.9141 718.013 93.2794 717.212 92.4788C716.41 91.6782 715.775 90.7275 715.341 89.681C714.907 88.6346 714.684 87.5128 714.684 86.38C714.684 88.6593 714.235 90.9162 713.362 93.0219C712.49 95.1275 711.211 97.0406 709.599 98.6518C707.986 100.263 706.073 101.541 703.966 102.412C701.86 103.284 699.603 103.731 697.324 103.73C697.326 102.595 697.553 101.471 697.991 100.424C698.429 99.3761 699.07 98.4255 699.877 97.6264C700.683 96.8273 701.64 96.1954 702.691 95.767C703.743 95.3386 704.868 95.1221 706.004 95.13C703.72 95.1366 701.457 94.6924 699.345 93.8229C697.233 92.9535 695.313 91.6758 693.696 90.0631C692.079 88.4504 690.795 86.5344 689.92 84.4249C689.044 82.3155 688.594 80.054 688.594 77.77Z" stroke="white" stroke-width="2" stroke-miterlimit="10"/>
<path d="M706.003 66.1407C711.366 66.1566 716.504 68.2981 720.29 72.0959C724.077 75.8936 726.203 81.0378 726.203 86.4007C726.203 91.7627 724.077 96.9058 720.29 100.702C716.503 104.498 711.365 106.637 706.003 106.651C703.34 106.657 700.701 106.138 698.238 105.124C695.776 104.109 693.538 102.618 691.652 100.737C689.766 98.8563 688.27 96.6217 687.249 94.1616C686.229 91.7015 685.703 89.0642 685.703 86.4007C685.702 83.7364 686.226 81.098 687.246 78.6367C688.267 76.1754 689.763 73.9397 691.648 72.0576C693.534 70.1755 695.773 68.684 698.236 67.6687C700.699 66.6534 703.339 66.1341 706.003 66.1407Z" stroke="white" stroke-width="2" stroke-miterlimit="10"/>
<path d="M404.004 448.72C404.004 464.736 397.642 480.097 386.317 491.422C374.991 502.747 359.631 509.11 343.614 509.11C335.684 509.11 327.832 507.548 320.506 504.513C313.179 501.478 306.523 497.029 300.916 491.421C295.309 485.814 290.861 479.156 287.828 471.829C284.794 464.503 283.233 456.65 283.234 448.72C283.234 432.706 289.596 417.348 300.919 406.025C312.243 394.701 327.601 388.34 343.614 388.34C359.629 388.34 374.988 394.701 386.313 406.024C397.638 417.347 404.002 432.705 404.004 448.72Z" stroke="white" stroke-width="2" stroke-miterlimit="10"/>
<path d="M340.743 397C347.54 396.999 354.27 398.336 360.55 400.936C366.829 403.536 372.536 407.348 377.342 412.154C382.149 416.959 385.961 422.665 388.563 428.944C391.164 435.223 392.503 441.953 392.503 448.75C392.503 447.984 392.807 447.248 393.349 446.706C393.891 446.164 394.626 445.86 395.393 445.86C395.393 459.588 389.94 472.753 380.233 482.46C370.526 492.167 357.36 497.62 343.633 497.62C344.4 497.62 345.136 497.924 345.68 498.466C346.223 499.008 346.53 499.743 346.533 500.51C332.805 500.51 319.64 495.057 309.933 485.35C300.226 475.643 294.773 462.478 294.773 448.75C294.773 449.517 294.469 450.254 293.927 450.797C293.385 451.341 292.65 451.647 291.883 451.65C291.882 444.853 293.219 438.123 295.819 431.843C298.419 425.563 302.231 419.857 307.036 415.051C311.842 410.244 317.547 406.432 323.827 403.83C330.106 401.229 336.836 399.89 343.633 399.89C342.867 399.887 342.134 399.582 341.592 399.041C341.051 398.499 340.745 397.766 340.743 397Z" stroke="white" stroke-width="2" stroke-miterlimit="10"/>
<path d="M337.853 405.59C343.519 405.587 349.13 406.701 354.365 408.867C359.6 411.034 364.357 414.21 368.364 418.215C372.371 422.221 375.55 426.976 377.718 432.21C379.887 437.444 381.003 443.054 381.003 448.72C381.003 447.96 381.153 447.208 381.444 446.506C381.735 445.804 382.162 445.166 382.7 444.629C383.238 444.092 383.876 443.667 384.578 443.377C385.281 443.087 386.034 442.939 386.793 442.94C386.791 454.38 382.245 465.35 374.155 473.438C366.064 481.526 355.093 486.07 343.653 486.07C345.189 486.07 346.662 486.68 347.748 487.766C348.833 488.852 349.443 490.324 349.443 491.86C343.779 491.86 338.169 490.744 332.936 488.576C327.703 486.408 322.948 483.23 318.942 479.224C314.937 475.218 311.761 470.462 309.594 465.228C307.427 459.994 306.312 454.385 306.313 448.72C306.313 450.255 305.703 451.728 304.618 452.814C303.532 453.9 302.059 454.51 300.523 454.51C300.523 443.071 305.068 432.101 313.156 424.012C321.244 415.924 332.215 411.38 343.653 411.38C342.892 411.382 342.137 411.235 341.433 410.945C340.729 410.655 340.089 410.229 339.55 409.69C339.011 409.152 338.584 408.513 338.292 407.809C338.001 407.106 337.852 406.351 337.853 405.59Z" stroke="white" stroke-width="2" stroke-miterlimit="10"/>
<path d="M335.008 414.219C344.158 414.219 352.935 417.853 359.406 424.323C365.878 430.793 369.515 439.568 369.518 448.719C369.52 446.418 370.436 444.213 372.063 442.588C373.691 440.962 375.897 440.049 378.198 440.049C378.195 449.2 374.558 457.975 368.086 464.445C361.615 470.914 352.838 474.549 343.688 474.549C345.99 474.549 348.197 475.463 349.825 477.091C351.453 478.719 352.367 480.927 352.367 483.229C343.217 483.226 334.441 479.589 327.972 473.117C321.502 466.646 317.867 457.87 317.867 448.719C317.867 451.021 316.953 453.229 315.325 454.856C313.697 456.484 311.49 457.399 309.188 457.399C309.188 448.249 312.822 439.474 319.292 433.004C325.762 426.534 334.538 422.899 343.688 422.899C342.548 422.899 341.419 422.674 340.366 422.238C339.313 421.802 338.356 421.162 337.55 420.356C336.744 419.55 336.104 418.594 335.668 417.54C335.232 416.487 335.008 415.359 335.008 414.219Z" stroke="white" stroke-width="2" stroke-miterlimit="10"/>
<path d="M332.06 422.852C338.922 422.852 345.503 425.577 350.356 430.428C355.21 435.279 357.937 441.859 357.94 448.722C357.94 445.653 359.159 442.71 361.329 440.54C363.499 438.371 366.441 437.152 369.51 437.152C369.505 444.011 366.775 450.587 361.922 455.435C357.069 460.283 350.489 463.004 343.63 463.002C346.699 463.002 349.643 464.22 351.815 466.39C353.986 468.559 355.207 471.502 355.21 474.572C351.811 474.573 348.445 473.904 345.305 472.604C342.164 471.304 339.311 469.398 336.907 466.994C334.504 464.591 332.597 461.737 331.297 458.597C329.997 455.456 329.329 452.091 329.33 448.692C329.331 450.213 329.033 451.719 328.451 453.125C327.87 454.53 327.017 455.807 325.941 456.883C324.866 457.958 323.589 458.811 322.183 459.393C320.778 459.974 319.271 460.273 317.75 460.272C317.75 453.408 320.477 446.825 325.33 441.972C330.184 437.118 336.766 434.392 343.63 434.392C340.567 434.392 337.628 433.177 335.459 431.013C333.29 428.85 332.068 425.915 332.06 422.852Z" stroke="white" stroke-width="2" stroke-miterlimit="10"/>
<path d="M329.173 431.469C333.748 431.469 338.135 433.286 341.37 436.521C344.605 439.756 346.423 444.144 346.423 448.719C346.425 444.883 347.951 441.205 350.665 438.493C353.378 435.782 357.057 434.259 360.893 434.259C360.893 436.525 360.446 438.769 359.579 440.862C358.711 442.956 357.44 444.858 355.837 446.46C354.234 448.062 352.331 449.332 350.237 450.199C348.143 451.065 345.899 451.51 343.633 451.509C345.535 451.509 347.418 451.884 349.175 452.612C350.932 453.341 352.528 454.408 353.872 455.754C355.216 457.1 356.281 458.697 357.007 460.455C357.733 462.213 358.105 464.097 358.103 465.999C355.837 465.999 353.593 465.552 351.499 464.685C349.406 463.817 347.504 462.546 345.902 460.943C344.3 459.34 343.029 457.437 342.163 455.343C341.297 453.249 340.852 451.005 340.853 448.739C340.853 452.576 339.328 456.257 336.615 458.971C333.901 461.684 330.22 463.209 326.383 463.209C326.383 458.634 328.2 454.246 331.435 451.011C334.67 447.776 339.058 445.959 343.633 445.959C341.732 445.957 339.85 445.582 338.094 444.853C336.338 444.123 334.743 443.056 333.4 441.71C332.057 440.364 330.993 438.767 330.268 437.01C329.542 435.253 329.17 433.37 329.173 431.469Z" stroke="white" stroke-width="2" stroke-miterlimit="10"/>
<path d="M326.281 440.101C328.567 440.101 330.76 441.009 332.377 442.626C333.993 444.242 334.901 446.435 334.901 448.721C334.901 446.442 335.35 444.185 336.223 442.079C337.095 439.974 338.374 438.06 339.986 436.449C341.599 434.838 343.512 433.56 345.619 432.689C347.725 431.818 349.982 431.37 352.261 431.371C352.261 432.504 352.038 433.626 351.604 434.672C351.17 435.719 350.534 436.669 349.733 437.47C348.931 438.27 347.98 438.905 346.933 439.338C345.886 439.77 344.764 439.992 343.631 439.991C345.912 439.99 348.17 440.438 350.278 441.31C352.385 442.182 354.3 443.46 355.913 445.072C357.526 446.684 358.806 448.599 359.679 450.705C360.552 452.812 361.001 455.071 361.001 457.351C358.712 457.351 356.517 456.442 354.899 454.823C353.28 453.205 352.371 451.01 352.371 448.721C352.373 451.002 351.924 453.261 351.052 455.368C350.179 457.476 348.899 459.391 347.286 461.003C345.673 462.615 343.757 463.894 341.649 464.765C339.541 465.637 337.282 466.084 335.001 466.081C335.001 463.795 335.909 461.602 337.526 459.986C339.143 458.369 341.335 457.461 343.621 457.461C339.021 457.456 334.61 455.624 331.359 452.369C328.107 449.114 326.281 444.702 326.281 440.101Z" stroke="white" stroke-width="2" stroke-miterlimit="10"/>
<path d="M343.633 428.469C349.003 428.469 354.154 430.602 357.952 434.4C361.749 438.197 363.883 443.348 363.883 448.719C363.887 451.381 363.366 454.017 362.35 456.477C361.334 458.938 359.843 461.174 357.962 463.057C356.082 464.941 353.848 466.435 351.389 467.454C348.93 468.474 346.295 468.999 343.633 468.999C338.261 468.996 333.111 466.86 329.313 463.061C325.516 459.262 323.383 454.11 323.383 448.739C323.38 446.078 323.902 443.442 324.919 440.983C325.935 438.524 327.426 436.289 329.307 434.407C331.187 432.524 333.421 431.031 335.879 430.012C338.337 428.993 340.972 428.469 343.633 428.469Z" stroke="white" stroke-width="2" stroke-miterlimit="10"/>
<path d="M869.426 406.001C880.75 417.325 887.111 432.682 887.111 448.696C887.111 464.71 880.75 480.068 869.426 491.391C863.821 497 857.165 501.45 849.839 504.486C842.513 507.522 834.661 509.084 826.731 509.084C818.801 509.084 810.949 507.522 803.623 504.486C796.297 501.45 789.642 497 784.036 491.391C778.425 485.788 773.973 479.133 770.935 471.809C767.896 464.484 766.331 456.632 766.328 448.702C766.325 440.772 767.885 432.92 770.918 425.593C773.952 418.266 778.399 411.609 784.006 406.001C789.612 400.387 796.27 395.934 803.599 392.895C810.927 389.857 818.783 388.293 826.716 388.293C834.65 388.293 842.505 389.857 849.834 392.895C857.163 395.934 863.82 400.387 869.426 406.001Z" stroke="white" stroke-width="2" stroke-miterlimit="10"/>
<path d="M788.082 414.172C797.79 404.467 810.955 399.016 824.682 399.016C838.409 399.016 851.574 404.467 861.282 414.172C861.013 413.903 860.8 413.585 860.654 413.234C860.509 412.883 860.434 412.507 860.434 412.127C860.434 411.747 860.509 411.371 860.654 411.02C860.8 410.669 861.013 410.35 861.282 410.082C870.986 419.79 876.438 432.955 876.438 446.682C876.438 460.409 870.986 473.574 861.282 483.282C861.55 483.013 861.869 482.8 862.22 482.654C862.571 482.509 862.947 482.434 863.327 482.434C863.707 482.434 864.083 482.509 864.434 482.654C864.785 482.8 865.103 483.013 865.372 483.282C855.664 492.986 842.499 498.438 828.772 498.438C815.045 498.438 801.88 492.986 792.172 483.282C792.441 483.55 792.654 483.869 792.799 484.22C792.945 484.571 793.02 484.947 793.02 485.327C793.02 485.707 792.945 486.083 792.799 486.434C792.654 486.785 792.441 487.103 792.172 487.372C782.467 477.664 777.016 464.499 777.016 450.772C777.016 437.045 782.467 423.88 792.172 414.172C791.903 414.441 791.585 414.654 791.234 414.799C790.883 414.945 790.507 415.02 790.127 415.02C789.747 415.02 789.371 414.945 789.02 414.799C788.669 414.654 788.35 414.441 788.082 414.172Z" stroke="white" stroke-width="2" stroke-miterlimit="10"/>
<path d="M792.131 422.319C796.135 418.312 800.89 415.133 806.123 412.965C811.357 410.796 816.966 409.68 822.631 409.68C828.296 409.68 833.905 410.796 839.139 412.965C844.372 415.133 849.127 418.312 853.131 422.319C852.593 421.781 852.166 421.143 851.875 420.44C851.584 419.737 851.434 418.984 851.434 418.224C851.434 417.463 851.584 416.71 851.875 416.008C852.166 415.305 852.593 414.666 853.131 414.129C857.138 418.133 860.316 422.888 862.485 428.121C864.654 433.355 865.77 438.964 865.77 444.629C865.77 450.294 864.654 455.903 862.485 461.136C860.316 466.37 857.138 471.124 853.131 475.129C853.668 474.591 854.305 474.165 855.007 473.874C855.709 473.583 856.461 473.433 857.221 473.433C857.981 473.433 858.733 473.583 859.435 473.874C860.137 474.165 860.774 474.591 861.311 475.129C857.307 479.137 852.553 482.317 847.319 484.486C842.086 486.655 836.476 487.772 830.811 487.772C825.146 487.772 819.536 486.655 814.303 484.486C809.069 482.317 804.315 479.137 800.311 475.129C800.849 475.666 801.276 476.305 801.567 477.008C801.858 477.71 802.008 478.463 802.008 479.224C802.008 479.984 801.858 480.737 801.567 481.44C801.276 482.143 800.849 482.781 800.311 483.319C796.304 479.314 793.125 474.56 790.957 469.326C788.788 464.093 787.672 458.484 787.672 452.819C787.672 447.154 788.788 441.545 790.957 436.311C793.125 431.078 796.304 426.323 800.311 422.319C799.225 423.402 797.755 424.011 796.221 424.011C794.687 424.011 793.216 423.402 792.131 422.319Z" stroke="white" stroke-width="2" stroke-miterlimit="10"/>
<path d="M796.195 430.461C802.668 423.993 811.445 420.36 820.595 420.36C829.746 420.36 838.522 423.993 844.995 430.461C844.189 429.656 843.549 428.7 843.113 427.647C842.676 426.594 842.452 425.466 842.452 424.326C842.452 423.187 842.676 422.058 843.113 421.006C843.549 419.953 844.189 418.997 844.995 418.191C851.463 424.664 855.097 433.441 855.097 442.591C855.097 451.742 851.463 460.518 844.995 466.991C845.801 466.185 846.757 465.545 847.81 465.109C848.862 464.672 849.991 464.448 851.13 464.448C852.27 464.448 853.398 464.672 854.451 465.109C855.504 465.545 856.46 466.185 857.265 466.991C850.792 473.459 842.016 477.093 832.865 477.093C823.715 477.093 814.938 473.459 808.465 466.991C809.272 467.797 809.911 468.753 810.348 469.806C810.784 470.858 811.009 471.987 811.009 473.126C811.009 474.266 810.784 475.394 810.348 476.447C809.911 477.5 809.272 478.456 808.465 479.261C801.997 472.788 798.364 464.012 798.364 454.861C798.364 445.711 801.997 436.934 808.465 430.461C807.66 431.268 806.704 431.908 805.651 432.344C804.598 432.781 803.47 433.005 802.33 433.005C801.191 433.005 800.062 432.781 799.01 432.344C797.957 431.908 797.001 431.268 796.195 430.461Z" stroke="white" stroke-width="2" stroke-miterlimit="10"/>
<path d="M800.242 438.608C802.645 436.204 805.498 434.297 808.638 432.995C811.778 431.694 815.143 431.024 818.542 431.024C821.941 431.024 825.307 431.694 828.447 432.995C831.587 434.297 834.44 436.204 836.842 438.608C834.673 436.437 833.454 433.493 833.454 430.423C833.454 427.354 834.673 424.41 836.842 422.238C839.247 424.641 841.154 427.494 842.455 430.634C843.757 433.774 844.427 437.139 844.427 440.538C844.427 443.937 843.757 447.303 842.455 450.443C841.154 453.583 839.247 456.436 836.842 458.838C839.014 456.669 841.958 455.45 845.027 455.45C848.097 455.45 851.041 456.669 853.212 458.838C850.81 461.243 847.957 463.15 844.817 464.451C841.677 465.753 838.311 466.423 834.912 466.423C831.513 466.423 828.148 465.753 825.008 464.451C821.867 463.15 819.015 461.243 816.612 458.838C818.782 461.01 820.001 463.954 820.001 467.023C820.001 470.093 818.782 473.037 816.612 475.208C814.208 472.806 812.3 469.953 810.999 466.813C809.698 463.673 809.028 460.307 809.028 456.908C809.028 453.509 809.698 450.144 810.999 447.004C812.3 443.864 814.208 441.011 816.612 438.608C814.441 440.778 811.497 441.997 808.427 441.997C805.358 441.997 802.414 440.778 800.242 438.608Z" stroke="white" stroke-width="2" stroke-miterlimit="10"/>
<path d="M804.305 446.751C807.542 443.519 811.93 441.704 816.505 441.704C821.079 441.704 825.467 443.519 828.705 446.751C827.362 445.408 826.297 443.814 825.57 442.06C824.843 440.305 824.469 438.425 824.469 436.526C824.469 434.627 824.843 432.746 825.57 430.992C826.297 429.238 827.362 427.644 828.705 426.301C831.936 429.539 833.751 433.926 833.751 438.501C833.751 443.075 831.936 447.463 828.705 450.701C830.047 449.358 831.642 448.293 833.396 447.566C835.15 446.839 837.031 446.465 838.93 446.465C840.829 446.465 842.709 446.839 844.463 447.566C846.218 448.293 847.812 449.358 849.155 450.701C845.917 453.932 841.529 455.747 836.955 455.747C832.38 455.747 827.992 453.932 824.755 450.701C826.098 452.044 827.163 453.638 827.889 455.392C828.616 457.146 828.99 459.027 828.99 460.926C828.99 462.825 828.616 464.705 827.889 466.46C827.163 468.214 826.098 469.808 824.755 471.151C823.152 469.549 821.881 467.647 821.014 465.554C820.146 463.46 819.7 461.217 819.7 458.951C819.7 456.685 820.146 454.441 821.014 452.348C821.881 450.255 823.152 448.353 824.755 446.751C823.412 448.094 821.818 449.159 820.063 449.885C818.309 450.612 816.429 450.986 814.53 450.986C812.631 450.986 810.75 450.612 808.996 449.885C807.242 449.159 805.647 448.094 804.305 446.751Z" stroke="white" stroke-width="2" stroke-miterlimit="10"/>
<path d="M808.352 454.902C809.152 454.1 810.103 453.464 811.15 453.03C812.196 452.595 813.318 452.372 814.452 452.372C815.585 452.372 816.707 452.595 817.753 453.03C818.8 453.464 819.751 454.1 820.552 454.902C817.296 451.646 815.467 447.231 815.467 442.627C815.467 438.023 817.296 433.607 820.552 430.352C821.353 431.152 821.99 432.103 822.424 433.15C822.858 434.196 823.081 435.318 823.081 436.452C823.081 437.585 822.858 438.707 822.424 439.753C821.99 440.8 821.353 441.751 820.552 442.552C823.807 439.296 828.223 437.467 832.827 437.467C837.431 437.467 841.846 439.296 845.102 442.552C844.301 443.353 843.35 443.99 842.303 444.424C841.257 444.858 840.135 445.081 839.002 445.081C837.868 445.081 836.746 444.858 835.7 444.424C834.653 443.99 833.702 443.353 832.902 442.552C836.157 445.807 837.986 450.223 837.986 454.827C837.986 459.431 836.157 463.846 832.902 467.102C832.1 466.301 831.464 465.35 831.03 464.303C830.596 463.257 830.372 462.135 830.372 461.002C830.372 459.868 830.596 458.746 831.03 457.7C831.464 456.653 832.1 455.702 832.902 454.902C829.646 458.157 825.231 459.986 820.627 459.986C816.023 459.986 811.607 458.157 808.352 454.902Z" stroke="white" stroke-width="2" stroke-miterlimit="10"/>
<path d="M812.408 434.409C814.288 432.528 816.52 431.036 818.977 430.018C821.435 429 824.068 428.477 826.727 428.477C829.387 428.477 832.021 429 834.478 430.018C836.935 431.036 839.167 432.528 841.048 434.409C844.828 438.208 846.946 443.352 846.939 448.712C846.931 454.072 844.798 459.21 841.008 462.999C839.127 464.879 836.895 466.371 834.438 467.389C831.981 468.407 829.347 468.931 826.688 468.931C824.028 468.931 821.395 468.407 818.937 467.389C816.48 466.371 814.248 464.879 812.368 462.999C808.592 459.197 806.477 454.054 806.484 448.695C806.492 443.337 808.622 438.2 812.408 434.409Z" stroke="white" stroke-width="2" stroke-miterlimit="10"/>
<path d="M1128.66 26.0117H1007.89V146.782H1128.66V26.0117Z" stroke="white" stroke-width="2" stroke-miterlimit="10"/>
<path d="M1122.93 31.7383H1013.63V141.038H1122.93V31.7383Z" stroke="white" stroke-width="2" stroke-miterlimit="10"/>
<path d="M1117.21 37.4805H1019.37V135.32H1117.21V37.4805Z" stroke="white" stroke-width="2" stroke-miterlimit="10"/>
<path d="M1111.46 43.2109H1025.09V129.581H1111.46V43.2109Z" stroke="white" stroke-width="2" stroke-miterlimit="10"/>
<path d="M1105.74 48.9414H1030.84V123.841H1105.74V48.9414Z" stroke="white" stroke-width="2" stroke-miterlimit="10"/>
<path d="M1100 54.6797H1036.56V118.12H1100V54.6797Z" stroke="white" stroke-width="2" stroke-miterlimit="10"/>
<path d="M1094.27 60.4102H1042.3V112.38H1094.27V60.4102Z" stroke="white" stroke-width="2" stroke-miterlimit="10"/>
<path d="M1088.53 66.1406H1048.03V106.641H1088.53V66.1406Z" stroke="white" stroke-width="2" stroke-miterlimit="10"/>
<path d="M766.333 629.879H645.562V750.649H766.333V629.879Z" stroke="white" stroke-width="2" stroke-miterlimit="10"/>
<path d="M760.605 635.609H651.305V744.909H760.605V635.609Z" stroke="white" stroke-width="2" stroke-miterlimit="10"/>
<path d="M754.871 641.34H657.031V739.18H754.871V641.34Z" stroke="white" stroke-width="2" stroke-miterlimit="10"/>
<path d="M749.136 647.078H662.766V733.448H749.136V647.078Z" stroke="white" stroke-width="2" stroke-miterlimit="10"/>
<path d="M743.4 652.809H668.5V727.709H743.4V652.809Z" stroke="white" stroke-width="2" stroke-miterlimit="10"/>
<path d="M737.674 658.539H674.234V721.979H737.674V658.539Z" stroke="white" stroke-width="2" stroke-miterlimit="10"/>
<path d="M731.931 664.281H679.961V716.251H731.931V664.281Z" stroke="white" stroke-width="2" stroke-miterlimit="10"/>
<path d="M726.203 670.008H685.703V710.508H726.203V670.008Z" stroke="white" stroke-width="2" stroke-miterlimit="10"/>
<path d="M1007.89 146.801H887.117V267.571H1007.89V146.801Z" stroke="white" stroke-width="2" stroke-miterlimit="10"/>
<path d="M892.852 152.531L996.362 159.521L993.823 263.031L890.312 256.051L892.852 152.531Z" stroke="white" stroke-width="2" stroke-miterlimit="10"/>
<path d="M898.58 158.27L984.85 172.23L979.76 258.5L893.5 244.53L898.58 158.27Z" stroke="white" stroke-width="2" stroke-miterlimit="10"/>
<path d="M904.315 164L973.335 184.95L965.705 253.96L896.695 233.01L904.315 164Z" stroke="white" stroke-width="2" stroke-miterlimit="10"/>
<path d="M910.053 169.73L961.813 197.66L951.643 249.42L899.883 221.49L910.053 169.73Z" stroke="white" stroke-width="2" stroke-miterlimit="10"/>
<path d="M915.786 175.469L950.296 210.379L937.586 244.889L903.086 209.969L915.786 175.469Z" stroke="white" stroke-width="2" stroke-miterlimit="10"/>
<path d="M921.513 181.199L938.773 223.099L923.523 240.349L906.273 198.449L921.513 181.199Z" stroke="white" stroke-width="2" stroke-miterlimit="10"/>
<path d="M927.251 186.93H909.461V235.81H927.251V186.93Z" stroke="white" stroke-width="2" stroke-miterlimit="10"/>
<path d="M585.179 484.107L499.781 569.504L585.179 654.901L670.576 569.504L585.179 484.107Z" stroke="white" stroke-width="2" stroke-miterlimit="10"/>
<path d="M585.177 492.209L507.891 569.496L585.177 646.783L662.464 569.496L585.177 492.209Z" stroke="white" stroke-width="2" stroke-miterlimit="10"/>
<path d="M585.183 500.321L516 569.504L585.183 638.687L654.367 569.504L585.183 500.321Z" stroke="white" stroke-width="2" stroke-miterlimit="10"/>
<path d="M585.182 508.431L524.109 569.504L585.182 630.577L646.255 569.504L585.182 508.431Z" stroke="white" stroke-width="2" stroke-miterlimit="10"/>
<path d="M585.181 516.534L532.219 569.496L585.181 622.458L638.143 569.496L585.181 516.534Z" stroke="white" stroke-width="2" stroke-miterlimit="10"/>
<path d="M585.187 524.645L540.328 569.504L585.187 614.363L630.046 569.504L585.187 524.645Z" stroke="white" stroke-width="2" stroke-miterlimit="10"/>
<path d="M585.178 532.756L548.43 569.504L585.178 606.252L621.926 569.504L585.178 532.756Z" stroke="white" stroke-width="2" stroke-miterlimit="10"/>
<path d="M585.177 540.858L556.539 569.496L585.177 598.134L613.815 569.496L585.177 540.858Z" stroke="white" stroke-width="2" stroke-miterlimit="10"/>
<path d="M283.247 146.789H162.477V267.559H283.247V146.789Z" stroke="white" stroke-width="2" stroke-miterlimit="10"/>
<path d="M171.12 151.322L167.023 258.934L274.635 263.03L278.732 155.418L171.12 151.322Z" stroke="white" stroke-width="2" stroke-miterlimit="10"/>
<path d="M181.313 155.438L172.781 250.238L267.581 258.77L276.113 163.97L181.313 155.438Z" stroke="white" stroke-width="2.00808" stroke-miterlimit="10"/>
<path d="M188.365 160.396L176.086 241.684L257.374 253.963L269.653 172.675L188.365 160.396Z" stroke="white" stroke-width="2" stroke-miterlimit="10"/>
<path d="M196.984 164.941L180.617 233.062L248.739 249.43L265.106 181.308L196.984 164.941Z" stroke="white" stroke-width="2" stroke-miterlimit="10"/>
<path d="M205.594 169.434L185.141 224.402L240.109 244.856L260.562 189.888L205.594 169.434Z" stroke="white" stroke-width="2" stroke-miterlimit="10"/>
<path d="M214.235 173.987L189.688 215.793L231.494 240.34L256.041 198.534L214.235 173.987Z" stroke="white" stroke-width="2" stroke-miterlimit="10"/>
<path d="M222.864 178.538L194.227 207.176L222.864 235.814L251.502 207.176L222.864 178.538Z" stroke="white" stroke-width="2" stroke-miterlimit="10"/>
<path d="M283.247 629.879H162.477V750.649H283.247V629.879Z" stroke="white" stroke-width="2" stroke-miterlimit="10"/>
<path d="M173.999 635.614L168.211 739.133L271.729 744.92L277.517 641.402L173.999 635.614Z" stroke="white" stroke-width="2" stroke-miterlimit="10"/>
<path d="M185.517 641.338L173.945 727.605L260.213 739.177L271.785 652.91L185.517 641.338Z" stroke="white" stroke-width="2" stroke-miterlimit="10"/>
<path d="M197.039 647.099L179.68 716.109L248.69 733.469L266.049 664.459L197.039 647.099Z" stroke="white" stroke-width="2" stroke-miterlimit="10"/>
<path d="M208.55 652.793L185.406 704.555L237.168 727.698L260.311 675.936L208.55 652.793Z" stroke="white" stroke-width="2" stroke-miterlimit="10"/>
<path d="M220.058 658.593L191.125 693.098L225.63 722.03L254.563 687.525L220.058 658.593Z" stroke="white" stroke-width="2" stroke-miterlimit="10"/>
<path d="M231.632 664.243L196.914 681.5L214.171 716.218L248.888 698.961L231.632 664.243Z" stroke="white" stroke-width="2" stroke-miterlimit="10"/>
<path d="M243.117 670.008H202.617V710.508H243.117V670.008Z" stroke="white" stroke-width="2" stroke-miterlimit="10"/>
<path d="M887.114 509.109H766.344V629.879H887.114V509.109Z" stroke="white" stroke-width="2" stroke-miterlimit="10"/>
<path d="M881.37 514.852H772.07V624.152H881.37V514.852Z" stroke="white" stroke-width="2" stroke-miterlimit="10"/>
<path d="M875.653 520.578H777.812V618.418H875.653V520.578Z" stroke="white" stroke-width="2" stroke-miterlimit="10"/>
<path d="M869.917 526.32H783.547V612.69H869.917V526.32Z" stroke="white" stroke-width="2" stroke-miterlimit="10"/>
<path d="M864.173 532.051H789.273V606.951H864.173V532.051Z" stroke="white" stroke-width="2" stroke-miterlimit="10"/>
<path d="M858.456 537.781H795.016V601.221H858.456V537.781Z" stroke="white" stroke-width="2" stroke-miterlimit="10"/>
<path d="M852.712 543.52H800.742V595.49H852.712V543.52Z" stroke="white" stroke-width="2" stroke-miterlimit="10"/>
<path d="M846.977 549.25H806.477V589.75H846.977V549.25Z" stroke="white" stroke-width="2" stroke-miterlimit="10"/>
<path d="M766.34 267.559C726.08 267.559 685.82 388.329 645.57 388.329V267.559C685.83 267.559 726.09 146.789 766.34 146.789V267.559Z" stroke="white" stroke-width="2" stroke-miterlimit="10"/>
<path d="M766.34 268.09C726.08 268.09 685.82 381.45 645.57 381.45V268.09C685.83 268.09 726.09 154.73 766.34 154.73V268.09Z" stroke="white" stroke-width="2" stroke-miterlimit="10"/>
<path d="M766.34 268.621C726.08 268.621 685.82 374.621 645.57 374.621V268.621C685.83 268.621 726.09 162.621 766.34 162.621V268.621Z" stroke="white" stroke-width="2" stroke-miterlimit="10"/>
<path d="M766.34 269.152C726.08 269.152 685.82 367.692 645.57 367.692V269.152C685.83 269.152 726.09 170.602 766.34 170.602V269.152Z" stroke="white" stroke-width="2" stroke-miterlimit="10"/>
<path d="M766.34 269.671C726.08 269.671 685.82 360.821 645.57 360.821V269.671C685.83 269.671 726.09 178.531 766.34 178.531V269.671Z" stroke="white" stroke-width="2" stroke-miterlimit="10"/>
<path d="M766.34 270.199C726.08 270.199 685.82 353.939 645.57 353.939V270.199C685.83 270.199 726.09 186.469 766.34 186.469V270.199Z" stroke="white" stroke-width="2" stroke-miterlimit="10"/>
<path d="M766.34 270.728C726.08 270.728 685.82 347.058 645.57 347.058V270.728C685.83 270.728 726.09 194.398 766.34 194.398V270.728Z" stroke="white" stroke-width="2" stroke-miterlimit="10"/>
<path d="M766.333 271.26C726.073 271.26 685.812 340.18 645.562 340.18V271.26C685.822 271.26 726.083 202.34 766.333 202.34V271.26Z" stroke="white" stroke-width="2" stroke-miterlimit="10"/>
<path d="M524.79 298.36C484.53 136.52 444.27 357.54 404 236.77V177.59C444.28 56.82 484.54 277.83 524.79 116V298.37V298.36Z" stroke="white" stroke-width="2" stroke-miterlimit="10"/>
<path d="M524.793 289.431C484.533 143.431 444.273 342.811 404.023 233.881V180.491C444.283 71.5614 484.543 270.911 524.793 124.941V289.431Z" stroke="white" stroke-width="2" stroke-miterlimit="10"/>
<path d="M524.79 280.501C484.53 150.371 444.27 328.071 404 231.001V183.391C444.26 86.2911 484.52 263.981 524.77 133.871L524.79 280.501Z" stroke="white" stroke-width="2" stroke-miterlimit="10"/>
<path d="M524.79 271.559C484.53 157.299 444.27 313.329 404 228.069V186.289C444.26 101.029 484.52 257.059 524.77 142.809L524.79 271.559Z" stroke="white" stroke-width="2" stroke-miterlimit="10"/>
<path d="M524.793 262.62C484.533 164.22 444.273 298.62 404.023 225.17V189.17C444.283 115.75 484.543 250.12 524.793 151.73V262.62Z" stroke="white" stroke-width="2" stroke-miterlimit="10"/>
<path d="M524.793 253.69C484.533 171.16 444.273 283.87 404.023 222.28V192.09C444.283 130.5 484.543 243.21 524.793 160.68V253.69Z" stroke="white" stroke-width="2" stroke-miterlimit="10"/>
<path d="M524.793 244.749C484.533 178.069 444.273 269.129 404.023 219.369V194.999C444.283 145.249 484.543 236.299 524.793 169.629V244.749Z" stroke="white" stroke-width="2" stroke-miterlimit="10"/>
<path d="M524.79 235.809C484.53 184.999 444.27 254.389 404 216.469V197.889C444.26 159.979 484.52 229.359 524.77 178.559V235.809H524.79Z" stroke="white" stroke-width="2" stroke-miterlimit="10"/>
<path d="M766.346 26H887.116V86.4C887.108 102.414 880.743 117.77 869.419 129.093C858.096 140.417 842.74 146.782 826.726 146.79C810.712 146.782 795.356 140.417 784.033 129.093C772.709 117.77 766.344 102.414 766.336 86.4V26H766.346Z" stroke="white" stroke-width="2" stroke-miterlimit="10"/>
<path d="M881.794 89.2913C881.794 119.931 857.124 144.801 826.724 144.801C796.334 144.801 771.664 119.931 771.664 89.2913V33.7812H881.794V89.2913Z" stroke="white" stroke-width="2" stroke-miterlimit="10"/>
<path d="M876.474 92.1786C876.474 120.119 854.184 142.809 826.724 142.809C799.274 142.809 776.984 120.119 776.984 92.1786V41.5586H876.474V92.1786Z" stroke="white" stroke-width="2" stroke-miterlimit="10"/>
<path d="M871.155 95.0781C871.155 120.318 851.245 140.818 826.725 140.818C802.215 140.818 782.305 120.318 782.305 95.0781V49.3281H871.155V95.0781Z" stroke="white" stroke-width="2" stroke-miterlimit="10"/>
<path d="M865.835 97.9994C865.835 120.549 848.305 138.859 826.725 138.859C805.145 138.859 787.625 120.549 787.625 97.9994V57.1094H865.835V97.9994Z" stroke="white" stroke-width="2" stroke-miterlimit="10"/>
<path d="M860.505 100.859C860.505 120.719 845.375 136.859 826.725 136.859C808.085 136.859 792.945 120.739 792.945 100.859V64.8594H860.505V100.859Z" stroke="white" stroke-width="2" stroke-miterlimit="10"/>
<path d="M855.183 103.75C855.183 120.91 842.433 134.85 826.723 134.85C811.023 134.85 798.273 120.91 798.273 103.75V72.6602H855.183V103.75Z" stroke="white" stroke-width="2" stroke-miterlimit="10"/>
<path d="M803.594 80.4297H849.864V106.65C849.864 121.11 839.494 132.86 826.724 132.86C813.954 132.86 803.594 121.11 803.594 106.65V80.4297Z" stroke="white" stroke-width="2" stroke-miterlimit="10"/>
<path d="M41.6953 509.109H84.2753C105.009 509.12 124.891 517.361 139.552 532.022C154.213 546.684 162.455 566.565 162.465 587.299V629.879H41.6953V509.109Z" stroke="white" stroke-width="2" stroke-miterlimit="10"/>
<path d="M158.006 589.252L149.376 625.752L45.8359 617.122V513.602H48.8359C52.0059 513.602 91.0059 516.112 91.0059 519.192C127.946 519.192 158.006 552.272 158.006 589.252Z" stroke="white" stroke-width="2" stroke-miterlimit="10"/>
<path d="M153.47 591.202L136.22 621.622L50 604.362V518.102H56C62.17 518.102 97.58 523.102 97.58 529.272C128.45 529.272 153.47 560.382 153.47 591.202Z" stroke="white" stroke-width="2" stroke-miterlimit="10"/>
<path d="M149.002 593.152L123.102 617.482L54.1016 591.602V522.602H63.2216C72.4716 522.602 104.312 530.112 104.312 539.362C129.002 539.352 149.002 568.502 149.002 593.152Z" stroke="white" stroke-width="2" stroke-miterlimit="10"/>
<path d="M144.492 595.1L110.002 613.35L58.2422 578.85V527.09H70.3922C82.7222 527.09 110.982 537.09 110.982 549.43C129.472 549.43 144.492 576.61 144.492 595.1Z" stroke="white" stroke-width="2" stroke-miterlimit="10"/>
<path d="M140.002 597.048L96.8616 609.218L62.3516 566.088V531.578H77.5616C92.9816 531.578 117.652 544.098 117.652 559.508C130.002 559.508 140.002 584.728 140.002 597.048Z" stroke="white" stroke-width="2" stroke-miterlimit="10"/>
<path d="M135.502 598.998L83.7422 605.078L66.4922 553.328V536.078H84.7322C103.232 536.078 124.332 551.078 124.332 569.588C130.492 569.588 135.502 592.838 135.502 598.998Z" stroke="white" stroke-width="2" stroke-miterlimit="10"/>
<path d="M70.625 540.57H91.915C102.282 540.576 112.224 544.697 119.553 552.029C126.883 559.361 131.002 569.303 131.005 579.67V601H70.625V540.57Z" stroke="white" stroke-width="2" stroke-miterlimit="10"/>
<path d="M288.547 509.109H331.127C351.861 509.12 371.743 517.361 386.404 532.022C401.065 546.684 409.306 566.565 409.317 587.299V629.879H288.547V509.109Z" stroke="white" stroke-width="2" stroke-miterlimit="10"/>
<path d="M398.637 590.739L394.707 619.559L298.867 615.629V512.109L300.257 514.819C301.657 517.559 337.067 520.929 334.327 522.339C371.317 522.339 398.637 553.759 398.637 590.739Z" stroke="white" stroke-width="2" stroke-miterlimit="10"/>
<path d="M388.004 594.191L380.144 609.191L309.234 601.331V515.121L312.004 520.531C314.814 526.021 343.054 532.751 337.574 535.531C368.344 535.561 388.004 563.361 388.004 594.191Z" stroke="white" stroke-width="2" stroke-miterlimit="10"/>
<path d="M377.277 597.629L365.477 598.919L319.477 587.129V518.129L323.637 526.249C327.847 534.479 348.917 544.579 340.637 548.799C365.377 548.789 377.277 572.999 377.277 597.629Z" stroke="white" stroke-width="2" stroke-miterlimit="10"/>
<path d="M366.597 601.071L350.867 588.611L329.867 572.881V521.121L335.367 532.001C340.987 543.001 354.887 556.451 343.917 562.071C362.417 562.001 366.597 582.581 366.597 601.071Z" stroke="white" stroke-width="2" stroke-miterlimit="10"/>
<path d="M355.91 604.511L336.25 578.291L340.13 558.631V524.121L347.07 537.661C354.07 551.381 360.82 568.221 347.07 575.241C359.44 575.241 355.91 592.191 355.91 604.511Z" stroke="white" stroke-width="2" stroke-miterlimit="10"/>
<path d="M345.231 607.999L321.641 567.999L350.451 544.409V527.129L358.771 543.369C367.201 559.829 366.771 580.039 350.301 588.469C356.471 588.469 345.231 601.789 345.231 607.999Z" stroke="white" stroke-width="2" stroke-miterlimit="10"/>
<path d="M360.77 530.129L370.48 549.129C375.198 558.36 376.058 569.088 372.87 578.953C369.682 588.818 362.708 597.014 353.48 601.739L334.53 611.449L307 557.649L360.75 530.129H360.77Z" stroke="white" stroke-width="2" stroke-miterlimit="10"/>
<path d="M1022.58 616.001C1006.07 579.331 989.585 701.471 973.065 643.731C949.318 580.931 925.565 518.128 901.805 455.321C965.805 231.391 1029.8 705.061 1093.8 562.861L1022.57 616.001H1022.58Z" stroke="white" stroke-width="2" stroke-miterlimit="10"/>
<path d="M1009 599.101L1012.26 596.671C998.11 565.241 983.97 669.931 969.82 620.441C950.17 568.291 930.57 508.871 911 457.681C966.95 268.611 1022.9 677.481 1078.86 558.471C1055.53 583.891 1032.25 577.421 1009 599.101Z" stroke="white" stroke-width="2" stroke-miterlimit="10"/>
<path d="M995.345 582.178L1001.86 577.318C990.075 551.128 978.285 638.318 966.495 597.128C951.005 555.618 935.585 499.588 920.125 459.998C968.015 305.798 1015.91 649.878 1063.81 553.998C1041.01 587.188 1018.17 556.528 995.345 582.178Z" stroke="white" stroke-width="2" stroke-miterlimit="10"/>
<path d="M981.721 565.259L991.501 557.999C982.071 536.999 972.641 606.839 963.201 573.849C951.901 542.989 940.591 490.349 929.281 462.379C969.111 343.029 1008.95 622.319 1048.78 549.679C1026.43 590.489 1004.08 535.629 981.721 565.259Z" stroke="white" stroke-width="2" stroke-miterlimit="10"/>
<path d="M968.101 548.341L981.101 538.621C974.021 522.911 966.951 575.251 959.881 550.511C952.721 530.301 945.561 481.041 938.391 464.691C970.171 380.201 1001.95 594.691 1033.72 545.241C1011.88 593.781 990.001 514.741 968.101 548.341Z" stroke="white" stroke-width="2" stroke-miterlimit="10"/>
<path d="M954.483 531.42L970.783 519.27C966.063 508.79 961.353 543.69 956.633 527.19C953.633 517.64 950.633 471.77 947.633 467.02C971.353 417.4 995.073 567.1 1018.79 540.83C997.333 597.08 975.913 493.85 954.483 531.42Z" stroke="white" stroke-width="2" stroke-miterlimit="10"/>
<path d="M940.875 514.501L960.425 499.921C958.065 494.681 955.705 512.131 953.345 503.921C954.485 505.011 955.615 462.531 956.755 469.401C972.415 454.641 988.075 539.541 1003.76 536.401C982.785 600.381 961.825 473.001 940.875 514.501Z" stroke="white" stroke-width="2" stroke-miterlimit="10"/>
<path d="M950.05 480.57C955.34 492.31 960.62 453.22 965.9 471.7C973.513 491.8 981.117 511.9 988.71 532C968.22 603.68 947.71 452.07 927.25 497.58L950.06 480.58L950.05 480.57Z" stroke="white" stroke-width="2" stroke-miterlimit="10"/>
</svg>
