<svg width="1130" height="752" viewBox="0 0 1130 752" fill="none" xmlns="http://www.w3.org/2000/svg">
<path d="M162.465 86.3967C162.465 53.047 135.43 26.0117 102.08 26.0117C68.7306 26.0117 41.6953 53.047 41.6953 86.3967C41.6953 119.746 68.7306 146.782 102.08 146.782C135.43 146.782 162.465 119.746 162.465 86.3967Z" stroke="white" stroke-width="2" stroke-miterlimit="10"/>
<path d="M404.014 146.79C370.664 113.44 316.594 113.44 283.244 146.79C254.774 118.32 226.314 89.86 197.844 61.39C278.364 -19.13 408.904 -19.13 489.414 61.39C460.944 89.86 432.484 118.32 404.014 146.79Z" stroke="white" stroke-width="2" stroke-miterlimit="10"/>
<path d="M524.793 26.0117H645.563V77.8817C645.563 115.912 614.693 146.782 576.663 146.782H524.793V26.0117Z" stroke="white" stroke-width="2" stroke-miterlimit="10"/>
<path d="M766.333 86.3967C766.333 53.047 739.297 26.0117 705.948 26.0117C672.598 26.0117 645.562 53.047 645.562 86.3967C645.562 119.746 672.598 146.782 705.948 146.782C739.297 146.782 766.333 119.746 766.333 86.3967Z" stroke="white" stroke-width="2" stroke-miterlimit="10"/>
<path d="M766.342 26.0117H887.112V86.4017C887.112 119.732 860.052 146.792 826.722 146.792C793.392 146.792 766.332 119.732 766.332 86.4017V26.0117H766.342Z" stroke="white" stroke-width="2" stroke-miterlimit="10"/>
<path d="M1007.88 86.3967C1007.88 53.047 980.848 26.0117 947.498 26.0117C914.149 26.0117 887.113 53.047 887.113 86.3967C887.113 119.746 914.149 146.782 947.498 146.782C980.848 146.782 1007.88 119.746 1007.88 86.3967Z" stroke="white" stroke-width="2" stroke-miterlimit="10"/>
<path d="M1128.66 26.0117H1007.89V146.782H1128.66V26.0117Z" stroke="white" stroke-width="2" stroke-miterlimit="10"/>
<path d="M162.465 146.789H41.6953V267.559H162.465V146.789Z" stroke="white" stroke-width="2" stroke-miterlimit="10"/>
<path d="M283.243 146.789H162.473V267.559H283.243V146.789Z" stroke="white" stroke-width="2" stroke-miterlimit="10"/>
<path d="M404.012 146.789H283.242V267.559H404.012V146.789Z" stroke="white" stroke-width="2" stroke-miterlimit="10"/>
<path d="M524.793 298.36C484.533 136.52 444.273 357.54 404.023 236.77V177.59C444.283 56.82 484.543 277.83 524.793 116V298.37V298.36Z" stroke="white" stroke-width="2" stroke-miterlimit="10"/>
<path d="M766.344 267.559C726.084 267.559 685.824 388.329 645.574 388.329V267.559C685.834 267.559 726.094 146.789 766.344 146.789V267.559Z" stroke="white" stroke-width="2" stroke-miterlimit="10"/>
<path d="M887.114 207.174C887.114 173.824 860.078 146.789 826.729 146.789C793.379 146.789 766.344 173.824 766.344 207.174C766.344 240.524 793.379 267.559 826.729 267.559C860.078 267.559 887.114 240.524 887.114 207.174Z" stroke="white" stroke-width="2" stroke-miterlimit="10"/>
<path d="M1007.88 146.789H887.113V267.559H1007.88V146.789Z" stroke="white" stroke-width="2" stroke-miterlimit="10"/>
<path d="M1128.66 207.174C1128.66 173.824 1101.63 146.789 1068.28 146.789C1034.93 146.789 1007.89 173.824 1007.89 207.174C1007.89 240.524 1034.93 267.559 1068.28 267.559C1101.63 267.559 1128.66 240.524 1128.66 207.174Z" stroke="white" stroke-width="2" stroke-miterlimit="10"/>
<path d="M126.844 374.469C110.584 384.929 94.0737 391.739 77.3237 402.199C53.5737 357.129 -18.5963 276.109 6.06369 213.789C59.1037 305.049 143.184 331.439 198.094 321.329C191.884 317.709 150.594 339.019 126.834 374.469H126.844Z" stroke="white" stroke-width="2" stroke-miterlimit="10"/>
<path d="M283.243 387.731C242.983 350.291 202.723 350.691 162.473 388.941C200.693 348.281 200.693 307.621 162.473 266.961C202.733 305.201 242.993 305.611 283.243 268.171C245.783 308.031 245.783 347.881 283.243 387.741V387.731Z" stroke="white" stroke-width="2" stroke-miterlimit="10"/>
<path d="M404.014 267.561H524.784V388.331H477.554C436.964 388.331 404.004 355.371 404.004 314.781V267.551L404.014 267.561Z" stroke="white" stroke-width="2" stroke-miterlimit="10"/>
<path d="M645.563 388.34C612.213 421.69 558.143 421.69 524.793 388.34V267.57H645.563V388.34Z" stroke="white" stroke-width="2" stroke-miterlimit="10"/>
<path d="M976.166 397.172C954.746 369.072 920.836 366.722 898.716 379.512C856.206 359.322 824.416 341.712 787.266 339.752C886.026 310.052 986.146 300.962 1087.63 271.262C1050.48 324.532 1038.34 377.112 976.176 397.172H976.166Z" stroke="white" stroke-width="2" stroke-miterlimit="10"/>
<path d="M162.473 388.34H283.243V509.11H255.373C204.103 509.11 162.473 467.48 162.473 416.21V388.34Z" stroke="white" stroke-width="2" stroke-miterlimit="10"/>
<path d="M404.012 448.725C404.012 415.375 376.977 388.34 343.627 388.34C310.277 388.34 283.242 415.375 283.242 448.725C283.242 482.075 310.277 509.11 343.627 509.11C376.977 509.11 404.012 482.075 404.012 448.725Z" stroke="white" stroke-width="2" stroke-miterlimit="10"/>
<path d="M645.562 388.34H766.333V509.11H712.143C675.393 509.11 645.562 479.28 645.562 442.53V388.34Z" stroke="white" stroke-width="2" stroke-miterlimit="10"/>
<path d="M887.114 448.725C887.114 415.375 860.078 388.34 826.729 388.34C793.379 388.34 766.344 415.375 766.344 448.725C766.344 482.075 793.379 509.11 826.729 509.11C860.078 509.11 887.114 482.075 887.114 448.725Z" stroke="white" stroke-width="2" stroke-miterlimit="10"/>
<path d="M41.6953 509.109H84.2753C127.435 509.109 162.465 544.149 162.465 587.299V629.879H41.6953V509.109Z" stroke="white" stroke-width="2" stroke-miterlimit="10"/>
<path d="M283.243 569.494C283.243 536.145 256.207 509.109 222.858 509.109C189.508 509.109 162.473 536.145 162.473 569.494C162.473 602.844 189.508 629.879 222.858 629.879C256.207 629.879 283.243 602.844 283.243 569.494Z" stroke="white" stroke-width="2" stroke-miterlimit="10"/>
<path d="M283.242 509.109H325.052C368.632 509.109 404.022 544.489 404.022 588.079V629.889H283.252V509.119L283.242 509.109Z" stroke="white" stroke-width="2" stroke-miterlimit="10"/>
<path d="M524.786 569.494C524.786 536.145 497.75 509.109 464.401 509.109C431.051 509.109 404.016 536.145 404.016 569.494C404.016 602.844 431.051 629.879 464.401 629.879C497.75 629.879 524.786 602.844 524.786 569.494Z" stroke="white" stroke-width="2" stroke-miterlimit="10"/>
<path d="M645.563 509.109H524.793V629.879H645.563V509.109Z" stroke="white" stroke-width="2" stroke-miterlimit="10"/>
<path d="M766.333 569.494C766.333 536.145 739.297 509.109 705.948 509.109C672.598 509.109 645.562 536.145 645.562 569.494C645.562 602.844 672.598 629.879 705.948 629.879C739.297 629.879 766.333 602.844 766.333 569.494Z" stroke="white" stroke-width="2" stroke-miterlimit="10"/>
<path d="M887.114 509.109H766.344V629.879H887.114V509.109Z" stroke="white" stroke-width="2" stroke-miterlimit="10"/>
<path d="M1022.58 616.021C1006.07 579.351 989.575 701.491 973.065 643.751C949.315 580.951 925.565 518.141 901.805 455.341C965.815 231.411 1029.82 705.081 1093.83 562.881C1070.08 580.591 1046.33 598.311 1022.57 616.021H1022.58Z" stroke="white" stroke-width="2" stroke-miterlimit="10"/>
<path d="M1128.66 407.307C1128.66 373.957 1101.63 346.922 1068.28 346.922C1034.93 346.922 1007.89 373.957 1007.89 407.307C1007.89 440.657 1034.93 467.692 1068.28 467.692C1101.63 467.692 1128.66 440.657 1128.66 407.307Z" stroke="white" stroke-width="2" stroke-miterlimit="10"/>
<path d="M162.465 690.264C162.465 656.914 135.43 629.879 102.08 629.879C68.7306 629.879 41.6953 656.914 41.6953 690.264C41.6953 723.614 68.7306 750.649 102.08 750.649C135.43 750.649 162.465 723.614 162.465 690.264Z" stroke="white" stroke-width="2" stroke-miterlimit="10"/>
<path d="M283.243 629.879H162.473V750.649H283.243V629.879Z" stroke="white" stroke-width="2" stroke-miterlimit="10"/>
<path d="M508.533 629.881H524.793V750.651H404.023V734.391C404.023 676.711 450.853 629.871 508.543 629.871L508.533 629.881Z" stroke="white" stroke-width="2" stroke-miterlimit="10"/>
<path d="M645.563 690.264C645.563 656.914 618.528 629.879 585.178 629.879C551.828 629.879 524.793 656.914 524.793 690.264C524.793 723.614 551.828 750.649 585.178 750.649C618.528 750.649 645.563 723.614 645.563 690.264Z" stroke="white" stroke-width="2" stroke-miterlimit="10"/>
<path d="M766.333 629.879H645.562V750.649H766.333V629.879Z" stroke="white" stroke-width="2" stroke-miterlimit="10"/>
<path d="M887.113 629.879H917.303C967.293 629.879 1007.88 670.469 1007.88 720.459V750.649H887.113V629.879Z" stroke="white" stroke-width="2" stroke-miterlimit="10"/>
</svg>
