<svg width="1007" height="92" viewBox="0 0 1007 92" fill="none" xmlns="http://www.w3.org/2000/svg">
<g clip-path="url(#clip0_1223_16333)">
<path d="M85.4806 13.8398L56.9824 90.4342H74.5061L103.573 13.8398H85.4806ZM50.4265 75.147L28.2993 13.8398H10.207L39.2738 90.4342H55.9412L51.8651 79.134L50.4265 75.147Z" fill="white"/>
<path d="M170.208 45.0007C167.495 42.742 164.48 40.8277 161.22 39.3127C155.828 36.7993 149.786 35.3945 143.395 35.3945C120.493 35.3945 102.113 53.4293 102.113 75.575C102.113 80.8291 103.148 85.8422 105.032 90.4353H121.932C121.541 89.8775 121.171 89.3128 120.829 88.7206C118.568 84.8713 117.287 80.3678 117.287 75.575C117.287 61.2037 128.515 49.6212 143.395 49.6212C146.744 49.6212 149.909 50.2066 152.807 51.2877C154.945 52.0796 156.931 53.1332 158.733 54.414C165.344 59.1103 169.509 66.8297 169.509 75.575C169.509 81.0977 167.81 86.2279 164.864 90.4353H181.764C183.648 85.8422 184.683 80.8291 184.683 75.575C184.683 63.3522 179.086 52.3826 170.208 45.0007Z" fill="white"/>
<path d="M238.954 35.7458C238.022 35.8766 237.104 36.0419 236.214 36.2347C230.103 37.5362 225.02 40.0703 221.245 43.3274C218.909 45.3313 217.073 47.6175 215.813 50.0552C215.457 50.73 215.148 51.4186 214.881 52.1141V37.4467H199.125V90.4354H214.881V75.4305C215.169 59.2963 226.692 48.2992 245.804 48.2992V35.25C243.414 35.25 241.126 35.4222 238.954 35.7458Z" fill="white"/>
<path d="M337.998 37.5918L324.139 81.4426L318.994 69.3712L317.343 65.4874L304.156 34.5137L302.334 39.1549L300.902 42.7977L285.776 81.2911L281.364 68.4554L279.987 64.4614L270.746 37.5918H254.264L273.103 90.4358H295.223L300.662 77.0492L302.121 73.4547L304.005 68.8272L313.103 90.4358H335.648L354.487 37.5918H337.998Z" fill="white"/>
<path d="M439.679 71.9047C439.679 60.6115 434.863 49.3734 426.046 42.4184C423.84 40.6693 421.388 39.1957 418.689 38.0595C414.674 36.3517 410.133 35.3945 405.104 35.3945C381.765 35.3945 364.398 52.6993 364.398 75.4304C364.398 80.7052 365.282 85.7803 367.002 90.4353H383.546C383.244 89.9808 382.97 89.5194 382.703 89.0443C381.018 86.035 379.942 82.6884 379.428 79.2384H439.679V71.9047ZM423.923 66.9192H380.155C380.381 65.4249 380.908 63.4761 381.847 61.4103C382.251 60.5082 382.737 59.5786 383.313 58.6558C386.574 53.4155 392.623 48.2991 403.063 48.2991C405.7 48.2991 408.009 48.6228 410.037 49.2012C411.681 49.6626 413.14 50.2892 414.428 51.0398C421.477 55.1164 423.512 62.76 423.923 66.9192Z" fill="white"/>
<path d="M493.95 35.7458C493.018 35.8766 492.1 36.0419 491.21 36.2347C485.092 37.5362 480.016 40.0703 476.241 43.3274C473.899 45.3313 472.063 47.6244 470.795 50.062C470.439 50.7369 470.131 51.4186 469.87 52.1141V37.4467H454.121V90.4354H469.87V75.4305C470.165 59.2963 481.688 48.2992 500.801 48.2992V35.25C498.41 35.25 496.122 35.4222 493.95 35.7458Z" fill="white"/>
<path d="M578.841 37.5918H558.42L526.619 64.2824V11.1973L519.769 12.3472L517.029 12.8086L510.863 13.8415V90.4358H526.619V81.5872L531.038 77.7929L533.121 76.0025L533.621 75.5756L545.712 90.4358H565.633L545.294 65.8937L578.841 37.5918Z" fill="white"/>
<path d="M578.844 62.6699H633.114V77.6266H578.844V62.6699Z" fill="white"/>
<path d="M706.234 64.7507C703.959 63.0292 701.315 61.4247 698.307 59.8616C695.006 58.1469 691.265 56.4805 687.086 54.7521C678.811 51.3159 673.139 48.9402 670.015 45.5591C668.837 44.292 668.021 42.8873 667.556 41.2277C667.247 40.1328 667.097 38.9346 667.097 37.5919C667.097 30.265 674.248 26.3055 685.045 26.154C691.176 26.154 696.972 27.5175 701.897 29.7141C702.726 30.0791 703.534 30.4716 704.309 30.8917C706.788 32.2069 708.994 33.7356 710.837 35.4021C710.947 35.4916 711.056 35.5949 711.159 35.6913V18.5311C708.981 17.0574 706.699 15.756 704.309 14.668C703.411 14.2617 702.5 13.8829 701.568 13.5318C696.876 11.7689 691.841 10.8186 686.504 10.9081C665.637 10.9081 650.758 21.9053 650.758 37.5919C650.758 43.7343 651.95 48.5683 654.355 52.6105C655.896 55.2203 657.951 57.5065 660.513 59.5999C665.247 63.4699 671.714 66.6995 679.934 70.1494C683.058 71.444 685.846 72.6353 688.278 73.806C690.059 74.6598 691.656 75.493 693.053 76.34C697.965 79.3217 700.507 82.4618 700.507 87.0135C700.507 88.2117 700.383 89.3548 700.116 90.4359H716.64C716.777 89.3617 716.845 88.2737 716.845 87.1581C716.845 76.7394 713.31 70.1356 706.234 64.7507ZM646.531 90.4359H648.36C647.737 89.9952 647.127 89.5338 646.531 89.0656V90.4359Z" fill="white"/>
<path d="M758.566 35.5396V11.3418L751.716 17.016L748.975 19.2884L723.752 40.1809L720.429 42.9353L713.777 48.4442H742.81V90.4358H758.566V48.4442H784.386V35.5396H758.566Z" fill="white"/>
<path d="M794.887 37.4458V90.4345H810.644V37.4458H794.887ZM804.053 8.91659C803.41 8.77887 802.738 8.70312 802.039 8.70312C801.759 8.70312 801.478 8.7169 801.204 8.74444C796.641 9.15761 793.141 12.9519 793.141 17.7928C793.141 18.0132 793.147 18.2335 793.168 18.447C793.23 19.4317 793.456 20.3613 793.805 21.229C795.127 24.4792 798.292 26.7379 802.039 26.7379C807.143 26.7379 811.082 22.7784 811.082 17.7928C811.082 13.365 808.143 9.8049 804.053 8.91659Z" fill="white"/>
<path d="M886.656 11.0594C885.827 10.6807 884.923 10.3157 883.916 9.9852C880.894 8.97983 877.038 8.26367 872.208 8.26367C853.383 8.26367 840.113 22.0497 840.113 46.2475H824.062V59.1521H840.113V90.4357H855.869V59.1521H889.855V46.2475H855.869C855.869 44.2712 855.952 42.4326 856.123 40.7386C856.219 39.7746 856.335 38.8587 856.486 37.9842C858.411 26.5394 864.755 22.3458 874.393 22.3458C878.154 22.3458 881.477 23.1721 884.251 24.2877C885.108 24.6251 885.909 24.9969 886.656 25.3826C891.013 27.6137 893.506 30.2648 893.506 30.2648V16.1827C893.506 16.1827 891.622 13.3387 886.656 11.0594Z" fill="white"/>
<path d="M938.144 35.5396V11.3418L931.294 17.016L928.553 19.2884L903.33 40.1809L900.007 42.9353L893.355 48.4442H922.388V90.4358H938.144V48.4442H963.964V35.5396H938.144Z" fill="white"/>
<path d="M999.505 43.9549C998.471 43.5487 997.375 43.2939 996.224 43.2112C995.929 43.1837 995.628 43.1699 995.327 43.1699C988.62 43.1699 983.66 48.4447 983.66 54.897C983.66 55.9643 983.783 56.9835 984.016 57.9475C984.284 59.0424 984.695 60.0685 985.229 60.9981C987.202 64.4411 990.881 66.6309 995.327 66.6309C1001.75 66.6309 1007 61.6454 1007 54.897C1007 49.9183 1003.88 45.6489 999.505 43.9549Z" fill="white"/>
<path d="M76.3149 5.57812L50.4267 75.1486L48.2551 80.9811L24.0179 13.8415L21.038 5.57812H0L32.2043 90.4358H35.1295L3.97331 8.33257H19.1198L21.1065 13.8415L48.214 88.9484L51.8653 79.1356L78.2125 8.33257H93.3658L91.2764 13.8415L62.2096 90.4358H65.1348L94.2016 13.8415L97.3391 5.57812H76.3149Z" fill="#4B107A"/>
<path d="M158.734 54.4137C153.966 46.5291 145.293 41.3576 135.175 41.3576C119.768 41.3576 107.697 53.3601 107.697 68.6886C107.697 77.6819 111.897 85.5183 118.501 90.435H123.728C122.714 89.9254 121.748 89.3538 120.83 88.7203C114.5 84.3338 110.438 77.0621 110.438 68.6886C110.438 54.9026 121.303 44.112 135.175 44.112C142.142 44.112 148.348 46.832 152.808 51.2874C157.22 55.7014 159.919 61.8231 159.919 68.6886C159.919 78.281 154.589 86.4203 146.629 90.435H151.856C158.46 85.5183 162.659 77.6819 162.659 68.6886C162.659 63.4207 161.234 58.5453 158.734 54.4137ZM158.734 54.4137C153.966 46.5291 145.293 41.3576 135.175 41.3576C119.768 41.3576 107.697 53.3601 107.697 68.6886C107.697 77.6819 111.897 85.5183 118.501 90.435H123.728C122.714 89.9254 121.748 89.3538 120.83 88.7203C114.5 84.3338 110.438 77.0621 110.438 68.6886C110.438 54.9026 121.303 44.112 135.175 44.112C142.142 44.112 148.348 46.832 152.808 51.2874C157.22 55.7014 159.919 61.8231 159.919 68.6886C159.919 78.281 154.589 86.4203 146.629 90.435H151.856C158.46 85.5183 162.659 77.6819 162.659 68.6886C162.659 63.4207 161.234 58.5453 158.734 54.4137ZM170.208 45.0003C162.495 34.2098 149.671 27.1309 135.175 27.1309C111.657 27.1309 92.5234 45.7716 92.5234 68.6886C92.5234 76.6627 94.8526 84.1135 98.8944 90.435H102.196C97.8189 84.2374 95.2636 76.7522 95.2636 68.6886C95.2636 47.2934 113.171 29.8853 135.175 29.8853C145.122 29.8853 154.226 33.4385 161.221 39.3124C169.708 46.4327 175.093 56.9615 175.093 68.6886C175.093 76.7522 172.531 84.2374 168.153 90.435H171.462C175.504 84.1135 177.833 76.6627 177.833 68.6886C177.833 59.895 175.017 51.7212 170.208 45.0003ZM135.175 41.3576C119.768 41.3576 107.697 53.3601 107.697 68.6886C107.697 77.6819 111.897 85.5183 118.501 90.435H123.728C122.714 89.9254 121.748 89.3538 120.83 88.7203C114.5 84.3338 110.438 77.0621 110.438 68.6886C110.438 54.9026 121.303 44.112 135.175 44.112C142.142 44.112 148.348 46.832 152.808 51.2874C157.22 55.7014 159.919 61.8231 159.919 68.6886C159.919 78.281 154.589 86.4203 146.629 90.435H151.856C158.46 85.5183 162.659 77.6819 162.659 68.6886C162.659 63.4207 161.234 58.5453 158.734 54.4137C153.966 46.5291 145.293 41.3576 135.175 41.3576Z" fill="#4B107A"/>
<path d="M237.583 26.9863C225.951 26.9863 215.928 30.9183 209.927 37.4463C209.242 38.19 208.605 38.9751 208.03 39.7876V29.183H189.533V90.435H192.273V31.9374H205.289V52.706L207.941 45.7166C209.023 42.8451 211.071 39.9598 214.01 37.4463C218.977 33.2114 226.478 30.03 236.213 29.7545V40.0562C230.582 40.2146 225.54 41.3508 221.244 43.3271C218.888 44.4013 216.757 45.7372 214.88 47.3073C208.913 52.279 205.447 59.5921 205.289 68.5441V90.435H208.03V68.5647C208.153 61.3205 210.578 55.3227 214.88 50.95C215.182 50.6401 215.49 50.3372 215.812 50.0548C220.936 45.3792 228.389 42.79 237.583 42.79H238.953V26.9863H237.583Z" fill="#4B107A"/>
<path d="M328.777 29.3278L317.343 65.4868L315.727 70.6101L302.334 39.1543L295.881 24.0117L279.988 64.4608L277.638 70.4379L266.348 37.5911L263.505 29.3278H244.098L265.889 90.4352H268.794L247.989 32.0823H261.553L263.444 37.5911L277.467 78.3707L281.365 68.4547L295.984 31.249L300.902 42.7971L316.11 78.5016L318.994 69.3706L330.784 32.0823H344.314L342.348 37.5911L323.509 90.4352H326.42L345.266 37.5911L348.212 29.3278H328.777ZM295.764 58.3528L282.721 90.4352H285.687L295.812 65.5281L300.662 77.0486L306.294 90.4352H309.274L302.122 73.4541L295.764 58.3528Z" fill="#4B107A"/>
<path d="M417.066 59.895C416.929 58.5178 416.395 54.8544 414.429 51.0395C411.675 45.6821 406.098 40.0354 394.843 40.0354C377.991 40.0354 371.606 52.9813 370.579 59.833L370.346 61.41H417.217L417.066 59.895ZM373.634 58.6555C374.778 54.3379 379.286 42.7899 394.843 42.7899C402.543 42.7899 407.215 45.6889 410.038 49.2009C412.661 52.4373 413.716 56.1903 414.134 58.6555H373.634ZM428.102 85.3461C427.705 85.3461 427.465 85.4976 427.13 85.6973C425.246 86.8611 421.656 88.8029 416.6 90.435H424.109C425.102 89.9736 425.979 89.5191 426.732 89.1059V90.435H429.472V85.3461H428.102ZM432.829 65.0183C432.829 57.1612 430.521 49.0838 426.047 42.418C420.074 33.5143 410.236 27.1309 396.885 27.1309C372.901 27.1309 354.809 44.9315 354.809 68.544C354.809 76.8142 356.829 84.2306 360.488 90.435H363.776C359.782 84.3614 357.549 76.9175 357.549 68.544C357.549 46.5015 374.463 29.8853 396.885 29.8853C405.948 29.8853 413.257 33.0805 418.69 38.0591C426.177 44.9108 430.089 55.1436 430.089 65.0183V70.9748H369.619L369.852 72.5586C371.01 80.2986 374.497 86.3997 379.82 90.435H385.136C384.286 90.0218 383.478 89.5535 382.704 89.044C377.641 85.6973 374.202 80.4707 372.839 73.7292H432.829V65.0183ZM417.066 59.895C416.929 58.5178 416.395 54.8544 414.429 51.0395C411.675 45.6821 406.098 40.0354 394.843 40.0354C377.991 40.0354 371.606 52.9813 370.579 59.833L370.346 61.41H417.217L417.066 59.895ZM373.634 58.6555C374.778 54.3379 379.286 42.7899 394.843 42.7899C402.543 42.7899 407.215 45.6889 410.038 49.2009C412.661 52.4373 413.716 56.1903 414.134 58.6555H373.634ZM417.066 59.895C416.929 58.5178 416.395 54.8544 414.429 51.0395C411.675 45.6821 406.098 40.0354 394.843 40.0354C377.991 40.0354 371.606 52.9813 370.579 59.833L370.346 61.41H417.217L417.066 59.895ZM373.634 58.6555C374.778 54.3379 379.286 42.7899 394.843 42.7899C402.543 42.7899 407.215 45.6889 410.038 49.2009C412.661 52.4373 413.716 56.1903 414.134 58.6555H373.634Z" fill="#4B107A"/>
<path d="M492.581 26.9863C480.949 26.9863 470.926 30.9183 464.925 37.4463C464.233 38.19 463.596 38.9751 463.021 39.7876V29.183H444.531V90.435H447.271V31.9374H460.281V52.706L462.932 45.7166C464.021 42.8451 466.069 39.9598 469.008 37.4463C473.968 33.2114 481.469 30.03 491.211 29.7545V40.0562C485.573 40.2146 480.531 41.3508 476.242 43.3271C473.886 44.4013 471.755 45.7441 469.871 47.3073C463.905 52.2859 460.445 59.5921 460.281 68.5441V90.435H463.021V68.5647C463.151 61.3274 465.576 55.3296 469.871 50.9569C470.166 50.647 470.474 50.3509 470.796 50.0617C475.92 45.386 483.381 42.79 492.581 42.79H493.951V26.9863H492.581Z" fill="#4B107A"/>
<path d="M564.593 37.5913L574.389 29.3279H549.707L526.62 48.7055L519.77 54.4554V2.68555L501.273 5.7843V90.4354H504.014V8.11869L517.03 5.9358V60.343L526.62 52.2932L550.7 32.0824H566.86L560.332 37.5913L535.142 58.835L561.339 90.4354H564.908L538.999 59.1793L564.593 37.5913ZM525.579 66.7265L517.03 74.0671V90.4354H519.77V75.3341L525.23 70.6515L531.039 77.7924L541.322 90.4354H544.863L533.122 76.0021L525.579 66.7265Z" fill="#4B107A"/>
<path d="M626.26 72.1173H569.25V54.4062H626.26V72.1173ZM571.99 69.3629H623.52V57.1607H571.99V69.3629Z" fill="#4B107A"/>
<path d="M706.234 64.7507C701.638 57.1071 692.773 52.1285 679.387 46.592C674.338 44.4918 670.461 42.8391 667.556 41.2277C662.288 38.3149 660.247 35.5742 660.247 30.7057C660.247 24.5496 666.453 20.7897 676.825 20.6451C686.224 20.6451 695.808 24.1157 701.898 29.7141C701.939 29.7417 701.973 29.7761 702.008 29.8106L704.309 31.9521V10.915L703.7 10.5019C695.787 5.14448 687.231 2.49332 678.284 2.64482C656.431 2.64482 641.168 14.186 641.168 30.7057C641.168 45.2355 647.443 52.762 660.514 59.5999C663.672 61.2595 667.234 62.8708 671.194 64.5373C679.641 68.0423 685.272 70.6728 688.279 73.806C690.054 75.6446 690.917 77.6553 690.917 80.1274C690.917 85.0235 688.54 88.4734 683.813 90.4359H689.156C692.636 87.5093 693.657 83.6462 693.657 80.1274C693.657 78.7571 693.451 77.5038 693.054 76.3401C690.951 70.1976 683.45 66.6375 672.249 61.9894C664.727 58.8355 658.801 55.9296 654.355 52.6105C647.224 47.3013 643.908 40.9179 643.908 30.7057C643.908 15.8042 658.048 5.39926 678.305 5.39926C686.484 5.26154 694.294 7.61659 701.569 12.3818V25.851C694.993 20.8311 685.971 17.8907 676.805 17.8907C664.72 18.0559 657.507 22.8487 657.507 30.7057C657.507 38.5628 661.884 41.7855 670.016 45.5591C672.461 46.6953 675.243 47.8522 678.346 49.1399C687.032 52.7344 693.629 55.9847 698.308 59.8616C704.405 64.9022 707.255 70.9964 707.255 80.272C707.255 83.9423 706.481 87.351 705.036 90.4359H708.05C709.324 87.3165 709.995 83.9079 709.995 80.272C709.995 73.9368 708.755 68.9444 706.234 64.7507ZM636.941 79.3424V90.4359H639.682V84.9202C642.73 87.0686 646.066 88.921 649.56 90.4359H657.74C650.985 88.5423 644.511 85.3333 639.154 81.0984L636.941 79.3424Z" fill="#4B107A"/>
<path d="M751.717 27.2755V1.53516L711.162 35.1325L710.84 35.4011L701.742 42.9345H733.22V90.435H735.961V40.1801H709.381L748.977 7.37458V30.0299H774.796V40.1801H748.977V90.435H751.717V42.9345H777.536V27.2755H751.717Z" fill="#4B107A"/>
<path d="M804.054 8.91822C803.15 4.03596 798.978 0.441406 793.82 0.441406C788.058 0.441406 783.551 5.04133 783.551 10.9083C783.551 16.7753 788.052 21.2237 793.806 21.2306H793.82C799.656 21.2306 804.232 16.6995 804.232 10.9083C804.232 10.2266 804.171 9.55863 804.054 8.91822ZM793.82 18.4762C793.6 18.4762 793.381 18.4693 793.169 18.4486C789.264 18.125 786.291 14.9367 786.291 10.9083C786.291 6.58382 789.6 3.19585 793.82 3.19585C797.444 3.19585 800.321 5.46827 801.205 8.74607C801.396 9.42779 801.492 10.1508 801.492 10.9083C801.492 15.157 798.122 18.4762 793.82 18.4762ZM785.298 29.1841V90.4361H788.038V31.9385H801.054V90.4361H803.794V29.1841H785.298Z" fill="#4B107A"/>
<path d="M886.424 8.5319C886.191 8.1876 880.573 0 863.988 0C844.046 0 831.03 14.8602 830.537 37.9838H814.473V53.6429H830.523V90.4354H833.264V50.8884H817.213V40.7383H833.264V39.3611C833.264 16.7815 845.033 2.75445 863.988 2.75445C877.244 2.75445 882.772 8.40795 883.916 9.7714V20.3416C880.731 17.8626 874.504 14.0821 866.174 14.0821C852.596 14.0821 846.28 22.1113 846.28 39.3611V40.7383H880.265V50.8884H846.28V90.4354H849.02V53.6429H883.005V37.9838H849.034C849.445 19.2742 858.371 16.8366 866.174 16.8366C876.703 16.8366 883.725 23.7433 884.252 24.2873C884.273 24.308 884.286 24.3218 884.286 24.3218L886.657 26.8421V8.88309L886.424 8.5319Z" fill="#4B107A"/>
<path d="M931.295 27.2755V1.53516L883.006 41.5366L881.32 42.9345H912.798V90.435H915.539V40.1801H888.952L928.555 7.37458V30.0299H954.374V40.1801H928.555V90.435H931.295V42.9345H957.115V27.2755H931.295Z" fill="#4B107A"/>
<path d="M999.506 43.9546C997.807 38.7074 992.889 34.9062 987.107 34.9062C979.797 34.9062 974.07 40.663 974.07 48.0105C974.07 54.8416 978.749 60.137 985.23 60.9978C985.84 61.0804 986.463 61.1217 987.107 61.1217C994.423 61.1217 1000.15 55.3649 1000.15 48.0105C1000.15 46.592 999.924 45.2285 999.506 43.9546ZM987.107 58.3673C986.018 58.3673 984.983 58.2227 984.017 57.9472C979.701 56.7215 976.811 52.9135 976.811 48.0105C976.811 42.2055 981.332 37.6607 987.107 37.6607C991.066 37.6607 994.505 39.9125 996.225 43.2109C996.985 44.6432 997.41 46.2752 997.41 48.0105C997.41 53.8155 992.882 58.3673 987.107 58.3673ZM998.992 90.4359C996.951 85.8842 992.389 82.7097 987.107 82.7097C981.825 82.7097 977.187 85.8429 975.18 90.4359H978.263C980.051 87.4336 983.305 85.4641 987.107 85.4641C990.909 85.4641 994.094 87.4542 995.91 90.4359C996.019 90.6287 996.129 90.8147 996.225 91.0144C997.376 91.097 998.472 91.3518 999.506 91.7581C999.362 91.3036 999.191 90.8629 998.992 90.4359Z" fill="#4B107A"/>
</g>
<defs>
<clipPath id="clip0_1223_16333">
<rect width="1007" height="91.7575" fill="white"/>
</clipPath>
</defs>
</svg>
